
<svg version="1.1" viewBox="0.0 0.0 949.0 585.0" fill="none" stroke="none" stroke-linecap="square" stroke-miterlimit="10" width="949" height="585" xmlns:xlink="http://www.w3.org/1999/xlink" xmlns="http://www.w3.org/2000/svg"><path fill="#ffffff" d="M0 0L949.0 0L949.0 585.0L0 585.0L0 0Z" fill-rule="nonzero"/><path fill="#4285f4" d="M474.5 29.25C496.58304 29.25 518.57837 32.028652 539.9676 37.52048L517.7086 124.21351C503.5917 120.588905 489.0748 118.75499 474.5 118.75499Z" fill-rule="nonzero"/><path fill="#ea4335" d="M539.9676 37.52048C615.9605 57.032143 679.29004 109.42287 712.69574 180.4136L631.70917 218.52298C609.66144 171.66908 567.86395 137.0912 517.7086 124.21351Z" fill-rule="nonzero"/><path fill="#fbbc04" d="M712.69574 180.4136C724.4576 205.40881 732.212 232.09955 735.6742 259.506L646.875 270.72397C644.5899 252.6357 639.472 235.01982 631.70917 218.52298Z" fill-rule="nonzero"/><path fill="#34a853" d="M735.6742 259.506C748.455 360.67685 701.6567 460.12842 615.5564 514.76935L567.5972 439.19775C624.4234 403.13477 655.31036 337.49673 646.875 270.72397Z" fill-rule="nonzero"/><path fill="#ff6d01" d="M615.5564 514.76935C592.2324 529.57117 566.72406 540.6096 539.9676 547.4795L517.7086 460.7865C535.36786 456.25235 552.2034 448.96698 567.5972 439.19775Z" fill-rule="nonzero"/><path fill="#f07b72" d="M215.91289 243.17188C239.59184 119.04241 348.13223 29.25 474.5 29.25L474.5 118.75499C391.09726 118.75499 319.4606 178.01799 303.8325 259.94342Z" fill-rule="nonzero"/><path fill="#7baaf7" d="M252.23067 433.5564C216.35341 377.0229 203.36642 308.94272 215.91289 243.17188L303.8325 259.94342C295.55182 303.3522 304.12323 348.2851 327.80225 385.59723Z" fill-rule="nonzero"/><path fill="#46bdc6" d="M539.9676 547.4795C429.50378 575.8418 313.34003 529.8493 252.23067 433.5564L327.80225 385.59723C368.1344 449.15054 444.8025 479.50558 517.7086 460.7865Z" fill-rule="nonzero"/><path fill="#1a1a1a" d="M30.421875 94.30427L30.421875 82.85114L38.90625 82.85114L38.90625 84.78864L32.734375 84.78864L32.734375 87.31989L38.484375 87.31989L38.484375 89.25739L32.734375 89.25739L32.734375 92.36677L39.125 92.36677L39.125 94.30427L30.421875 94.30427ZM48.640625 88.46052L46.46875 88.85114Q46.359375 88.19489 45.96875 87.86677Q45.59375 87.53864 44.96875 87.53864Q44.15625 87.53864 43.65625 88.11677Q43.171875 88.67927 43.171875 90.00739Q43.171875 91.47614 43.671875 92.08552Q44.171875 92.69489 45.0 92.69489Q45.625 92.69489 46.015625 92.35114Q46.421875 91.99177 46.59375 91.11677L48.75 91.49177Q48.40625 92.97614 47.453125 93.74177Q46.5 94.49177 44.90625 94.49177Q43.078125 94.49177 42.0 93.35114Q40.921875 92.19489 40.921875 90.16364Q40.921875 88.10114 42.0 86.96052Q43.09375 85.81989 44.9375 85.81989Q46.453125 85.81989 47.34375 86.47614Q48.25 87.11677 48.640625 88.46052ZM49.890625 90.03864Q49.890625 88.94489 50.421875 87.92927Q50.96875 86.89802 51.953125 86.36677Q52.953125 85.81989 54.171875 85.81989Q56.046875 85.81989 57.25 87.03864Q58.453125 88.25739 58.453125 90.13239Q58.453125 92.00739 57.234375 93.25739Q56.03125 94.49177 54.1875 94.49177Q53.046875 94.49177 52.0 93.97614Q50.96875 93.46052 50.421875 92.46052Q49.890625 91.46052 49.890625 90.03864ZM52.140625 90.14802Q52.140625 91.38239 52.71875 92.03864Q53.3125 92.69489 54.171875 92.69489Q55.03125 92.69489 55.609375 92.03864Q56.203125 91.38239 56.203125 90.13239Q56.203125 88.91364 55.609375 88.25739Q55.03125 87.60114 54.171875 87.60114Q53.3125 87.60114 52.71875 88.25739Q52.140625 88.91364 52.140625 90.14802ZM59.625 91.92927L61.828125 91.60114Q61.96875 92.24177 62.390625 92.56989Q62.828125 92.89802 63.609375 92.89802Q64.453125 92.89802 64.890625 92.58552Q65.171875 92.36677 65.171875 92.00739Q65.171875 91.75739 65.015625 91.58552Q64.859375 91.42927 64.28125 91.30427Q61.625 90.71052 60.921875 90.22614Q59.9375 89.55427 59.9375 88.36677Q59.9375 87.28864 60.78125 86.55427Q61.640625 85.81989 63.421875 85.81989Q65.125 85.81989 65.953125 86.38239Q66.78125 86.92927 67.09375 88.00739L65.03125 88.39802Q64.890625 87.91364 64.515625 87.66364Q64.15625 87.39802 63.46875 87.39802Q62.59375 87.39802 62.21875 87.63239Q61.96875 87.80427 61.96875 88.08552Q61.96875 88.31989 62.1875 88.47614Q62.484375 88.69489 64.234375 89.10114Q66.0 89.49177 66.6875 90.06989Q67.375 90.66364 67.375 91.71052Q67.375 92.85114 66.421875 93.67927Q65.46875 94.49177 63.609375 94.49177Q61.90625 94.49177 60.921875 93.80427Q59.9375 93.11677 59.625 91.92927ZM68.359375 86.00739L70.703125 86.00739L72.6875 91.89802L74.625 86.00739L76.890625 86.00739L73.96875 93.99177L73.4375 95.44489Q73.15625 96.16364 72.890625 96.53864Q72.625 96.92927 72.28125 97.16364Q71.953125 97.41364 71.453125 97.53864Q70.953125 97.67927 70.328125 97.67927Q69.703125 97.67927 69.09375 97.53864L68.890625 95.81989Q69.40625 95.92927 69.828125 95.92927Q70.59375 95.92927 70.953125 95.47614Q71.328125 95.02302 71.515625 94.33552L68.359375 86.00739ZM77.625 91.92927L79.828125 91.60114Q79.96875 92.24177 80.390625 92.56989Q80.828125 92.89802 81.609375 92.89802Q82.453125 92.89802 82.890625 92.58552Q83.171875 92.36677 83.171875 92.00739Q83.171875 91.75739 83.015625 91.58552Q82.859375 91.42927 82.28125 91.30427Q79.625 90.71052 78.921875 90.22614Q77.9375 89.55427 77.9375 88.36677Q77.9375 87.28864 78.78125 86.55427Q79.640625 85.81989 81.421875 85.81989Q83.125 85.81989 83.953125 86.38239Q84.78125 86.92927 85.09375 88.00739L83.03125 88.39802Q82.890625 87.91364 82.515625 87.66364Q82.15625 87.39802 81.46875 87.39802Q80.59375 87.39802 80.21875 87.63239Q79.96875 87.80427 79.96875 88.08552Q79.96875 88.31989 80.1875 88.47614Q80.484375 88.69489 82.234375 89.10114Q84.0 89.49177 84.6875 90.06989Q85.375 90.66364 85.375 91.71052Q85.375 92.85114 84.421875 93.67927Q83.46875 94.49177 81.609375 94.49177Q79.90625 94.49177 78.921875 93.80427Q77.9375 93.11677 77.625 91.92927ZM91.203125 86.00739L91.203125 87.75739L89.703125 87.75739L89.703125 91.10114Q89.703125 92.11677 89.75 92.28864Q89.796875 92.44489 89.9375 92.55427Q90.09375 92.66364 90.3125 92.66364Q90.625 92.66364 91.203125 92.46052L91.390625 94.16364Q90.625 94.49177 89.65625 94.49177Q89.0625 94.49177 88.578125 94.28864Q88.109375 94.08552 87.875 93.77302Q87.65625 93.46052 87.578125 92.91364Q87.5 92.53864 87.5 91.36677L87.5 87.75739L86.5 87.75739L86.5 86.00739L87.5 86.00739L87.5 84.35114L89.703125 83.06989L89.703125 86.00739L91.203125 86.00739ZM97.203125 91.66364L99.390625 92.02302Q98.96875 93.22614 98.0625 93.86677Q97.15625 94.49177 95.78125 94.49177Q93.625 94.49177 92.578125 93.06989Q91.765625 91.94489 91.765625 90.21052Q91.765625 88.14802 92.84375 86.99177Q93.921875 85.81989 95.5625 85.81989Q97.421875 85.81989 98.484375 87.03864Q99.5625 88.25739 99.515625 90.78864L94.015625 90.78864Q94.03125 91.75739 94.53125 92.30427Q95.046875 92.85114 95.8125 92.85114Q96.328125 92.85114 96.671875 92.56989Q97.03125 92.28864 97.203125 91.66364ZM97.328125 89.44489Q97.3125 88.49177 96.84375 87.99177Q96.375 87.49177 95.703125 87.49177Q94.984375 87.49177 94.515625 88.02302Q94.046875 88.53864 94.046875 89.44489L97.328125 89.44489ZM101.234375 86.00739L103.265625 86.00739L103.265625 87.13239Q104.34375 85.81989 105.84375 85.81989Q106.640625 85.81989 107.21875 86.14802Q107.8125 86.47614 108.1875 87.13239Q108.734375 86.47614 109.359375 86.14802Q110.0 85.81989 110.71875 85.81989Q111.640625 85.81989 112.265625 86.19489Q112.90625 86.55427 113.21875 87.27302Q113.4375 87.80427 113.4375 88.99177L113.4375 94.30427L111.25 94.30427L111.25 89.55427Q111.25 88.31989 111.015625 87.96052Q110.71875 87.49177 110.078125 87.49177Q109.625 87.49177 109.21875 87.77302Q108.8125 88.05427 108.625 88.60114Q108.453125 89.14802 108.453125 90.31989L108.453125 94.30427L106.25 94.30427L106.25 89.75739Q106.25 88.53864 106.125 88.19489Q106.015625 87.83552 105.765625 87.66364Q105.53125 87.49177 105.109375 87.49177Q104.59375 87.49177 104.1875 87.77302Q103.78125 88.03864 103.609375 88.55427Q103.4375 89.06989 103.4375 90.27302L103.4375 94.30427L101.234375 94.30427L101.234375 86.00739Z" fill-rule="nonzero"/><path fill="#9e9e9e" d="M37.34375 114.25739L37.34375 116.30427L29.65625 116.30427Q29.78125 115.14802 30.40625 114.11677Q31.03125 113.06989 32.875 111.36677Q34.359375 109.97614 34.6875 109.49177Q35.140625 108.80427 35.140625 108.14802Q35.140625 107.41364 34.75 107.02302Q34.359375 106.61677 33.65625 106.61677Q32.96875 106.61677 32.5625 107.03864Q32.15625 107.44489 32.09375 108.41364L29.90625 108.19489Q30.109375 106.38239 31.140625 105.60114Q32.171875 104.80427 33.71875 104.80427Q35.40625 104.80427 36.375 105.72614Q37.34375 106.63239 37.34375 107.99177Q37.34375 108.75739 37.0625 109.46052Q36.796875 110.16364 36.1875 110.92927Q35.796875 111.42927 34.75 112.38239Q33.71875 113.33552 33.4375 113.64802Q33.15625 113.96052 32.984375 114.25739L37.34375 114.25739ZM46.34375 114.25739L46.34375 116.30427L38.65625 116.30427Q38.78125 115.14802 39.40625 114.11677Q40.03125 113.06989 41.875 111.36677Q43.359375 109.97614 43.6875 109.49177Q44.140625 108.80427 44.140625 108.14802Q44.140625 107.41364 43.75 107.02302Q43.359375 106.61677 42.65625 106.61677Q41.96875 106.61677 41.5625 107.03864Q41.15625 107.44489 41.09375 108.41364L38.90625 108.19489Q39.109375 106.38239 40.140625 105.60114Q41.171875 104.80427 42.71875 104.80427Q44.40625 104.80427 45.375 105.72614Q46.34375 106.63239 46.34375 107.99177Q46.34375 108.75739 46.0625 109.46052Q45.796875 110.16364 45.1875 110.92927Q44.796875 111.42927 43.75 112.38239Q42.71875 113.33552 42.4375 113.64802Q42.15625 113.96052 41.984375 114.25739L46.34375 114.25739ZM48.40625 116.30427L48.40625 114.10114L50.59375 114.10114L50.59375 116.30427L48.40625 116.30427ZM55.640625 104.80427Q57.3125 104.80427 58.25 105.99177Q59.359375 107.39802 59.359375 110.64802Q59.359375 113.89802 58.234375 115.31989Q57.3125 116.50739 55.640625 116.50739Q53.96875 116.50739 52.9375 115.22614Q51.921875 113.92927 51.921875 110.63239Q51.921875 107.39802 53.046875 105.97614Q53.984375 104.80427 55.640625 104.80427ZM55.640625 106.61677Q55.25 106.61677 54.9375 106.88239Q54.625 107.13239 54.453125 107.78864Q54.21875 108.63239 54.21875 110.64802Q54.21875 112.66364 54.421875 113.42927Q54.625 114.17927 54.9375 114.42927Q55.25 114.67927 55.640625 114.67927Q56.046875 114.67927 56.359375 114.42927Q56.671875 114.16364 56.84375 113.50739Q57.0625 112.66364 57.0625 110.64802Q57.0625 108.63239 56.859375 107.88239Q56.65625 107.13239 56.34375 106.88239Q56.046875 106.61677 55.640625 106.61677ZM60.953125 107.67927Q60.953125 106.13239 61.625 105.39802Q62.296875 104.64802 63.453125 104.64802Q64.65625 104.64802 65.328125 105.39802Q66.0 106.13239 66.0 107.67927Q66.0 109.21052 65.328125 109.96052Q64.65625 110.69489 63.5 110.69489Q62.296875 110.69489 61.625 109.96052Q60.953125 109.22614 60.953125 107.67927ZM62.65625 107.66364Q62.65625 108.77302 62.921875 109.16364Q63.109375 109.44489 63.453125 109.44489Q63.8125 109.44489 64.0 109.16364Q64.25 108.77302 64.25 107.66364Q64.25 106.53864 64.0 106.16364Q63.8125 105.88239 63.453125 105.88239Q63.109375 105.88239 62.921875 106.16364Q62.65625 106.53864 62.65625 107.66364ZM65.125 116.74177L63.5 116.74177L69.609375 104.64802L71.1875 104.64802L65.125 116.74177ZM68.671875 113.72614Q68.671875 112.19489 69.34375 111.46052Q70.03125 110.71052 71.203125 110.71052Q72.375 110.71052 73.046875 111.46052Q73.734375 112.19489 73.734375 113.72614Q73.734375 115.27302 73.046875 116.02302Q72.375 116.77302 71.21875 116.77302Q70.03125 116.77302 69.34375 116.02302Q68.671875 115.27302 68.671875 113.72614ZM70.390625 113.72614Q70.390625 114.83552 70.640625 115.21052Q70.84375 115.50739 71.1875 115.50739Q71.53125 115.50739 71.71875 115.22614Q71.984375 114.83552 71.984375 113.72614Q71.984375 112.60114 71.734375 112.22614Q71.53125 111.94489 71.1875 111.94489Q70.828125 111.94489 70.640625 112.22614Q70.390625 112.60114 70.390625 113.72614Z" fill-rule="nonzero"/><path stroke="#757575" stroke-width="1.0" stroke-linecap="butt" d="M29.25 99.80427L205.25 99.80427L315.08823 99.80427" fill-rule="nonzero"/><path fill="#9e9e9e" d="M317.08823 99.80427C317.08823 98.6997 316.1928 97.80427 315.08823 97.80427C313.98367 97.80427 313.08823 98.6997 313.08823 99.80427C313.08823 100.90884 313.98367 101.80427 315.08823 101.80427C316.1928 101.80427 317.08823 100.90884 317.08823 99.80427" fill-rule="nonzero"/><path fill="#1a1a1a" d="M33.34375 333.86172L29.234375 322.4086L31.75 322.4086L34.65625 330.87735L37.453125 322.4086L39.90625 322.4086L35.8125 333.86172L33.34375 333.86172ZM43.046875 328.0961L41.046875 327.73672Q41.390625 326.5336 42.203125 325.95547Q43.03125 325.37735 44.640625 325.37735Q46.109375 325.37735 46.828125 325.7211Q47.546875 326.06485 47.84375 326.61172Q48.140625 327.14297 48.140625 328.56485L48.109375 331.12735Q48.109375 332.2211 48.21875 332.75235Q48.328125 333.26797 48.609375 333.86172L46.4375 333.86172Q46.359375 333.64297 46.234375 333.20547Q46.171875 333.01797 46.15625 332.95547Q45.59375 333.50235 44.953125 333.7836Q44.3125 334.04922 43.578125 334.04922Q42.296875 334.04922 41.5625 333.36172Q40.828125 332.6586 40.828125 331.5961Q40.828125 330.89297 41.15625 330.3461Q41.5 329.7836 42.09375 329.50235Q42.703125 329.20547 43.84375 328.98672Q45.390625 328.68985 45.984375 328.43985L45.984375 328.2211Q45.984375 327.5961 45.671875 327.33047Q45.359375 327.04922 44.484375 327.04922Q43.90625 327.04922 43.578125 327.2836Q43.25 327.51797 43.046875 328.0961ZM45.984375 329.87735Q45.5625 330.01797 44.640625 330.2211Q43.734375 330.4086 43.453125 330.5961Q43.015625 330.89297 43.015625 331.36172Q43.015625 331.83047 43.359375 332.17422Q43.703125 332.50235 44.234375 332.50235Q44.828125 332.50235 45.375 332.11172Q45.765625 331.81485 45.890625 331.37735Q45.984375 331.0961 45.984375 330.31485L45.984375 329.87735ZM50.40625 333.86172L50.40625 322.4086L52.59375 322.4086L52.59375 333.86172L50.40625 333.86172ZM54.40625 324.43985L54.40625 322.4086L56.59375 322.4086L56.59375 324.43985L54.40625 324.43985ZM54.40625 333.86172L54.40625 325.56485L56.59375 325.56485L56.59375 333.86172L54.40625 333.86172ZM66.015625 333.86172L63.96875 333.86172L63.96875 332.64297Q63.46875 333.3461 62.765625 333.70547Q62.078125 334.04922 61.375 334.04922Q59.953125 334.04922 58.921875 332.89297Q57.90625 331.73672 57.90625 329.67422Q57.90625 327.56485 58.890625 326.4711Q59.890625 325.37735 61.40625 325.37735Q62.796875 325.37735 63.8125 326.5336L63.8125 322.4086L66.015625 322.4086L66.015625 333.86172ZM60.15625 329.5336Q60.15625 330.86172 60.515625 331.45547Q61.046875 332.31485 62.0 332.31485Q62.765625 332.31485 63.296875 331.67422Q63.828125 331.01797 63.828125 329.73672Q63.828125 328.31485 63.3125 327.68985Q62.796875 327.04922 61.984375 327.04922Q61.203125 327.04922 60.671875 327.67422Q60.15625 328.29922 60.15625 329.5336ZM70.046875 328.0961L68.046875 327.73672Q68.390625 326.5336 69.203125 325.95547Q70.03125 325.37735 71.640625 325.37735Q73.109375 325.37735 73.828125 325.7211Q74.546875 326.06485 74.84375 326.61172Q75.140625 327.14297 75.140625 328.56485L75.109375 331.12735Q75.109375 332.2211 75.21875 332.75235Q75.328125 333.26797 75.609375 333.86172L73.4375 333.86172Q73.359375 333.64297 73.234375 333.20547Q73.171875 333.01797 73.15625 332.95547Q72.59375 333.50235 71.953125 333.7836Q71.3125 334.04922 70.578125 334.04922Q69.296875 334.04922 68.5625 333.36172Q67.828125 332.6586 67.828125 331.5961Q67.828125 330.89297 68.15625 330.3461Q68.5 329.7836 69.09375 329.50235Q69.703125 329.20547 70.84375 328.98672Q72.390625 328.68985 72.984375 328.43985L72.984375 328.2211Q72.984375 327.5961 72.671875 327.33047Q72.359375 327.04922 71.484375 327.04922Q70.90625 327.04922 70.578125 327.2836Q70.25 327.51797 70.046875 328.0961ZM72.984375 329.87735Q72.5625 330.01797 71.640625 330.2211Q70.734375 330.4086 70.453125 330.5961Q70.015625 330.89297 70.015625 331.36172Q70.015625 331.83047 70.359375 332.17422Q70.703125 332.50235 71.234375 332.50235Q71.828125 332.50235 72.375 332.11172Q72.765625 331.81485 72.890625 331.37735Q72.984375 331.0961 72.984375 330.31485L72.984375 329.87735ZM81.203125 325.56485L81.203125 327.31485L79.703125 327.31485L79.703125 330.6586Q79.703125 331.67422 79.75 331.8461Q79.796875 332.00235 79.9375 332.11172Q80.09375 332.2211 80.3125 332.2211Q80.625 332.2211 81.203125 332.01797L81.390625 333.7211Q80.625 334.04922 79.65625 334.04922Q79.0625 334.04922 78.578125 333.8461Q78.109375 333.64297 77.875 333.33047Q77.65625 333.01797 77.578125 332.4711Q77.5 332.0961 77.5 330.92422L77.5 327.31485L76.5 327.31485L76.5 325.56485L77.5 325.56485L77.5 323.9086L79.703125 322.62735L79.703125 325.56485L81.203125 325.56485ZM81.890625 329.5961Q81.890625 328.50235 82.421875 327.48672Q82.96875 326.45547 83.953125 325.92422Q84.953125 325.37735 86.171875 325.37735Q88.046875 325.37735 89.25 326.5961Q90.453125 327.81485 90.453125 329.68985Q90.453125 331.56485 89.234375 332.81485Q88.03125 334.04922 86.1875 334.04922Q85.046875 334.04922 84.0 333.5336Q82.96875 333.01797 82.421875 332.01797Q81.890625 331.01797 81.890625 329.5961ZM84.140625 329.70547Q84.140625 330.93985 84.71875 331.5961Q85.3125 332.25235 86.171875 332.25235Q87.03125 332.25235 87.609375 331.5961Q88.203125 330.93985 88.203125 329.68985Q88.203125 328.4711 87.609375 327.81485Q87.03125 327.1586 86.171875 327.1586Q85.3125 327.1586 84.71875 327.81485Q84.140625 328.4711 84.140625 329.70547ZM94.5 333.86172L92.3125 333.86172L92.3125 325.56485L94.34375 325.56485L94.34375 326.73672Q94.875 325.9086 95.28125 325.64297Q95.703125 325.37735 96.234375 325.37735Q96.984375 325.37735 97.6875 325.7836L97.0 327.70547Q96.453125 327.3461 95.96875 327.3461Q95.515625 327.3461 95.1875 327.5961Q94.875 327.8461 94.6875 328.51797Q94.5 329.17422 94.5 331.29922L94.5 333.86172ZM102.421875 333.86172L102.421875 322.4086L107.296875 322.4086Q109.125 322.4086 109.953125 322.7211Q110.796875 323.01797 111.296875 323.81485Q111.796875 324.5961 111.796875 325.61172Q111.796875 326.9086 111.03125 327.75235Q110.28125 328.58047 108.765625 328.79922Q109.515625 329.23672 110.0 329.76797Q110.5 330.2836 111.328125 331.62735L112.71875 333.86172L109.953125 333.86172L108.28125 331.36172Q107.390625 330.0336 107.0625 329.68985Q106.734375 329.33047 106.359375 329.20547Q106.0 329.08047 105.203125 329.08047L104.734375 329.08047L104.734375 333.86172L102.421875 333.86172ZM104.734375 327.25235L106.453125 327.25235Q108.109375 327.25235 108.515625 327.11172Q108.9375 326.9711 109.171875 326.62735Q109.40625 326.2836 109.40625 325.76797Q109.40625 325.18985 109.09375 324.83047Q108.796875 324.4711 108.234375 324.37735Q107.953125 324.3461 106.546875 324.3461L104.734375 324.3461L104.734375 327.25235ZM119.203125 331.2211L121.390625 331.58047Q120.96875 332.7836 120.0625 333.42422Q119.15625 334.04922 117.78125 334.04922Q115.625 334.04922 114.578125 332.62735Q113.765625 331.50235 113.765625 329.76797Q113.765625 327.70547 114.84375 326.54922Q115.921875 325.37735 117.5625 325.37735Q119.421875 325.37735 120.484375 326.5961Q121.5625 327.81485 121.515625 330.3461L116.015625 330.3461Q116.03125 331.31485 116.53125 331.86172Q117.046875 332.4086 117.8125 332.4086Q118.328125 332.4086 118.671875 332.12735Q119.03125 331.8461 119.203125 331.2211ZM119.328125 329.00235Q119.3125 328.04922 118.84375 327.54922Q118.375 327.04922 117.703125 327.04922Q116.984375 327.04922 116.515625 327.58047Q116.046875 328.0961 116.046875 329.00235L119.328125 329.00235ZM124.953125 333.86172L122.328125 325.56485L124.453125 325.56485L126.015625 331.00235L127.4375 325.56485L129.5625 325.56485L130.9375 331.00235L132.53125 325.56485L134.6875 325.56485L132.03125 333.86172L129.92188 333.86172L128.48438 328.51797L127.078125 333.86172L124.953125 333.86172ZM137.04688 328.0961L135.04688 327.73672Q135.39062 326.5336 136.20312 325.95547Q137.03125 325.37735 138.64062 325.37735Q140.10938 325.37735 140.82812 325.7211Q141.54688 326.06485 141.84375 326.61172Q142.14062 327.14297 142.14062 328.56485L142.10938 331.12735Q142.10938 332.2211 142.21875 332.75235Q142.32812 333.26797 142.60938 333.86172L140.4375 333.86172Q140.35938 333.64297 140.23438 333.20547Q140.17188 333.01797 140.15625 332.95547Q139.59375 333.50235 138.95312 333.7836Q138.3125 334.04922 137.57812 334.04922Q136.29688 334.04922 135.5625 333.36172Q134.82812 332.6586 134.82812 331.5961Q134.82812 330.89297 135.15625 330.3461Q135.5 329.7836 136.09375 329.50235Q136.70312 329.20547 137.84375 328.98672Q139.39062 328.68985 139.98438 328.43985L139.98438 328.2211Q139.98438 327.5961 139.67188 327.33047Q139.35938 327.04922 138.48438 327.04922Q137.90625 327.04922 137.57812 327.2836Q137.25 327.51797 137.04688 328.0961ZM139.98438 329.87735Q139.5625 330.01797 138.64062 330.2211Q137.73438 330.4086 137.45312 330.5961Q137.01562 330.89297 137.01562 331.36172Q137.01562 331.83047 137.35938 332.17422Q137.70312 332.50235 138.23438 332.50235Q138.82812 332.50235 139.375 332.11172Q139.76562 331.81485 139.89062 331.37735Q139.98438 331.0961 139.98438 330.31485L139.98438 329.87735ZM146.5 333.86172L144.3125 333.86172L144.3125 325.56485L146.34375 325.56485L146.34375 326.73672Q146.875 325.9086 147.28125 325.64297Q147.70312 325.37735 148.23438 325.37735Q148.98438 325.37735 149.6875 325.7836L149.0 327.70547Q148.45312 327.3461 147.96875 327.3461Q147.51562 327.3461 147.1875 327.5961Q146.875 327.8461 146.6875 328.51797Q146.5 329.17422 146.5 331.29922L146.5 333.86172ZM158.01562 333.86172L155.96875 333.86172L155.96875 332.64297Q155.46875 333.3461 154.76562 333.70547Q154.07812 334.04922 153.375 334.04922Q151.95312 334.04922 150.92188 332.89297Q149.90625 331.73672 149.90625 329.67422Q149.90625 327.56485 150.89062 326.4711Q151.89062 325.37735 153.40625 325.37735Q154.79688 325.37735 155.8125 326.5336L155.8125 322.4086L158.01562 322.4086L158.01562 333.86172ZM152.15625 329.5336Q152.15625 330.86172 152.51562 331.45547Q153.04688 332.31485 154.0 332.31485Q154.76562 332.31485 155.29688 331.67422Q155.82812 331.01797 155.82812 329.73672Q155.82812 328.31485 155.3125 327.68985Q154.79688 327.04922 153.98438 327.04922Q153.20312 327.04922 152.67188 327.67422Q152.15625 328.29922 152.15625 329.5336ZM164.4375 333.86172L164.4375 322.4086L172.28125 322.4086L172.28125 324.3461L166.75 324.3461L166.75 327.04922L171.53125 327.04922L171.53125 328.98672L166.75 328.98672L166.75 333.86172L164.4375 333.86172ZM179.85938 333.86172L179.85938 332.61172Q179.40625 333.2836 178.67188 333.67422Q177.9375 334.04922 177.10938 334.04922Q176.28125 334.04922 175.60938 333.68985Q174.95312 333.31485 174.65625 332.6586Q174.35938 331.98672 174.35938 330.81485L174.35938 325.56485L176.54688 325.56485L176.54688 329.37735Q176.54688 331.12735 176.67188 331.51797Q176.79688 331.9086 177.10938 332.14297Q177.4375 332.37735 177.92188 332.37735Q178.48438 332.37735 178.92188 332.06485Q179.375 331.75235 179.53125 331.29922Q179.70312 330.8461 179.70312 329.06485L179.70312 325.56485L181.90625 325.56485L181.90625 333.86172L179.85938 333.86172ZM191.95312 333.86172L189.75 333.86172L189.75 329.62735Q189.75 328.2836 189.60938 327.89297Q189.46875 327.48672 189.15625 327.26797Q188.84375 327.04922 188.39062 327.04922Q187.82812 327.04922 187.375 327.36172Q186.92188 327.67422 186.75 328.18985Q186.57812 328.70547 186.57812 330.0961L186.57812 333.86172L184.39062 333.86172L184.39062 325.56485L186.42188 325.56485L186.42188 326.7836Q187.51562 325.37735 189.15625 325.37735Q189.89062 325.37735 190.48438 325.64297Q191.09375 325.89297 191.39062 326.29922Q191.70312 326.70547 191.82812 327.2211Q191.95312 327.73672 191.95312 328.70547L191.95312 333.86172ZM202.01562 333.86172L199.96875 333.86172L199.96875 332.64297Q199.46875 333.3461 198.76562 333.70547Q198.07812 334.04922 197.375 334.04922Q195.95312 334.04922 194.92188 332.89297Q193.90625 331.73672 193.90625 329.67422Q193.90625 327.56485 194.89062 326.4711Q195.89062 325.37735 197.40625 325.37735Q198.79688 325.37735 199.8125 326.5336L199.8125 322.4086L202.01562 322.4086L202.01562 333.86172ZM196.15625 329.5336Q196.15625 330.86172 196.51562 331.45547Q197.04688 332.31485 198.0 332.31485Q198.76562 332.31485 199.29688 331.67422Q199.82812 331.01797 199.82812 329.73672Q199.82812 328.31485 199.3125 327.68985Q198.79688 327.04922 197.98438 327.04922Q197.20312 327.04922 196.67188 327.67422Q196.15625 328.29922 196.15625 329.5336Z" fill-rule="nonzero"/><path fill="#9e9e9e" d="M35.546875 355.86172L33.359375 355.86172L33.359375 347.58047Q32.15625 348.70547 30.515625 349.25235L30.515625 347.25235Q31.375 346.9711 32.375 346.18985Q33.390625 345.4086 33.765625 344.36172L35.546875 344.36172L35.546875 355.86172ZM46.34375 353.81485L46.34375 355.86172L38.65625 355.86172Q38.78125 354.70547 39.40625 353.67422Q40.03125 352.62735 41.875 350.92422Q43.359375 349.5336 43.6875 349.04922Q44.140625 348.36172 44.140625 347.70547Q44.140625 346.9711 43.75 346.58047Q43.359375 346.17422 42.65625 346.17422Q41.96875 346.17422 41.5625 346.5961Q41.15625 347.00235 41.09375 347.9711L38.90625 347.75235Q39.109375 345.93985 40.140625 345.1586Q41.171875 344.36172 42.71875 344.36172Q44.40625 344.36172 45.375 345.2836Q46.34375 346.18985 46.34375 347.54922Q46.34375 348.31485 46.0625 349.01797Q45.796875 349.7211 45.1875 350.48672Q44.796875 350.98672 43.75 351.93985Q42.71875 352.89297 42.4375 353.20547Q42.15625 353.51797 41.984375 353.81485L46.34375 353.81485ZM48.40625 355.86172L48.40625 353.6586L50.59375 353.6586L50.59375 355.86172L48.40625 355.86172ZM55.640625 344.36172Q57.3125 344.36172 58.25 345.54922Q59.359375 346.95547 59.359375 350.20547Q59.359375 353.45547 58.234375 354.87735Q57.3125 356.06485 55.640625 356.06485Q53.96875 356.06485 52.9375 354.7836Q51.921875 353.48672 51.921875 350.18985Q51.921875 346.95547 53.046875 345.5336Q53.984375 344.36172 55.640625 344.36172ZM55.640625 346.17422Q55.25 346.17422 54.9375 346.43985Q54.625 346.68985 54.453125 347.3461Q54.21875 348.18985 54.21875 350.20547Q54.21875 352.2211 54.421875 352.98672Q54.625 353.73672 54.9375 353.98672Q55.25 354.23672 55.640625 354.23672Q56.046875 354.23672 56.359375 353.98672Q56.671875 353.7211 56.84375 353.06485Q57.0625 352.2211 57.0625 350.20547Q57.0625 348.18985 56.859375 347.43985Q56.65625 346.68985 56.34375 346.43985Q56.046875 346.17422 55.640625 346.17422ZM60.953125 347.23672Q60.953125 345.68985 61.625 344.95547Q62.296875 344.20547 63.453125 344.20547Q64.65625 344.20547 65.328125 344.95547Q66.0 345.68985 66.0 347.23672Q66.0 348.76797 65.328125 349.51797Q64.65625 350.25235 63.5 350.25235Q62.296875 350.25235 61.625 349.51797Q60.953125 348.7836 60.953125 347.23672ZM62.65625 347.2211Q62.65625 348.33047 62.921875 348.7211Q63.109375 349.00235 63.453125 349.00235Q63.8125 349.00235 64.0 348.7211Q64.25 348.33047 64.25 347.2211Q64.25 346.0961 64.0 345.7211Q63.8125 345.43985 63.453125 345.43985Q63.109375 345.43985 62.921875 345.7211Q62.65625 346.0961 62.65625 347.2211ZM65.125 356.29922L63.5 356.29922L69.609375 344.20547L71.1875 344.20547L65.125 356.29922ZM68.671875 353.2836Q68.671875 351.75235 69.34375 351.01797Q70.03125 350.26797 71.203125 350.26797Q72.375 350.26797 73.046875 351.01797Q73.734375 351.75235 73.734375 353.2836Q73.734375 354.83047 73.046875 355.58047Q72.375 356.33047 71.21875 356.33047Q70.03125 356.33047 69.34375 355.58047Q68.671875 354.83047 68.671875 353.2836ZM70.390625 353.2836Q70.390625 354.39297 70.640625 354.76797Q70.84375 355.06485 71.1875 355.06485Q71.53125 355.06485 71.71875 354.7836Q71.984375 354.39297 71.984375 353.2836Q71.984375 352.1586 71.734375 351.7836Q71.53125 351.50235 71.1875 351.50235Q70.828125 351.50235 70.640625 351.7836Q70.390625 352.1586 70.390625 353.2836Z" fill-rule="nonzero"/><path stroke="#757575" stroke-width="1.0" stroke-linecap="butt" d="M29.25 339.36172L205.25 339.36172L228.84224 339.36172" fill-rule="nonzero"/><path fill="#9e9e9e" d="M230.84224 339.36172C230.84224 338.25714 229.94681 337.36172 228.84224 337.36172C227.73767 337.36172 226.84224 338.25714 226.84224 339.36172C226.84224 340.4663 227.73767 341.36172 228.84224 341.36172C229.94681 341.36172 230.84224 340.4663 230.84224 339.36172" fill-rule="nonzero"/><path fill="#1a1a1a" d="M30.4375 519.52545L30.4375 508.07233L38.28125 508.07233L38.28125 510.00983L32.75 510.00983L32.75 512.71295L37.53125 512.71295L37.53125 514.65045L32.75 514.65045L32.75 519.52545L30.4375 519.52545ZM39.890625 515.2598Q39.890625 514.1661 40.421875 513.15045Q40.96875 512.1192 41.953125 511.58795Q42.953125 511.04108 44.171875 511.04108Q46.046875 511.04108 47.25 512.2598Q48.453125 513.4786 48.453125 515.3536Q48.453125 517.2286 47.234375 518.4786Q46.03125 519.71295 44.1875 519.71295Q43.046875 519.71295 42.0 519.1973Q40.96875 518.6817 40.421875 517.6817Q39.890625 516.6817 39.890625 515.2598ZM42.140625 515.3692Q42.140625 516.6036 42.71875 517.2598Q43.3125 517.9161 44.171875 517.9161Q45.03125 517.9161 45.609375 517.2598Q46.203125 516.6036 46.203125 515.3536Q46.203125 514.1348 45.609375 513.4786Q45.03125 512.8223 44.171875 512.8223Q43.3125 512.8223 42.71875 513.4786Q42.140625 514.1348 42.140625 515.3692ZM55.859375 519.52545L55.859375 518.27545Q55.40625 518.9473 54.671875 519.33795Q53.9375 519.71295 53.109375 519.71295Q52.28125 519.71295 51.609375 519.3536Q50.953125 518.9786 50.65625 518.3223Q50.359375 517.65045 50.359375 516.4786L50.359375 511.22858L52.546875 511.22858L52.546875 515.0411Q52.546875 516.7911 52.671875 517.1817Q52.796875 517.5723 53.109375 517.8067Q53.4375 518.0411 53.921875 518.0411Q54.484375 518.0411 54.921875 517.7286Q55.375 517.4161 55.53125 516.96295Q55.703125 516.5098 55.703125 514.7286L55.703125 511.22858L57.90625 511.22858L57.90625 519.52545L55.859375 519.52545ZM67.953125 519.52545L65.75 519.52545L65.75 515.2911Q65.75 513.9473 65.609375 513.5567Q65.46875 513.15045 65.15625 512.9317Q64.84375 512.71295 64.390625 512.71295Q63.828125 512.71295 63.375 513.02545Q62.921875 513.33795 62.75 513.8536Q62.578125 514.3692 62.578125 515.7598L62.578125 519.52545L60.390625 519.52545L60.390625 511.22858L62.421875 511.22858L62.421875 512.4473Q63.515625 511.04108 65.15625 511.04108Q65.890625 511.04108 66.484375 511.3067Q67.09375 511.5567 67.390625 511.96295Q67.703125 512.3692 67.828125 512.8848Q67.953125 513.40045 67.953125 514.3692L67.953125 519.52545ZM78.015625 519.52545L75.96875 519.52545L75.96875 518.3067Q75.46875 519.0098 74.765625 519.3692Q74.078125 519.71295 73.375 519.71295Q71.953125 519.71295 70.921875 518.5567Q69.90625 517.40045 69.90625 515.33795Q69.90625 513.2286 70.890625 512.1348Q71.890625 511.04108 73.40625 511.04108Q74.796875 511.04108 75.8125 512.1973L75.8125 508.07233L78.015625 508.07233L78.015625 519.52545ZM72.15625 515.1973Q72.15625 516.52545 72.515625 517.1192Q73.046875 517.9786 74.0 517.9786Q74.765625 517.9786 75.296875 517.33795Q75.828125 516.6817 75.828125 515.40045Q75.828125 513.9786 75.3125 513.3536Q74.796875 512.71295 73.984375 512.71295Q73.203125 512.71295 72.671875 513.33795Q72.15625 513.96295 72.15625 515.1973ZM82.046875 513.7598L80.046875 513.40045Q80.390625 512.1973 81.203125 511.6192Q82.03125 511.04108 83.640625 511.04108Q85.109375 511.04108 85.828125 511.38483Q86.546875 511.72858 86.84375 512.27545Q87.140625 512.8067 87.140625 514.2286L87.109375 516.7911Q87.109375 517.8848 87.21875 518.4161Q87.328125 518.9317 87.609375 519.52545L85.4375 519.52545Q85.359375 519.3067 85.234375 518.8692Q85.171875 518.6817 85.15625 518.6192Q84.59375 519.1661 83.953125 519.4473Q83.3125 519.71295 82.578125 519.71295Q81.296875 519.71295 80.5625 519.02545Q79.828125 518.3223 79.828125 517.2598Q79.828125 516.5567 80.15625 516.0098Q80.5 515.4473 81.09375 515.1661Q81.703125 514.8692 82.84375 514.65045Q84.390625 514.3536 84.984375 514.1036L84.984375 513.8848Q84.984375 513.2598 84.671875 512.9942Q84.359375 512.71295 83.484375 512.71295Q82.90625 512.71295 82.578125 512.9473Q82.25 513.1817 82.046875 513.7598ZM84.984375 515.5411Q84.5625 515.6817 83.640625 515.8848Q82.734375 516.0723 82.453125 516.2598Q82.015625 516.5567 82.015625 517.02545Q82.015625 517.4942 82.359375 517.83795Q82.703125 518.1661 83.234375 518.1661Q83.828125 518.1661 84.375 517.77545Q84.765625 517.4786 84.890625 517.0411Q84.984375 516.7598 84.984375 515.9786L84.984375 515.5411ZM93.203125 511.22858L93.203125 512.9786L91.703125 512.9786L91.703125 516.3223Q91.703125 517.33795 91.75 517.5098Q91.796875 517.6661 91.9375 517.77545Q92.09375 517.8848 92.3125 517.8848Q92.625 517.8848 93.203125 517.6817L93.390625 519.3848Q92.625 519.71295 91.65625 519.71295Q91.0625 519.71295 90.578125 519.5098Q90.109375 519.3067 89.875 518.9942Q89.65625 518.6817 89.578125 518.1348Q89.5 517.7598 89.5 516.58795L89.5 512.9786L88.5 512.9786L88.5 511.22858L89.5 511.22858L89.5 509.57233L91.703125 508.29108L91.703125 511.22858L93.203125 511.22858ZM94.40625 510.10358L94.40625 508.07233L96.59375 508.07233L96.59375 510.10358L94.40625 510.10358ZM94.40625 519.52545L94.40625 511.22858L96.59375 511.22858L96.59375 519.52545L94.40625 519.52545ZM97.890625 515.2598Q97.890625 514.1661 98.421875 513.15045Q98.96875 512.1192 99.953125 511.58795Q100.953125 511.04108 102.171875 511.04108Q104.046875 511.04108 105.25 512.2598Q106.453125 513.4786 106.453125 515.3536Q106.453125 517.2286 105.234375 518.4786Q104.03125 519.71295 102.1875 519.71295Q101.046875 519.71295 100.0 519.1973Q98.96875 518.6817 98.421875 517.6817Q97.890625 516.6817 97.890625 515.2598ZM100.140625 515.3692Q100.140625 516.6036 100.71875 517.2598Q101.3125 517.9161 102.171875 517.9161Q103.03125 517.9161 103.609375 517.2598Q104.203125 516.6036 104.203125 515.3536Q104.203125 514.1348 103.609375 513.4786Q103.03125 512.8223 102.171875 512.8223Q101.3125 512.8223 100.71875 513.4786Q100.140625 514.1348 100.140625 515.3692ZM115.953125 519.52545L113.75 519.52545L113.75 515.2911Q113.75 513.9473 113.609375 513.5567Q113.46875 513.15045 113.15625 512.9317Q112.84375 512.71295 112.390625 512.71295Q111.828125 512.71295 111.375 513.02545Q110.921875 513.33795 110.75 513.8536Q110.578125 514.3692 110.578125 515.7598L110.578125 519.52545L108.390625 519.52545L108.390625 511.22858L110.421875 511.22858L110.421875 512.4473Q111.515625 511.04108 113.15625 511.04108Q113.890625 511.04108 114.484375 511.3067Q115.09375 511.5567 115.390625 511.96295Q115.703125 512.3692 115.828125 512.8848Q115.953125 513.40045 115.953125 514.3692L115.953125 519.52545Z" fill-rule="nonzero"/><path fill="#9e9e9e" d="M37.34375 539.4786L37.34375 541.52545L29.65625 541.52545Q29.78125 540.3692 30.40625 539.33795Q31.03125 538.2911 32.875 536.58795Q34.359375 535.1973 34.6875 534.71295Q35.140625 534.02545 35.140625 533.3692Q35.140625 532.6348 34.75 532.2442Q34.359375 531.83795 33.65625 531.83795Q32.96875 531.83795 32.5625 532.2598Q32.15625 532.6661 32.09375 533.6348L29.90625 533.4161Q30.109375 531.6036 31.140625 530.8223Q32.171875 530.02545 33.71875 530.02545Q35.40625 530.02545 36.375 530.9473Q37.34375 531.8536 37.34375 533.21295Q37.34375 533.9786 37.0625 534.6817Q36.796875 535.3848 36.1875 536.15045Q35.796875 536.65045 34.75 537.6036Q33.71875 538.5567 33.4375 538.8692Q33.15625 539.1817 32.984375 539.4786L37.34375 539.4786ZM42.640625 530.02545Q44.3125 530.02545 45.25 531.21295Q46.359375 532.6192 46.359375 535.8692Q46.359375 539.1192 45.234375 540.5411Q44.3125 541.7286 42.640625 541.7286Q40.96875 541.7286 39.9375 540.4473Q38.921875 539.15045 38.921875 535.8536Q38.921875 532.6192 40.046875 531.1973Q40.984375 530.02545 42.640625 530.02545ZM42.640625 531.83795Q42.25 531.83795 41.9375 532.1036Q41.625 532.3536 41.453125 533.0098Q41.21875 533.8536 41.21875 535.8692Q41.21875 537.8848 41.421875 538.65045Q41.625 539.40045 41.9375 539.65045Q42.25 539.90045 42.640625 539.90045Q43.046875 539.90045 43.359375 539.65045Q43.671875 539.3848 43.84375 538.7286Q44.0625 537.8848 44.0625 535.8692Q44.0625 533.8536 43.859375 533.1036Q43.65625 532.3536 43.34375 532.1036Q43.046875 531.83795 42.640625 531.83795ZM48.40625 541.52545L48.40625 539.3223L50.59375 539.3223L50.59375 541.52545L48.40625 541.52545ZM55.640625 530.02545Q57.3125 530.02545 58.25 531.21295Q59.359375 532.6192 59.359375 535.8692Q59.359375 539.1192 58.234375 540.5411Q57.3125 541.7286 55.640625 541.7286Q53.96875 541.7286 52.9375 540.4473Q51.921875 539.15045 51.921875 535.8536Q51.921875 532.6192 53.046875 531.1973Q53.984375 530.02545 55.640625 530.02545ZM55.640625 531.83795Q55.25 531.83795 54.9375 532.1036Q54.625 532.3536 54.453125 533.0098Q54.21875 533.8536 54.21875 535.8692Q54.21875 537.8848 54.421875 538.65045Q54.625 539.40045 54.9375 539.65045Q55.25 539.90045 55.640625 539.90045Q56.046875 539.90045 56.359375 539.65045Q56.671875 539.3848 56.84375 538.7286Q57.0625 537.8848 57.0625 535.8692Q57.0625 533.8536 56.859375 533.1036Q56.65625 532.3536 56.34375 532.1036Q56.046875 531.83795 55.640625 531.83795ZM60.953125 532.90045Q60.953125 531.3536 61.625 530.6192Q62.296875 529.8692 63.453125 529.8692Q64.65625 529.8692 65.328125 530.6192Q66.0 531.3536 66.0 532.90045Q66.0 534.4317 65.328125 535.1817Q64.65625 535.9161 63.5 535.9161Q62.296875 535.9161 61.625 535.1817Q60.953125 534.4473 60.953125 532.90045ZM62.65625 532.8848Q62.65625 533.9942 62.921875 534.3848Q63.109375 534.6661 63.453125 534.6661Q63.8125 534.6661 64.0 534.3848Q64.25 533.9942 64.25 532.8848Q64.25 531.7598 64.0 531.3848Q63.8125 531.1036 63.453125 531.1036Q63.109375 531.1036 62.921875 531.3848Q62.65625 531.7598 62.65625 532.8848ZM65.125 541.96295L63.5 541.96295L69.609375 529.8692L71.1875 529.8692L65.125 541.96295ZM68.671875 538.9473Q68.671875 537.4161 69.34375 536.6817Q70.03125 535.9317 71.203125 535.9317Q72.375 535.9317 73.046875 536.6817Q73.734375 537.4161 73.734375 538.9473Q73.734375 540.4942 73.046875 541.2442Q72.375 541.9942 71.21875 541.9942Q70.03125 541.9942 69.34375 541.2442Q68.671875 540.4942 68.671875 538.9473ZM70.390625 538.9473Q70.390625 540.0567 70.640625 540.4317Q70.84375 540.7286 71.1875 540.7286Q71.53125 540.7286 71.71875 540.4473Q71.984375 540.0567 71.984375 538.9473Q71.984375 537.8223 71.734375 537.4473Q71.53125 537.1661 71.1875 537.1661Q70.828125 537.1661 70.640625 537.4473Q70.390625 537.8223 70.390625 538.9473Z" fill-rule="nonzero"/><path stroke="#757575" stroke-width="1.0" stroke-linecap="butt" d="M29.25 525.02545L205.25 525.02545L382.43665 525.02545" fill-rule="nonzero"/><path fill="#9e9e9e" d="M384.43665 525.02545C384.43665 523.9209 383.54123 523.02545 382.43665 523.02545C381.3321 523.02545 380.43665 523.9209 380.43665 525.02545C380.43665 526.13007 381.3321 527.02545 382.43665 527.02545C383.54123 527.02545 384.43665 526.13007 384.43665 525.02545" fill-rule="nonzero"/><path fill="#1a1a1a" d="M844.3281 40.515625L846.5781 40.296875Q846.78125 41.4375 847.40625 41.96875Q848.03125 42.5 849.0781 42.5Q850.2031 42.5 850.7656 42.03125Q851.3281 41.546875 851.3281 40.921875Q851.3281 40.515625 851.09375 40.234375Q850.8594 39.9375 850.2656 39.734375Q849.8594 39.59375 848.40625 39.234375Q846.5469 38.765625 845.7969 38.09375Q844.75 37.15625 844.75 35.796875Q844.75 34.921875 845.2344 34.15625Q845.7344 33.390625 846.6719 33.0Q847.6094 32.59375 848.9219 32.59375Q851.0781 32.59375 852.1719 33.546875Q853.2656 34.484375 853.3125 36.0625L851.0 36.171875Q850.8594 35.28125 850.3594 34.90625Q849.875 34.515625 848.90625 34.515625Q847.8906 34.515625 847.3281 34.921875Q846.9531 35.1875 846.9531 35.640625Q846.9531 36.046875 847.2969 36.328125Q847.7344 36.703125 849.4219 37.109375Q851.1094 37.5 851.9219 37.921875Q852.7344 38.34375 853.1875 39.09375Q853.6406 39.828125 853.6406 40.90625Q853.6406 41.890625 853.09375 42.75Q852.5469 43.609375 851.5469 44.03125Q850.5469 44.453125 849.0625 44.453125Q846.8906 44.453125 845.71875 43.453125Q844.5625 42.4375 844.3281 40.515625ZM860.7031 41.609375L862.8906 41.96875Q862.46875 43.171875 861.5625 43.8125Q860.65625 44.4375 859.28125 44.4375Q857.125 44.4375 856.0781 43.015625Q855.2656 41.890625 855.2656 40.15625Q855.2656 38.09375 856.34375 36.9375Q857.4219 35.765625 859.0625 35.765625Q860.9219 35.765625 861.9844 36.984375Q863.0625 38.203125 863.0156 40.734375L857.5156 40.734375Q857.53125 41.703125 858.03125 42.25Q858.5469 42.796875 859.3125 42.796875Q859.8281 42.796875 860.1719 42.515625Q860.53125 42.234375 860.7031 41.609375ZM860.8281 39.390625Q860.8125 38.4375 860.34375 37.9375Q859.875 37.4375 859.2031 37.4375Q858.4844 37.4375 858.0156 37.96875Q857.5469 38.484375 857.5469 39.390625L860.8281 39.390625ZM869.7031 41.609375L871.8906 41.96875Q871.46875 43.171875 870.5625 43.8125Q869.65625 44.4375 868.28125 44.4375Q866.125 44.4375 865.0781 43.015625Q864.2656 41.890625 864.2656 40.15625Q864.2656 38.09375 865.34375 36.9375Q866.4219 35.765625 868.0625 35.765625Q869.9219 35.765625 870.9844 36.984375Q872.0625 38.203125 872.0156 40.734375L866.5156 40.734375Q866.53125 41.703125 867.03125 42.25Q867.5469 42.796875 868.3125 42.796875Q868.8281 42.796875 869.1719 42.515625Q869.53125 42.234375 869.7031 41.609375ZM869.8281 39.390625Q869.8125 38.4375 869.34375 37.9375Q868.875 37.4375 868.2031 37.4375Q867.4844 37.4375 867.0156 37.96875Q866.5469 38.484375 866.5469 39.390625L869.8281 39.390625ZM881.5156 44.25L879.46875 44.25L879.46875 43.03125Q878.96875 43.734375 878.2656 44.09375Q877.5781 44.4375 876.875 44.4375Q875.4531 44.4375 874.4219 43.28125Q873.40625 42.125 873.40625 40.0625Q873.40625 37.953125 874.3906 36.859375Q875.3906 35.765625 876.90625 35.765625Q878.2969 35.765625 879.3125 36.921875L879.3125 32.796875L881.5156 32.796875L881.5156 44.25ZM875.65625 39.921875Q875.65625 41.25 876.0156 41.84375Q876.5469 42.703125 877.5 42.703125Q878.2656 42.703125 878.7969 42.0625Q879.3281 41.40625 879.3281 40.125Q879.3281 38.703125 878.8125 38.078125Q878.2969 37.4375 877.4844 37.4375Q876.7031 37.4375 876.1719 38.0625Q875.65625 38.6875 875.65625 39.921875ZM887.3281 40.515625L889.5781 40.296875Q889.78125 41.4375 890.40625 41.96875Q891.03125 42.5 892.0781 42.5Q893.2031 42.5 893.7656 42.03125Q894.3281 41.546875 894.3281 40.921875Q894.3281 40.515625 894.09375 40.234375Q893.8594 39.9375 893.2656 39.734375Q892.8594 39.59375 891.40625 39.234375Q889.5469 38.765625 888.7969 38.09375Q887.75 37.15625 887.75 35.796875Q887.75 34.921875 888.2344 34.15625Q888.7344 33.390625 889.6719 33.0Q890.6094 32.59375 891.9219 32.59375Q894.0781 32.59375 895.1719 33.546875Q896.2656 34.484375 896.3125 36.0625L894.0 36.171875Q893.8594 35.28125 893.3594 34.90625Q892.875 34.515625 891.90625 34.515625Q890.8906 34.515625 890.3281 34.921875Q889.9531 35.1875 889.9531 35.640625Q889.9531 36.046875 890.2969 36.328125Q890.7344 36.703125 892.4219 37.109375Q894.1094 37.5 894.9219 37.921875Q895.7344 38.34375 896.1875 39.09375Q896.6406 39.828125 896.6406 40.90625Q896.6406 41.890625 896.09375 42.75Q895.5469 43.609375 894.5469 44.03125Q893.5469 44.453125 892.0625 44.453125Q889.8906 44.453125 888.71875 43.453125Q887.5625 42.4375 887.3281 40.515625ZM900.5469 38.484375L898.5469 38.125Q898.8906 36.921875 899.7031 36.34375Q900.53125 35.765625 902.1406 35.765625Q903.6094 35.765625 904.3281 36.109375Q905.0469 36.453125 905.34375 37.0Q905.6406 37.53125 905.6406 38.953125L905.6094 41.515625Q905.6094 42.609375 905.71875 43.140625Q905.8281 43.65625 906.1094 44.25L903.9375 44.25Q903.8594 44.03125 903.7344 43.59375Q903.6719 43.40625 903.65625 43.34375Q903.09375 43.890625 902.4531 44.171875Q901.8125 44.4375 901.0781 44.4375Q899.7969 44.4375 899.0625 43.75Q898.3281 43.046875 898.3281 41.984375Q898.3281 41.28125 898.65625 40.734375Q899.0 40.171875 899.59375 39.890625Q900.2031 39.59375 901.34375 39.375Q902.8906 39.078125 903.4844 38.828125L903.4844 38.609375Q903.4844 37.984375 903.1719 37.71875Q902.8594 37.4375 901.9844 37.4375Q901.40625 37.4375 901.0781 37.671875Q900.75 37.90625 900.5469 38.484375ZM903.4844 40.265625Q903.0625 40.40625 902.1406 40.609375Q901.2344 40.796875 900.9531 40.984375Q900.5156 41.28125 900.5156 41.75Q900.5156 42.21875 900.8594 42.5625Q901.2031 42.890625 901.7344 42.890625Q902.3281 42.890625 902.875 42.5Q903.2656 42.203125 903.3906 41.765625Q903.4844 41.484375 903.4844 40.703125L903.4844 40.265625ZM907.90625 44.25L907.90625 32.796875L910.09375 32.796875L910.09375 44.25L907.90625 44.25ZM916.7031 41.609375L918.8906 41.96875Q918.46875 43.171875 917.5625 43.8125Q916.65625 44.4375 915.28125 44.4375Q913.125 44.4375 912.0781 43.015625Q911.2656 41.890625 911.2656 40.15625Q911.2656 38.09375 912.34375 36.9375Q913.4219 35.765625 915.0625 35.765625Q916.9219 35.765625 917.9844 36.984375Q919.0625 38.203125 919.0156 40.734375L913.5156 40.734375Q913.53125 41.703125 914.03125 42.25Q914.5469 42.796875 915.3125 42.796875Q915.8281 42.796875 916.1719 42.515625Q916.53125 42.234375 916.7031 41.609375ZM916.8281 39.390625Q916.8125 38.4375 916.34375 37.9375Q915.875 37.4375 915.2031 37.4375Q914.4844 37.4375 914.0156 37.96875Q913.5469 38.484375 913.5469 39.390625L916.8281 39.390625Z" fill-rule="nonzero"/><path fill="#9e9e9e" d="M888.7344 66.25L888.7344 63.9375L884.0469 63.9375L884.0469 62.015625L889.0156 54.75L890.8594 54.75L890.8594 62.015625L892.28125 62.015625L892.28125 63.9375L890.8594 63.9375L890.8594 66.25L888.7344 66.25ZM888.7344 62.015625L888.7344 58.09375L886.1094 62.015625L888.7344 62.015625ZM893.90625 66.25L893.90625 64.046875L896.09375 64.046875L896.09375 66.25L893.90625 66.25ZM901.1406 54.75Q902.8125 54.75 903.75 55.9375Q904.8594 57.34375 904.8594 60.59375Q904.8594 63.84375 903.7344 65.265625Q902.8125 66.453125 901.1406 66.453125Q899.46875 66.453125 898.4375 65.171875Q897.4219 63.875 897.4219 60.578125Q897.4219 57.34375 898.5469 55.921875Q899.4844 54.75 901.1406 54.75ZM901.1406 56.5625Q900.75 56.5625 900.4375 56.828125Q900.125 57.078125 899.9531 57.734375Q899.71875 58.578125 899.71875 60.59375Q899.71875 62.609375 899.9219 63.375Q900.125 64.125 900.4375 64.375Q900.75 64.625 901.1406 64.625Q901.5469 64.625 901.8594 64.375Q902.1719 64.109375 902.34375 63.453125Q902.5625 62.609375 902.5625 60.59375Q902.5625 58.578125 902.3594 57.828125Q902.15625 57.078125 901.84375 56.828125Q901.5469 56.5625 901.1406 56.5625ZM906.4531 57.625Q906.4531 56.078125 907.125 55.34375Q907.7969 54.59375 908.9531 54.59375Q910.15625 54.59375 910.8281 55.34375Q911.5 56.078125 911.5 57.625Q911.5 59.15625 910.8281 59.90625Q910.15625 60.640625 909.0 60.640625Q907.7969 60.640625 907.125 59.90625Q906.4531 59.171875 906.4531 57.625ZM908.15625 57.609375Q908.15625 58.71875 908.4219 59.109375Q908.6094 59.390625 908.9531 59.390625Q909.3125 59.390625 909.5 59.109375Q909.75 58.71875 909.75 57.609375Q909.75 56.484375 909.5 56.109375Q909.3125 55.828125 908.9531 55.828125Q908.6094 55.828125 908.4219 56.109375Q908.15625 56.484375 908.15625 57.609375ZM910.625 66.6875L909.0 66.6875L915.1094 54.59375L916.6875 54.59375L910.625 66.6875ZM914.1719 63.671875Q914.1719 62.140625 914.84375 61.40625Q915.53125 60.65625 916.7031 60.65625Q917.875 60.65625 918.5469 61.40625Q919.2344 62.140625 919.2344 63.671875Q919.2344 65.21875 918.5469 65.96875Q917.875 66.71875 916.71875 66.71875Q915.53125 66.71875 914.84375 65.96875Q914.1719 65.21875 914.1719 63.671875ZM915.8906 63.671875Q915.8906 64.78125 916.1406 65.15625Q916.34375 65.453125 916.6875 65.453125Q917.03125 65.453125 917.21875 65.171875Q917.4844 64.78125 917.4844 63.671875Q917.4844 62.546875 917.2344 62.171875Q917.03125 61.890625 916.6875 61.890625Q916.3281 61.890625 916.1406 62.171875Q915.8906 62.546875 915.8906 63.671875Z" fill-rule="nonzero"/><path stroke="#757575" stroke-width="1.0" stroke-linecap="butt" d="M919.75 49.75L743.75 49.75L505.84427 44.384514" fill-rule="nonzero"/><path fill="#9e9e9e" d="M507.84427 44.384514C507.84427 43.279945 506.94885 42.384514 505.84427 42.384514C504.73972 42.384514 503.84427 43.279945 503.84427 44.384514C503.84427 45.489082 504.73972 46.384514 505.84427 46.384514C506.94885 46.384514 507.84427 45.489082 507.84427 44.384514" fill-rule="nonzero"/><path fill="#1a1a1a" d="M830.9219 94.30427L830.9219 82.85114L834.625 82.85114Q836.7344 82.85114 837.375 83.02302Q838.3594 83.27302 839.0156 84.14802Q839.6875 85.00739 839.6875 86.36677Q839.6875 87.42927 839.2969 88.14802Q838.9219 88.86677 838.3281 89.27302Q837.75 89.67927 837.1406 89.81989Q836.3125 89.97614 834.7344 89.97614L833.2344 89.97614L833.2344 94.30427L830.9219 94.30427ZM833.2344 84.78864L833.2344 88.03864L834.5 88.03864Q835.8594 88.03864 836.3125 87.86677Q836.78125 87.67927 837.0469 87.30427Q837.3125 86.91364 837.3125 86.39802Q837.3125 85.77302 836.9375 85.36677Q836.5781 84.96052 836.0156 84.86677Q835.59375 84.78864 834.34375 84.78864L833.2344 84.78864ZM844.0 94.30427L841.8125 94.30427L841.8125 86.00739L843.84375 86.00739L843.84375 87.17927Q844.375 86.35114 844.78125 86.08552Q845.2031 85.81989 845.7344 85.81989Q846.4844 85.81989 847.1875 86.22614L846.5 88.14802Q845.9531 87.78864 845.46875 87.78864Q845.0156 87.78864 844.6875 88.03864Q844.375 88.28864 844.1875 88.96052Q844.0 89.61677 844.0 91.74177L844.0 94.30427ZM847.90625 84.88239L847.90625 82.85114L850.09375 82.85114L850.09375 84.88239L847.90625 84.88239ZM847.90625 94.30427L847.90625 86.00739L850.09375 86.00739L850.09375 94.30427L847.90625 94.30427ZM854.1875 94.30427L850.84375 86.00739L853.1406 86.00739L854.7031 90.24177L855.15625 91.64802Q855.34375 91.11677 855.3906 90.94489Q855.5 90.58552 855.625 90.24177L857.2031 86.00739L859.4531 86.00739L856.15625 94.30427L854.1875 94.30427ZM862.5469 88.53864L860.5469 88.17927Q860.8906 86.97614 861.7031 86.39802Q862.53125 85.81989 864.1406 85.81989Q865.6094 85.81989 866.3281 86.16364Q867.0469 86.50739 867.34375 87.05427Q867.6406 87.58552 867.6406 89.00739L867.6094 91.56989Q867.6094 92.66364 867.71875 93.19489Q867.8281 93.71052 868.1094 94.30427L865.9375 94.30427Q865.8594 94.08552 865.7344 93.64802Q865.6719 93.46052 865.65625 93.39802Q865.09375 93.94489 864.4531 94.22614Q863.8125 94.49177 863.0781 94.49177Q861.7969 94.49177 861.0625 93.80427Q860.3281 93.10114 860.3281 92.03864Q860.3281 91.33552 860.65625 90.78864Q861.0 90.22614 861.59375 89.94489Q862.2031 89.64802 863.34375 89.42927Q864.8906 89.13239 865.4844 88.88239L865.4844 88.66364Q865.4844 88.03864 865.1719 87.77302Q864.8594 87.49177 863.9844 87.49177Q863.40625 87.49177 863.0781 87.72614Q862.75 87.96052 862.5469 88.53864ZM865.4844 90.31989Q865.0625 90.46052 864.1406 90.66364Q863.2344 90.85114 862.9531 91.03864Q862.5156 91.33552 862.5156 91.80427Q862.5156 92.27302 862.8594 92.61677Q863.2031 92.94489 863.7344 92.94489Q864.3281 92.94489 864.875 92.55427Q865.2656 92.25739 865.3906 91.81989Q865.4844 91.53864 865.4844 90.75739L865.4844 90.31989ZM873.7031 86.00739L873.7031 87.75739L872.2031 87.75739L872.2031 91.10114Q872.2031 92.11677 872.25 92.28864Q872.2969 92.44489 872.4375 92.55427Q872.59375 92.66364 872.8125 92.66364Q873.125 92.66364 873.7031 92.46052L873.8906 94.16364Q873.125 94.49177 872.15625 94.49177Q871.5625 94.49177 871.0781 94.28864Q870.6094 94.08552 870.375 93.77302Q870.15625 93.46052 870.0781 92.91364Q870.0 92.53864 870.0 91.36677L870.0 87.75739L869.0 87.75739L869.0 86.00739L870.0 86.00739L870.0 84.35114L872.2031 83.06989L872.2031 86.00739L873.7031 86.00739ZM879.7031 91.66364L881.8906 92.02302Q881.46875 93.22614 880.5625 93.86677Q879.65625 94.49177 878.28125 94.49177Q876.125 94.49177 875.0781 93.06989Q874.2656 91.94489 874.2656 90.21052Q874.2656 88.14802 875.34375 86.99177Q876.4219 85.81989 878.0625 85.81989Q879.9219 85.81989 880.9844 87.03864Q882.0625 88.25739 882.0156 90.78864L876.5156 90.78864Q876.53125 91.75739 877.03125 92.30427Q877.5469 92.85114 878.3125 92.85114Q878.8281 92.85114 879.1719 92.56989Q879.53125 92.28864 879.7031 91.66364ZM879.8281 89.44489Q879.8125 88.49177 879.34375 87.99177Q878.875 87.49177 878.2031 87.49177Q877.4844 87.49177 877.0156 88.02302Q876.5469 88.53864 876.5469 89.44489L879.8281 89.44489ZM887.3281 90.56989L889.5781 90.35114Q889.78125 91.49177 890.40625 92.02302Q891.03125 92.55427 892.0781 92.55427Q893.2031 92.55427 893.7656 92.08552Q894.3281 91.60114 894.3281 90.97614Q894.3281 90.56989 894.09375 90.28864Q893.8594 89.99177 893.2656 89.78864Q892.8594 89.64802 891.40625 89.28864Q889.5469 88.81989 888.7969 88.14802Q887.75 87.21052 887.75 85.85114Q887.75 84.97614 888.2344 84.21052Q888.7344 83.44489 889.6719 83.05427Q890.6094 82.64802 891.9219 82.64802Q894.0781 82.64802 895.1719 83.60114Q896.2656 84.53864 896.3125 86.11677L894.0 86.22614Q893.8594 85.33552 893.3594 84.96052Q892.875 84.56989 891.90625 84.56989Q890.8906 84.56989 890.3281 84.97614Q889.9531 85.24177 889.9531 85.69489Q889.9531 86.10114 890.2969 86.38239Q890.7344 86.75739 892.4219 87.16364Q894.1094 87.55427 894.9219 87.97614Q895.7344 88.39802 896.1875 89.14802Q896.6406 89.88239 896.6406 90.96052Q896.6406 91.94489 896.09375 92.80427Q895.5469 93.66364 894.5469 94.08552Q893.5469 94.50739 892.0625 94.50739Q889.8906 94.50739 888.71875 93.50739Q887.5625 92.49177 887.3281 90.56989ZM900.5469 88.53864L898.5469 88.17927Q898.8906 86.97614 899.7031 86.39802Q900.53125 85.81989 902.1406 85.81989Q903.6094 85.81989 904.3281 86.16364Q905.0469 86.50739 905.34375 87.05427Q905.6406 87.58552 905.6406 89.00739L905.6094 91.56989Q905.6094 92.66364 905.71875 93.19489Q905.8281 93.71052 906.1094 94.30427L903.9375 94.30427Q903.8594 94.08552 903.7344 93.64802Q903.6719 93.46052 903.65625 93.39802Q903.09375 93.94489 902.4531 94.22614Q901.8125 94.49177 901.0781 94.49177Q899.7969 94.49177 899.0625 93.80427Q898.3281 93.10114 898.3281 92.03864Q898.3281 91.33552 898.65625 90.78864Q899.0 90.22614 899.59375 89.94489Q900.2031 89.64802 901.34375 89.42927Q902.8906 89.13239 903.4844 88.88239L903.4844 88.66364Q903.4844 88.03864 903.1719 87.77302Q902.8594 87.49177 901.9844 87.49177Q901.40625 87.49177 901.0781 87.72614Q900.75 87.96052 900.5469 88.53864ZM903.4844 90.31989Q903.0625 90.46052 902.1406 90.66364Q901.2344 90.85114 900.9531 91.03864Q900.5156 91.33552 900.5156 91.80427Q900.5156 92.27302 900.8594 92.61677Q901.2031 92.94489 901.7344 92.94489Q902.3281 92.94489 902.875 92.55427Q903.2656 92.25739 903.3906 91.81989Q903.4844 91.53864 903.4844 90.75739L903.4844 90.31989ZM907.90625 94.30427L907.90625 82.85114L910.09375 82.85114L910.09375 94.30427L907.90625 94.30427ZM916.7031 91.66364L918.8906 92.02302Q918.46875 93.22614 917.5625 93.86677Q916.65625 94.49177 915.28125 94.49177Q913.125 94.49177 912.0781 93.06989Q911.2656 91.94489 911.2656 90.21052Q911.2656 88.14802 912.34375 86.99177Q913.4219 85.81989 915.0625 85.81989Q916.9219 85.81989 917.9844 87.03864Q919.0625 88.25739 919.0156 90.78864L913.5156 90.78864Q913.53125 91.75739 914.03125 92.30427Q914.5469 92.85114 915.3125 92.85114Q915.8281 92.85114 916.1719 92.56989Q916.53125 92.28864 916.7031 91.66364ZM916.8281 89.44489Q916.8125 88.49177 916.34375 87.99177Q915.875 87.49177 915.2031 87.49177Q914.4844 87.49177 914.0156 88.02302Q913.5469 88.53864 913.5469 89.44489L916.8281 89.44489Z" fill-rule="nonzero"/><path fill="#9e9e9e" d="M881.0469 116.30427L878.8594 116.30427L878.8594 108.02302Q877.65625 109.14802 876.0156 109.69489L876.0156 107.69489Q876.875 107.41364 877.875 106.63239Q878.8906 105.85114 879.2656 104.80427L881.0469 104.80427L881.0469 116.30427ZM888.7344 116.30427L888.7344 113.99177L884.0469 113.99177L884.0469 112.06989L889.0156 104.80427L890.8594 104.80427L890.8594 112.06989L892.28125 112.06989L892.28125 113.99177L890.8594 113.99177L890.8594 116.30427L888.7344 116.30427ZM888.7344 112.06989L888.7344 108.14802L886.1094 112.06989L888.7344 112.06989ZM893.90625 116.30427L893.90625 114.10114L896.09375 114.10114L896.09375 116.30427L893.90625 116.30427ZM901.1406 104.80427Q902.8125 104.80427 903.75 105.99177Q904.8594 107.39802 904.8594 110.64802Q904.8594 113.89802 903.7344 115.31989Q902.8125 116.50739 901.1406 116.50739Q899.46875 116.50739 898.4375 115.22614Q897.4219 113.92927 897.4219 110.63239Q897.4219 107.39802 898.5469 105.97614Q899.4844 104.80427 901.1406 104.80427ZM901.1406 106.61677Q900.75 106.61677 900.4375 106.88239Q900.125 107.13239 899.9531 107.78864Q899.71875 108.63239 899.71875 110.64802Q899.71875 112.66364 899.9219 113.42927Q900.125 114.17927 900.4375 114.42927Q900.75 114.67927 901.1406 114.67927Q901.5469 114.67927 901.8594 114.42927Q902.1719 114.16364 902.34375 113.50739Q902.5625 112.66364 902.5625 110.64802Q902.5625 108.63239 902.3594 107.88239Q902.15625 107.13239 901.84375 106.88239Q901.5469 106.61677 901.1406 106.61677ZM906.4531 107.67927Q906.4531 106.13239 907.125 105.39802Q907.7969 104.64802 908.9531 104.64802Q910.15625 104.64802 910.8281 105.39802Q911.5 106.13239 911.5 107.67927Q911.5 109.21052 910.8281 109.96052Q910.15625 110.69489 909.0 110.69489Q907.7969 110.69489 907.125 109.96052Q906.4531 109.22614 906.4531 107.67927ZM908.15625 107.66364Q908.15625 108.77302 908.4219 109.16364Q908.6094 109.44489 908.9531 109.44489Q909.3125 109.44489 909.5 109.16364Q909.75 108.77302 909.75 107.66364Q909.75 106.53864 909.5 106.16364Q909.3125 105.88239 908.9531 105.88239Q908.6094 105.88239 908.4219 106.16364Q908.15625 106.53864 908.15625 107.66364ZM910.625 116.74177L909.0 116.74177L915.1094 104.64802L916.6875 104.64802L910.625 116.74177ZM914.1719 113.72614Q914.1719 112.19489 914.84375 111.46052Q915.53125 110.71052 916.7031 110.71052Q917.875 110.71052 918.5469 111.46052Q919.2344 112.19489 919.2344 113.72614Q919.2344 115.27302 918.5469 116.02302Q917.875 116.77302 916.71875 116.77302Q915.53125 116.77302 914.84375 116.02302Q914.1719 115.27302 914.1719 113.72614ZM915.8906 113.72614Q915.8906 114.83552 916.1406 115.21052Q916.34375 115.50739 916.6875 115.50739Q917.03125 115.50739 917.21875 115.22614Q917.4844 114.83552 917.4844 113.72614Q917.4844 112.60114 917.2344 112.22614Q917.03125 111.94489 916.6875 111.94489Q916.3281 111.94489 916.1406 112.22614Q915.8906 112.60114 915.8906 113.72614Z" fill-rule="nonzero"/><path stroke="#757575" stroke-width="1.0" stroke-linecap="butt" d="M919.75 99.80427L743.75 99.80427L633.91174 99.80427" fill-rule="nonzero"/><path fill="#9e9e9e" d="M635.91174 99.80427C635.91174 98.6997 635.01636 97.80427 633.91174 97.80427C632.8072 97.80427 631.91174 98.6997 631.91174 99.80427C631.91174 100.90884 632.8072 101.80427 633.91174 101.80427C635.01636 101.80427 635.91174 100.90884 635.91174 99.80427" fill-rule="nonzero"/><path fill="#1a1a1a" d="M835.9219 217.22781L835.9219 205.77469L839.625 205.77469Q841.7344 205.77469 842.375 205.94656Q843.3594 206.19656 844.0156 207.07156Q844.6875 207.93094 844.6875 209.29031Q844.6875 210.35281 844.2969 211.07156Q843.9219 211.79031 843.3281 212.19656Q842.75 212.60281 842.1406 212.74344Q841.3125 212.89969 839.7344 212.89969L838.2344 212.89969L838.2344 217.22781L835.9219 217.22781ZM838.2344 207.71219L838.2344 210.96219L839.5 210.96219Q840.8594 210.96219 841.3125 210.79031Q841.78125 210.60281 842.0469 210.22781Q842.3125 209.83719 842.3125 209.32156Q842.3125 208.69656 841.9375 208.29031Q841.5781 207.88406 841.0156 207.79031Q840.59375 207.71219 839.34375 207.71219L838.2344 207.71219ZM852.3594 217.22781L852.3594 215.97781Q851.90625 216.64969 851.1719 217.04031Q850.4375 217.41531 849.6094 217.41531Q848.78125 217.41531 848.1094 217.05594Q847.4531 216.68094 847.15625 216.02469Q846.8594 215.35281 846.8594 214.18094L846.8594 208.93094L849.0469 208.93094L849.0469 212.74344Q849.0469 214.49344 849.1719 214.88406Q849.2969 215.27469 849.6094 215.50906Q849.9375 215.74344 850.4219 215.74344Q850.9844 215.74344 851.4219 215.43094Q851.875 215.11844 852.03125 214.66531Q852.2031 214.21219 852.2031 212.43094L852.2031 208.93094L854.40625 208.93094L854.40625 217.22781L852.3594 217.22781ZM856.8125 217.22781L856.8125 205.77469L859.0 205.77469L859.0 209.89969Q860.0156 208.74344 861.40625 208.74344Q862.9219 208.74344 863.90625 209.83719Q864.90625 210.93094 864.90625 212.99344Q864.90625 215.11844 863.8906 216.27469Q862.8906 217.41531 861.4375 217.41531Q860.7344 217.41531 860.03125 217.05594Q859.34375 216.69656 858.84375 216.00906L858.84375 217.22781L856.8125 217.22781ZM858.9844 212.89969Q858.9844 214.18094 859.3906 214.80594Q859.96875 215.68094 860.90625 215.68094Q861.6406 215.68094 862.1406 215.05594Q862.65625 214.43094 862.65625 213.10281Q862.65625 211.68094 862.1406 211.05594Q861.625 210.41531 860.8281 210.41531Q860.03125 210.41531 859.5 211.04031Q858.9844 211.64969 858.9844 212.89969ZM866.90625 217.22781L866.90625 205.77469L869.09375 205.77469L869.09375 217.22781L866.90625 217.22781ZM870.90625 207.80594L870.90625 205.77469L873.09375 205.77469L873.09375 207.80594L870.90625 207.80594ZM870.90625 217.22781L870.90625 208.93094L873.09375 208.93094L873.09375 217.22781L870.90625 217.22781ZM882.1406 211.38406L879.96875 211.77469Q879.8594 211.11844 879.46875 210.79031Q879.09375 210.46219 878.46875 210.46219Q877.65625 210.46219 877.15625 211.04031Q876.6719 211.60281 876.6719 212.93094Q876.6719 214.39969 877.1719 215.00906Q877.6719 215.61844 878.5 215.61844Q879.125 215.61844 879.5156 215.27469Q879.9219 214.91531 880.09375 214.04031L882.25 214.41531Q881.90625 215.89969 880.9531 216.66531Q880.0 217.41531 878.40625 217.41531Q876.5781 217.41531 875.5 216.27469Q874.4219 215.11844 874.4219 213.08719Q874.4219 211.02469 875.5 209.88406Q876.59375 208.74344 878.4375 208.74344Q879.9531 208.74344 880.84375 209.39969Q881.75 210.04031 882.1406 211.38406ZM887.3281 213.49344L889.5781 213.27469Q889.78125 214.41531 890.40625 214.94656Q891.03125 215.47781 892.0781 215.47781Q893.2031 215.47781 893.7656 215.00906Q894.3281 214.52469 894.3281 213.89969Q894.3281 213.49344 894.09375 213.21219Q893.8594 212.91531 893.2656 212.71219Q892.8594 212.57156 891.40625 212.21219Q889.5469 211.74344 888.7969 211.07156Q887.75 210.13406 887.75 208.77469Q887.75 207.89969 888.2344 207.13406Q888.7344 206.36844 889.6719 205.97781Q890.6094 205.57156 891.9219 205.57156Q894.0781 205.57156 895.1719 206.52469Q896.2656 207.46219 896.3125 209.04031L894.0 209.14969Q893.8594 208.25906 893.3594 207.88406Q892.875 207.49344 891.90625 207.49344Q890.8906 207.49344 890.3281 207.89969Q889.9531 208.16531 889.9531 208.61844Q889.9531 209.02469 890.2969 209.30594Q890.7344 209.68094 892.4219 210.08719Q894.1094 210.47781 894.9219 210.89969Q895.7344 211.32156 896.1875 212.07156Q896.6406 212.80594 896.6406 213.88406Q896.6406 214.86844 896.09375 215.72781Q895.5469 216.58719 894.5469 217.00906Q893.5469 217.43094 892.0625 217.43094Q889.8906 217.43094 888.71875 216.43094Q887.5625 215.41531 887.3281 213.49344ZM900.5469 211.46219L898.5469 211.10281Q898.8906 209.89969 899.7031 209.32156Q900.53125 208.74344 902.1406 208.74344Q903.6094 208.74344 904.3281 209.08719Q905.0469 209.43094 905.34375 209.97781Q905.6406 210.50906 905.6406 211.93094L905.6094 214.49344Q905.6094 215.58719 905.71875 216.11844Q905.8281 216.63406 906.1094 217.22781L903.9375 217.22781Q903.8594 217.00906 903.7344 216.57156Q903.6719 216.38406 903.65625 216.32156Q903.09375 216.86844 902.4531 217.14969Q901.8125 217.41531 901.0781 217.41531Q899.7969 217.41531 899.0625 216.72781Q898.3281 216.02469 898.3281 214.96219Q898.3281 214.25906 898.65625 213.71219Q899.0 213.14969 899.59375 212.86844Q900.2031 212.57156 901.34375 212.35281Q902.8906 212.05594 903.4844 211.80594L903.4844 211.58719Q903.4844 210.96219 903.1719 210.69656Q902.8594 210.41531 901.9844 210.41531Q901.40625 210.41531 901.0781 210.64969Q900.75 210.88406 900.5469 211.46219ZM903.4844 213.24344Q903.0625 213.38406 902.1406 213.58719Q901.2344 213.77469 900.9531 213.96219Q900.5156 214.25906 900.5156 214.72781Q900.5156 215.19656 900.8594 215.54031Q901.2031 215.86844 901.7344 215.86844Q902.3281 215.86844 902.875 215.47781Q903.2656 215.18094 903.3906 214.74344Q903.4844 214.46219 903.4844 213.68094L903.4844 213.24344ZM907.90625 217.22781L907.90625 205.77469L910.09375 205.77469L910.09375 217.22781L907.90625 217.22781ZM916.7031 214.58719L918.8906 214.94656Q918.46875 216.14969 917.5625 216.79031Q916.65625 217.41531 915.28125 217.41531Q913.125 217.41531 912.0781 215.99344Q911.2656 214.86844 911.2656 213.13406Q911.2656 211.07156 912.34375 209.91531Q913.4219 208.74344 915.0625 208.74344Q916.9219 208.74344 917.9844 209.96219Q919.0625 211.18094 919.0156 213.71219L913.5156 213.71219Q913.53125 214.68094 914.03125 215.22781Q914.5469 215.77469 915.3125 215.77469Q915.8281 215.77469 916.1719 215.49344Q916.53125 215.21219 916.7031 214.58719ZM916.8281 212.36844Q916.8125 211.41531 916.34375 210.91531Q915.875 210.41531 915.2031 210.41531Q914.4844 210.41531 914.0156 210.94656Q913.5469 211.46219 913.5469 212.36844L916.8281 212.36844Z" fill-rule="nonzero"/><path fill="#9e9e9e" d="M884.46875 236.27469L886.65625 236.05594Q886.75 236.79031 887.2031 237.22781Q887.6719 237.66531 888.2656 237.66531Q888.9531 237.66531 889.4219 237.10281Q889.90625 236.54031 889.90625 235.41531Q889.90625 234.36844 889.4375 233.83719Q888.96875 233.30594 888.2031 233.30594Q887.2656 233.30594 886.5156 234.14969L884.7344 233.88406L885.8594 227.93094L891.65625 227.93094L891.65625 229.97781L887.5156 229.97781L887.1719 231.93094Q887.90625 231.55594 888.6719 231.55594Q890.1406 231.55594 891.15625 232.61844Q892.1719 233.68094 892.1719 235.38406Q892.1719 236.79031 891.34375 237.89969Q890.2344 239.43094 888.25 239.43094Q886.65625 239.43094 885.65625 238.57156Q884.65625 237.71219 884.46875 236.27469ZM893.90625 239.22781L893.90625 237.02469L896.09375 237.02469L896.09375 239.22781L893.90625 239.22781ZM901.1406 227.72781Q902.8125 227.72781 903.75 228.91531Q904.8594 230.32156 904.8594 233.57156Q904.8594 236.82156 903.7344 238.24344Q902.8125 239.43094 901.1406 239.43094Q899.46875 239.43094 898.4375 238.14969Q897.4219 236.85281 897.4219 233.55594Q897.4219 230.32156 898.5469 228.89969Q899.4844 227.72781 901.1406 227.72781ZM901.1406 229.54031Q900.75 229.54031 900.4375 229.80594Q900.125 230.05594 899.9531 230.71219Q899.71875 231.55594 899.71875 233.57156Q899.71875 235.58719 899.9219 236.35281Q900.125 237.10281 900.4375 237.35281Q900.75 237.60281 901.1406 237.60281Q901.5469 237.60281 901.8594 237.35281Q902.1719 237.08719 902.34375 236.43094Q902.5625 235.58719 902.5625 233.57156Q902.5625 231.55594 902.3594 230.80594Q902.15625 230.05594 901.84375 229.80594Q901.5469 229.54031 901.1406 229.54031ZM906.4531 230.60281Q906.4531 229.05594 907.125 228.32156Q907.7969 227.57156 908.9531 227.57156Q910.15625 227.57156 910.8281 228.32156Q911.5 229.05594 911.5 230.60281Q911.5 232.13406 910.8281 232.88406Q910.15625 233.61844 909.0 233.61844Q907.7969 233.61844 907.125 232.88406Q906.4531 232.14969 906.4531 230.60281ZM908.15625 230.58719Q908.15625 231.69656 908.4219 232.08719Q908.6094 232.36844 908.9531 232.36844Q909.3125 232.36844 909.5 232.08719Q909.75 231.69656 909.75 230.58719Q909.75 229.46219 909.5 229.08719Q909.3125 228.80594 908.9531 228.80594Q908.6094 228.80594 908.4219 229.08719Q908.15625 229.46219 908.15625 230.58719ZM910.625 239.66531L909.0 239.66531L915.1094 227.57156L916.6875 227.57156L910.625 239.66531ZM914.1719 236.64969Q914.1719 235.11844 914.84375 234.38406Q915.53125 233.63406 916.7031 233.63406Q917.875 233.63406 918.5469 234.38406Q919.2344 235.11844 919.2344 236.64969Q919.2344 238.19656 918.5469 238.94656Q917.875 239.69656 916.71875 239.69656Q915.53125 239.69656 914.84375 238.94656Q914.1719 238.19656 914.1719 236.64969ZM915.8906 236.64969Q915.8906 237.75906 916.1406 238.13406Q916.34375 238.43094 916.6875 238.43094Q917.03125 238.43094 917.21875 238.14969Q917.4844 237.75906 917.4844 236.64969Q917.4844 235.52469 917.2344 235.14969Q917.03125 234.86844 916.6875 234.86844Q916.3281 234.86844 916.1406 235.14969Q915.8906 235.52469 915.8906 236.64969Z" fill-rule="nonzero"/><path stroke="#757575" stroke-width="1.0" stroke-linecap="butt" d="M919.75 222.72781L743.75 222.72781L714.6575 222.72781" fill-rule="nonzero"/><path fill="#9e9e9e" d="M716.6575 222.72781C716.6575 221.62325 715.762 220.72781 714.6575 220.72781C713.55286 220.72781 712.6575 221.62325 712.6575 222.72781C712.6575 223.83238 713.55286 224.72781 714.6575 224.72781C715.762 224.72781 716.6575 223.83238 716.6575 222.72781" fill-rule="nonzero"/><path fill="#1a1a1a" d="M881.5 393.4821L881.5 383.96646L878.09375 383.96646L878.09375 382.02896L887.2031 382.02896L887.2031 383.96646L883.8125 383.96646L883.8125 393.4821L881.5 393.4821ZM893.7031 390.84146L895.8906 391.20084Q895.46875 392.40396 894.5625 393.0446Q893.65625 393.6696 892.28125 393.6696Q890.125 393.6696 889.0781 392.2477Q888.2656 391.1227 888.2656 389.38834Q888.2656 387.32584 889.34375 386.1696Q890.4219 384.9977 892.0625 384.9977Q893.9219 384.9977 894.9844 386.21646Q896.0625 387.4352 896.0156 389.96646L890.5156 389.96646Q890.53125 390.9352 891.03125 391.4821Q891.5469 392.02896 892.3125 392.02896Q892.8281 392.02896 893.1719 391.7477Q893.53125 391.46646 893.7031 390.84146ZM893.8281 388.6227Q893.8125 387.6696 893.34375 387.1696Q892.875 386.6696 892.2031 386.6696Q891.4844 386.6696 891.0156 387.20084Q890.5469 387.71646 890.5469 388.6227L893.8281 388.6227ZM899.5469 387.71646L897.5469 387.3571Q897.8906 386.15396 898.7031 385.57584Q899.53125 384.9977 901.1406 384.9977Q902.6094 384.9977 903.3281 385.34146Q904.0469 385.6852 904.34375 386.2321Q904.6406 386.76334 904.6406 388.1852L904.6094 390.7477Q904.6094 391.84146 904.71875 392.3727Q904.8281 392.88834 905.1094 393.4821L902.9375 393.4821Q902.8594 393.26334 902.7344 392.82584Q902.6719 392.63834 902.65625 392.57584Q902.09375 393.1227 901.4531 393.40396Q900.8125 393.6696 900.0781 393.6696Q898.7969 393.6696 898.0625 392.9821Q897.3281 392.27896 897.3281 391.21646Q897.3281 390.51334 897.65625 389.96646Q898.0 389.40396 898.59375 389.1227Q899.2031 388.82584 900.34375 388.6071Q901.8906 388.3102 902.4844 388.0602L902.4844 387.84146Q902.4844 387.21646 902.1719 386.95084Q901.8594 386.6696 900.9844 386.6696Q900.40625 386.6696 900.0781 386.90396Q899.75 387.13834 899.5469 387.71646ZM902.4844 389.4977Q902.0625 389.63834 901.1406 389.84146Q900.2344 390.02896 899.9531 390.21646Q899.5156 390.51334 899.5156 390.9821Q899.5156 391.45084 899.8594 391.7946Q900.2031 392.1227 900.7344 392.1227Q901.3281 392.1227 901.875 391.7321Q902.2656 391.4352 902.3906 390.9977Q902.4844 390.71646 902.4844 389.9352L902.4844 389.4977ZM906.7344 385.1852L908.7656 385.1852L908.7656 386.3102Q909.84375 384.9977 911.34375 384.9977Q912.1406 384.9977 912.71875 385.32584Q913.3125 385.65396 913.6875 386.3102Q914.2344 385.65396 914.8594 385.32584Q915.5 384.9977 916.21875 384.9977Q917.1406 384.9977 917.7656 385.3727Q918.40625 385.7321 918.71875 386.45084Q918.9375 386.9821 918.9375 388.1696L918.9375 393.4821L916.75 393.4821L916.75 388.7321Q916.75 387.4977 916.5156 387.13834Q916.21875 386.6696 915.5781 386.6696Q915.125 386.6696 914.71875 386.95084Q914.3125 387.2321 914.125 387.77896Q913.9531 388.32584 913.9531 389.4977L913.9531 393.4821L911.75 393.4821L911.75 388.9352Q911.75 387.71646 911.625 387.3727Q911.5156 387.01334 911.2656 386.84146Q911.03125 386.6696 910.6094 386.6696Q910.09375 386.6696 909.6875 386.95084Q909.28125 387.21646 909.1094 387.7321Q908.9375 388.2477 908.9375 389.45084L908.9375 393.4821L906.7344 393.4821L906.7344 385.1852Z" fill-rule="nonzero"/><path fill="#9e9e9e" d="M881.0469 415.4821L878.8594 415.4821L878.8594 407.20084Q877.65625 408.32584 876.0156 408.8727L876.0156 406.8727Q876.875 406.59146 877.875 405.8102Q878.8906 405.02896 879.2656 403.9821L881.0469 403.9821L881.0469 415.4821ZM886.3125 409.2946Q885.46875 408.9352 885.0781 408.3102Q884.6875 407.6852 884.6875 406.9352Q884.6875 405.65396 885.5781 404.82584Q886.4844 403.9821 888.125 403.9821Q889.7656 403.9821 890.65625 404.82584Q891.5625 405.65396 891.5625 406.9352Q891.5625 407.7321 891.1406 408.3571Q890.7344 408.96646 889.9844 409.2946Q890.9375 409.6852 891.4375 410.4196Q891.9375 411.15396 891.9375 412.1071Q891.9375 413.70084 890.9219 414.70084Q889.90625 415.6852 888.2344 415.6852Q886.6719 415.6852 885.625 414.8571Q884.40625 413.88834 884.40625 412.20084Q884.40625 411.27896 884.8594 410.4977Q885.3281 409.71646 886.3125 409.2946ZM886.7656 407.09146Q886.7656 407.7477 887.1406 408.1227Q887.5156 408.4821 888.125 408.4821Q888.75 408.4821 889.125 408.1071Q889.5 407.7321 889.5 407.07584Q889.5 406.46646 889.125 406.09146Q888.7656 405.71646 888.15625 405.71646Q887.5156 405.71646 887.1406 406.09146Q886.7656 406.46646 886.7656 407.09146ZM886.5625 411.9977Q886.5625 412.90396 887.03125 413.4196Q887.5 413.9196 888.1875 413.9196Q888.875 413.9196 889.3125 413.4352Q889.7656 412.9352 889.7656 412.01334Q889.7656 411.21646 889.3125 410.7321Q888.8594 410.2321 888.15625 410.2321Q887.3594 410.2321 886.9531 410.7946Q886.5625 411.34146 886.5625 411.9977ZM893.90625 415.4821L893.90625 413.27896L896.09375 413.27896L896.09375 415.4821L893.90625 415.4821ZM901.1406 403.9821Q902.8125 403.9821 903.75 405.1696Q904.8594 406.57584 904.8594 409.82584Q904.8594 413.07584 903.7344 414.4977Q902.8125 415.6852 901.1406 415.6852Q899.46875 415.6852 898.4375 414.40396Q897.4219 413.1071 897.4219 409.8102Q897.4219 406.57584 898.5469 405.15396Q899.4844 403.9821 901.1406 403.9821ZM901.1406 405.7946Q900.75 405.7946 900.4375 406.0602Q900.125 406.3102 899.9531 406.96646Q899.71875 407.8102 899.71875 409.82584Q899.71875 411.84146 899.9219 412.6071Q900.125 413.3571 900.4375 413.6071Q900.75 413.8571 901.1406 413.8571Q901.5469 413.8571 901.8594 413.6071Q902.1719 413.34146 902.34375 412.6852Q902.5625 411.84146 902.5625 409.82584Q902.5625 407.8102 902.3594 407.0602Q902.15625 406.3102 901.84375 406.0602Q901.5469 405.7946 901.1406 405.7946ZM906.4531 406.8571Q906.4531 405.3102 907.125 404.57584Q907.7969 403.82584 908.9531 403.82584Q910.15625 403.82584 910.8281 404.57584Q911.5 405.3102 911.5 406.8571Q911.5 408.38834 910.8281 409.13834Q910.15625 409.8727 909.0 409.8727Q907.7969 409.8727 907.125 409.13834Q906.4531 408.40396 906.4531 406.8571ZM908.15625 406.84146Q908.15625 407.95084 908.4219 408.34146Q908.6094 408.6227 908.9531 408.6227Q909.3125 408.6227 909.5 408.34146Q909.75 407.95084 909.75 406.84146Q909.75 405.71646 909.5 405.34146Q909.3125 405.0602 908.9531 405.0602Q908.6094 405.0602 908.4219 405.34146Q908.15625 405.71646 908.15625 406.84146ZM910.625 415.9196L909.0 415.9196L915.1094 403.82584L916.6875 403.82584L910.625 415.9196ZM914.1719 412.90396Q914.1719 411.3727 914.84375 410.63834Q915.53125 409.88834 916.7031 409.88834Q917.875 409.88834 918.5469 410.63834Q919.2344 411.3727 919.2344 412.90396Q919.2344 414.45084 918.5469 415.20084Q917.875 415.95084 916.71875 415.95084Q915.53125 415.95084 914.84375 415.20084Q914.1719 414.45084 914.1719 412.90396ZM915.8906 412.90396Q915.8906 414.01334 916.1406 414.38834Q916.34375 414.6852 916.6875 414.6852Q917.03125 414.6852 917.21875 414.40396Q917.4844 414.01334 917.4844 412.90396Q917.4844 411.77896 917.2344 411.40396Q917.03125 411.1227 916.6875 411.1227Q916.3281 411.1227 916.1406 411.40396Q915.8906 411.77896 915.8906 412.90396Z" fill-rule="nonzero"/><path stroke="#757575" stroke-width="1.0" stroke-linecap="butt" d="M919.75 398.9821L743.75 398.9821L700.78595 398.9821" fill-rule="nonzero"/><path fill="#9e9e9e" d="M702.78595 398.9821C702.78595 397.8775 701.8905 396.9821 700.78595 396.9821C699.6814 396.9821 698.78595 397.8775 698.78595 398.9821C698.78595 400.08664 699.6814 400.9821 700.78595 400.9821C701.8905 400.9821 702.78595 400.08664 702.78595 398.9821" fill-rule="nonzero"/><path fill="#1a1a1a" d="M862.25 516.519L859.7344 516.519L858.7344 513.9096L854.15625 513.9096L853.2031 516.519L850.75 516.519L855.21875 505.06586L857.65625 505.06586L862.25 516.519ZM857.9844 511.98773L856.40625 507.73773L854.8594 511.98773L857.9844 511.98773ZM871.5156 516.519L869.46875 516.519L869.46875 515.30023Q868.96875 516.00336 868.2656 516.36273Q867.5781 516.7065 866.875 516.7065Q865.4531 516.7065 864.4219 515.55023Q863.40625 514.394 863.40625 512.3315Q863.40625 510.2221 864.3906 509.12836Q865.3906 508.0346 866.90625 508.0346Q868.2969 508.0346 869.3125 509.19086L869.3125 505.06586L871.5156 505.06586L871.5156 516.519ZM865.65625 512.19086Q865.65625 513.519 866.0156 514.11273Q866.5469 514.9721 867.5 514.9721Q868.2656 514.9721 868.7969 514.3315Q869.3281 513.67523 869.3281 512.394Q869.3281 510.9721 868.8125 510.3471Q868.2969 509.70648 867.4844 509.70648Q866.7031 509.70648 866.1719 510.33148Q865.65625 510.95648 865.65625 512.19086ZM876.1875 516.519L872.84375 508.2221L875.1406 508.2221L876.7031 512.4565L877.15625 513.86273Q877.34375 513.3315 877.3906 513.1596Q877.5 512.80023 877.625 512.4565L879.2031 508.2221L881.4531 508.2221L878.15625 516.519L876.1875 516.519ZM882.90625 507.0971L882.90625 505.06586L885.09375 505.06586L885.09375 507.0971L882.90625 507.0971ZM882.90625 516.519L882.90625 508.2221L885.09375 508.2221L885.09375 516.519L882.90625 516.519ZM886.125 514.144L888.3281 513.81586Q888.46875 514.4565 888.8906 514.7846Q889.3281 515.11273 890.1094 515.11273Q890.9531 515.11273 891.3906 514.80023Q891.6719 514.5815 891.6719 514.2221Q891.6719 513.9721 891.5156 513.80023Q891.3594 513.644 890.78125 513.519Q888.125 512.92523 887.4219 512.44086Q886.4375 511.76898 886.4375 510.58148Q886.4375 509.50336 887.28125 508.76898Q888.1406 508.0346 889.9219 508.0346Q891.625 508.0346 892.4531 508.5971Q893.28125 509.14398 893.59375 510.2221L891.53125 510.61273Q891.3906 510.12836 891.0156 509.87836Q890.65625 509.61273 889.96875 509.61273Q889.09375 509.61273 888.71875 509.8471Q888.46875 510.01898 888.46875 510.30023Q888.46875 510.5346 888.6875 510.69086Q888.9844 510.9096 890.7344 511.31586Q892.5 511.70648 893.1875 512.2846Q893.875 512.87836 893.875 513.92523Q893.875 515.06586 892.9219 515.894Q891.96875 516.7065 890.1094 516.7065Q888.40625 516.7065 887.4219 516.019Q886.4375 515.3315 886.125 514.144ZM895.3906 512.25336Q895.3906 511.1596 895.9219 510.14398Q896.46875 509.11273 897.4531 508.58148Q898.4531 508.0346 899.6719 508.0346Q901.5469 508.0346 902.75 509.25336Q903.9531 510.4721 903.9531 512.3471Q903.9531 514.2221 902.7344 515.4721Q901.53125 516.7065 899.6875 516.7065Q898.5469 516.7065 897.5 516.19086Q896.46875 515.67523 895.9219 514.67523Q895.3906 513.67523 895.3906 512.25336ZM897.6406 512.36273Q897.6406 513.5971 898.21875 514.25336Q898.8125 514.9096 899.6719 514.9096Q900.53125 514.9096 901.1094 514.25336Q901.7031 513.5971 901.7031 512.3471Q901.7031 511.12836 901.1094 510.4721Q900.53125 509.81586 899.6719 509.81586Q898.8125 509.81586 898.21875 510.4721Q897.6406 511.12836 897.6406 512.36273ZM908.0 516.519L905.8125 516.519L905.8125 508.2221L907.84375 508.2221L907.84375 509.39398Q908.375 508.56586 908.78125 508.30023Q909.2031 508.0346 909.7344 508.0346Q910.4844 508.0346 911.1875 508.44086L910.5 510.36273Q909.9531 510.00336 909.46875 510.00336Q909.0156 510.00336 908.6875 510.25336Q908.375 510.50336 908.1875 511.17523Q908.0 511.83148 908.0 513.9565L908.0 516.519ZM911.125 514.144L913.3281 513.81586Q913.46875 514.4565 913.8906 514.7846Q914.3281 515.11273 915.1094 515.11273Q915.9531 515.11273 916.3906 514.80023Q916.6719 514.5815 916.6719 514.2221Q916.6719 513.9721 916.5156 513.80023Q916.3594 513.644 915.78125 513.519Q913.125 512.92523 912.4219 512.44086Q911.4375 511.76898 911.4375 510.58148Q911.4375 509.50336 912.28125 508.76898Q913.1406 508.0346 914.9219 508.0346Q916.625 508.0346 917.4531 508.5971Q918.28125 509.14398 918.59375 510.2221L916.53125 510.61273Q916.3906 510.12836 916.0156 509.87836Q915.65625 509.61273 914.96875 509.61273Q914.09375 509.61273 913.71875 509.8471Q913.46875 510.01898 913.46875 510.30023Q913.46875 510.5346 913.6875 510.69086Q913.9844 510.9096 915.7344 511.31586Q917.5 511.70648 918.1875 512.2846Q918.875 512.87836 918.875 513.92523Q918.875 515.06586 917.9219 515.894Q916.96875 516.7065 915.1094 516.7065Q913.40625 516.7065 912.4219 516.019Q911.4375 515.3315 911.125 514.144Z" fill-rule="nonzero"/><path fill="#9e9e9e" d="M884.46875 535.56586L886.65625 535.3471Q886.75 536.0815 887.2031 536.519Q887.6719 536.9565 888.2656 536.9565Q888.9531 536.9565 889.4219 536.394Q889.90625 535.8315 889.90625 534.7065Q889.90625 533.6596 889.4375 533.12836Q888.96875 532.5971 888.2031 532.5971Q887.2656 532.5971 886.5156 533.44086L884.7344 533.17523L885.8594 527.2221L891.65625 527.2221L891.65625 529.269L887.5156 529.269L887.1719 531.2221Q887.90625 530.8471 888.6719 530.8471Q890.1406 530.8471 891.15625 531.9096Q892.1719 532.9721 892.1719 534.67523Q892.1719 536.0815 891.34375 537.19086Q890.2344 538.7221 888.25 538.7221Q886.65625 538.7221 885.65625 537.86273Q884.65625 537.00336 884.46875 535.56586ZM893.90625 538.519L893.90625 536.31586L896.09375 536.31586L896.09375 538.519L893.90625 538.519ZM901.1406 527.019Q902.8125 527.019 903.75 528.2065Q904.8594 529.61273 904.8594 532.86273Q904.8594 536.11273 903.7344 537.5346Q902.8125 538.7221 901.1406 538.7221Q899.46875 538.7221 898.4375 537.44086Q897.4219 536.144 897.4219 532.8471Q897.4219 529.61273 898.5469 528.19086Q899.4844 527.019 901.1406 527.019ZM901.1406 528.8315Q900.75 528.8315 900.4375 529.0971Q900.125 529.3471 899.9531 530.00336Q899.71875 530.8471 899.71875 532.86273Q899.71875 534.87836 899.9219 535.644Q900.125 536.394 900.4375 536.644Q900.75 536.894 901.1406 536.894Q901.5469 536.894 901.8594 536.644Q902.1719 536.37836 902.34375 535.7221Q902.5625 534.87836 902.5625 532.86273Q902.5625 530.8471 902.3594 530.0971Q902.15625 529.3471 901.84375 529.0971Q901.5469 528.8315 901.1406 528.8315ZM906.4531 529.894Q906.4531 528.3471 907.125 527.61273Q907.7969 526.86273 908.9531 526.86273Q910.15625 526.86273 910.8281 527.61273Q911.5 528.3471 911.5 529.894Q911.5 531.42523 910.8281 532.17523Q910.15625 532.9096 909.0 532.9096Q907.7969 532.9096 907.125 532.17523Q906.4531 531.44086 906.4531 529.894ZM908.15625 529.87836Q908.15625 530.98773 908.4219 531.37836Q908.6094 531.6596 908.9531 531.6596Q909.3125 531.6596 909.5 531.37836Q909.75 530.98773 909.75 529.87836Q909.75 528.75336 909.5 528.37836Q909.3125 528.0971 908.9531 528.0971Q908.6094 528.0971 908.4219 528.37836Q908.15625 528.75336 908.15625 529.87836ZM910.625 538.9565L909.0 538.9565L915.1094 526.86273L916.6875 526.86273L910.625 538.9565ZM914.1719 535.94086Q914.1719 534.4096 914.84375 533.67523Q915.53125 532.92523 916.7031 532.92523Q917.875 532.92523 918.5469 533.67523Q919.2344 534.4096 919.2344 535.94086Q919.2344 537.48773 918.5469 538.23773Q917.875 538.98773 916.71875 538.98773Q915.53125 538.98773 914.84375 538.23773Q914.1719 537.48773 914.1719 535.94086ZM915.8906 535.94086Q915.8906 537.05023 916.1406 537.42523Q916.34375 537.7221 916.6875 537.7221Q917.03125 537.7221 917.21875 537.44086Q917.4844 537.05023 917.4844 535.94086Q917.4844 534.81586 917.2344 534.44086Q917.03125 534.1596 916.6875 534.1596Q916.3281 534.1596 916.1406 534.44086Q915.8906 534.81586 915.8906 535.94086Z" fill-rule="nonzero"/><path stroke="#757575" stroke-width="1.0" stroke-linecap="butt" d="M919.75 522.019L743.75 522.019L573.8217 522.019" fill-rule="nonzero"/><path fill="#9e9e9e" d="M575.8217 522.019C575.8217 520.91437 574.9263 520.019 573.8217 520.019C572.71716 520.019 571.8217 520.91437 571.8217 522.019C571.8217 523.12354 572.71716 524.019 573.8217 524.019C574.9263 524.019 575.8217 523.12354 575.8217 522.019" fill-rule="nonzero"/></svg>