<svg version="1.1" viewBox="0.0 0.0 949.0 585.0" fill="none" stroke="none" stroke-linecap="square" stroke-miterlimit="10" width="949" height="585" xmlns:xlink="http://www.w3.org/1999/xlink" xmlns="http://www.w3.org/2000/svg"><path fill="#ffffff" d="M0 0L949.0 0L949.0 585.0L0 585.0L0 0Z" fill-rule="nonzero"/><path fill="#4285f4" d="M474.5 29.25C499.35214 29.25 524.07904 32.769165 547.9444 39.702686L522.9733 125.65377C507.22217 121.077644 490.9024 118.75499 474.5 118.75499Z" fill-rule="nonzero"/><path fill="#ea4335" d="M547.9444 39.702686C643.00604 67.32064 714.53784 145.93306 733.0871 243.17188L645.1675 259.94342C632.925 195.76581 585.714 143.88162 522.9733 125.65377Z" fill-rule="nonzero"/><path fill="#fbbc04" d="M733.0871 243.17188C734.1203 248.58815 734.9831 254.03555 735.6742 259.506L646.875 270.72397C646.4189 267.11346 645.8494 263.5182 645.1675 259.94342Z" fill-rule="nonzero"/><path fill="#34a853" d="M735.6742 259.506C750.736 378.73257 683.1439 493.0246 571.4088 537.2637L538.4598 454.04404C612.20496 424.84625 656.8158 349.4135 646.875 270.72397Z" fill-rule="nonzero"/><path fill="#ff6d01" d="M571.4088 537.2637C545.72437 547.43286 518.59937 553.496 491.0296 555.2305L485.40955 465.90216C503.6056 464.75735 521.50806 460.75568 538.4598 454.04404Z" fill-rule="nonzero"/><path fill="#f07b72" d="M229.73634 195.59122C269.48706 95.19237 366.5183 29.25 474.5 29.25L474.5 118.75499C403.2321 118.75499 339.19144 162.27696 312.95596 228.54019Z" fill-rule="nonzero"/><path fill="#7baaf7" d="M306.69812 495.33762C218.82355 422.64145 187.75291 301.62924 229.73634 195.59122L312.95596 228.54019C285.24692 298.5253 305.75354 378.39334 363.75076 426.37283Z" fill-rule="nonzero"/><path fill="#46bdc6" d="M491.0296 555.2305C424.2049 559.4348 358.28925 538.0175 306.69812 495.33762L363.75076 426.37283C397.8009 454.54156 441.30524 468.67697 485.40955 465.90216Z" fill-rule="nonzero"/><path fill="#1a1a1a" d="M30.4375 80.157486L30.4375 68.70436L38.28125 68.70436L38.28125 70.64186L32.75 70.64186L32.75 73.344986L37.53125 73.344986L37.53125 75.282486L32.75 75.282486L32.75 80.157486L30.4375 80.157486ZM39.890625 75.89186Q39.890625 74.79811 40.421875 73.782486Q40.96875 72.751236 41.953125 72.219986Q42.953125 71.67311 44.171875 71.67311Q46.046875 71.67311 47.25 72.89186Q48.453125 74.11061 48.453125 75.98561Q48.453125 77.86061 47.234375 79.11061Q46.03125 80.344986 44.1875 80.344986Q43.046875 80.344986 42.0 79.82936Q40.96875 79.313736 40.421875 78.313736Q39.890625 77.313736 39.890625 75.89186ZM42.140625 76.001236Q42.140625 77.23561 42.71875 77.89186Q43.3125 78.54811 44.171875 78.54811Q45.03125 78.54811 45.609375 77.89186Q46.203125 77.23561 46.203125 75.98561Q46.203125 74.76686 45.609375 74.11061Q45.03125 73.45436 44.171875 73.45436Q43.3125 73.45436 42.71875 74.11061Q42.140625 74.76686 42.140625 76.001236ZM55.859375 80.157486L55.859375 78.907486Q55.40625 79.57936 54.671875 79.969986Q53.9375 80.344986 53.109375 80.344986Q52.28125 80.344986 51.609375 79.98561Q50.953125 79.61061 50.65625 78.95436Q50.359375 78.282486 50.359375 77.11061L50.359375 71.86061L52.546875 71.86061L52.546875 75.67311Q52.546875 77.42311 52.671875 77.813736Q52.796875 78.20436 53.109375 78.438736Q53.4375 78.67311 53.921875 78.67311Q54.484375 78.67311 54.921875 78.36061Q55.375 78.04811 55.53125 77.594986Q55.703125 77.14186 55.703125 75.36061L55.703125 71.86061L57.90625 71.86061L57.90625 80.157486L55.859375 80.157486ZM67.953125 80.157486L65.75 80.157486L65.75 75.92311Q65.75 74.57936 65.609375 74.188736Q65.46875 73.782486 65.15625 73.563736Q64.84375 73.344986 64.390625 73.344986Q63.828125 73.344986 63.375 73.657486Q62.921875 73.969986 62.75 74.48561Q62.578125 75.001236 62.578125 76.39186L62.578125 80.157486L60.390625 80.157486L60.390625 71.86061L62.421875 71.86061L62.421875 73.07936Q63.515625 71.67311 65.15625 71.67311Q65.890625 71.67311 66.484375 71.938736Q67.09375 72.188736 67.390625 72.594986Q67.703125 73.001236 67.828125 73.51686Q67.953125 74.032486 67.953125 75.001236L67.953125 80.157486ZM78.015625 80.157486L75.96875 80.157486L75.96875 78.938736Q75.46875 79.64186 74.765625 80.001236Q74.078125 80.344986 73.375 80.344986Q71.953125 80.344986 70.921875 79.188736Q69.90625 78.032486 69.90625 75.969986Q69.90625 73.86061 70.890625 72.76686Q71.890625 71.67311 73.40625 71.67311Q74.796875 71.67311 75.8125 72.82936L75.8125 68.70436L78.015625 68.70436L78.015625 80.157486ZM72.15625 75.82936Q72.15625 77.157486 72.515625 77.751236Q73.046875 78.61061 74.0 78.61061Q74.765625 78.61061 75.296875 77.969986Q75.828125 77.313736 75.828125 76.032486Q75.828125 74.61061 75.3125 73.98561Q74.796875 73.344986 73.984375 73.344986Q73.203125 73.344986 72.671875 73.969986Q72.15625 74.594986 72.15625 75.82936ZM82.046875 74.39186L80.046875 74.032486Q80.390625 72.82936 81.203125 72.251236Q82.03125 71.67311 83.640625 71.67311Q85.109375 71.67311 85.828125 72.01686Q86.546875 72.36061 86.84375 72.907486Q87.140625 73.438736 87.140625 74.86061L87.109375 77.42311Q87.109375 78.51686 87.21875 79.04811Q87.328125 79.563736 87.609375 80.157486L85.4375 80.157486Q85.359375 79.938736 85.234375 79.501236Q85.171875 79.313736 85.15625 79.251236Q84.59375 79.79811 83.953125 80.07936Q83.3125 80.344986 82.578125 80.344986Q81.296875 80.344986 80.5625 79.657486Q79.828125 78.95436 79.828125 77.89186Q79.828125 77.188736 80.15625 76.64186Q80.5 76.07936 81.09375 75.79811Q81.703125 75.501236 82.84375 75.282486Q84.390625 74.98561 84.984375 74.73561L84.984375 74.51686Q84.984375 73.89186 84.671875 73.626236Q84.359375 73.344986 83.484375 73.344986Q82.90625 73.344986 82.578125 73.57936Q82.25 73.813736 82.046875 74.39186ZM84.984375 76.17311Q84.5625 76.313736 83.640625 76.51686Q82.734375 76.70436 82.453125 76.89186Q82.015625 77.188736 82.015625 77.657486Q82.015625 78.126236 82.359375 78.469986Q82.703125 78.79811 83.234375 78.79811Q83.828125 78.79811 84.375 78.407486Q84.765625 78.11061 84.890625 77.67311Q84.984375 77.39186 84.984375 76.61061L84.984375 76.17311ZM93.203125 71.86061L93.203125 73.61061L91.703125 73.61061L91.703125 76.95436Q91.703125 77.969986 91.75 78.14186Q91.796875 78.29811 91.9375 78.407486Q92.09375 78.51686 92.3125 78.51686Q92.625 78.51686 93.203125 78.313736L93.390625 80.01686Q92.625 80.344986 91.65625 80.344986Q91.0625 80.344986 90.578125 80.14186Q90.109375 79.938736 89.875 79.626236Q89.65625 79.313736 89.578125 78.76686Q89.5 78.39186 89.5 77.219986L89.5 73.61061L88.5 73.61061L88.5 71.86061L89.5 71.86061L89.5 70.20436L91.703125 68.92311L91.703125 71.86061L93.203125 71.86061ZM94.40625 70.73561L94.40625 68.70436L96.59375 68.70436L96.59375 70.73561L94.40625 70.73561ZM94.40625 80.157486L94.40625 71.86061L96.59375 71.86061L96.59375 80.157486L94.40625 80.157486ZM97.890625 75.89186Q97.890625 74.79811 98.421875 73.782486Q98.96875 72.751236 99.953125 72.219986Q100.953125 71.67311 102.171875 71.67311Q104.046875 71.67311 105.25 72.89186Q106.453125 74.11061 106.453125 75.98561Q106.453125 77.86061 105.234375 79.11061Q104.03125 80.344986 102.1875 80.344986Q101.046875 80.344986 100.0 79.82936Q98.96875 79.313736 98.421875 78.313736Q97.890625 77.313736 97.890625 75.89186ZM100.140625 76.001236Q100.140625 77.23561 100.71875 77.89186Q101.3125 78.54811 102.171875 78.54811Q103.03125 78.54811 103.609375 77.89186Q104.203125 77.23561 104.203125 75.98561Q104.203125 74.76686 103.609375 74.11061Q103.03125 73.45436 102.171875 73.45436Q101.3125 73.45436 100.71875 74.11061Q100.140625 74.76686 100.140625 76.001236ZM115.953125 80.157486L113.75 80.157486L113.75 75.92311Q113.75 74.57936 113.609375 74.188736Q113.46875 73.782486 113.15625 73.563736Q112.84375 73.344986 112.390625 73.344986Q111.828125 73.344986 111.375 73.657486Q110.921875 73.969986 110.75 74.48561Q110.578125 75.001236 110.578125 76.39186L110.578125 80.157486L108.390625 80.157486L108.390625 71.86061L110.421875 71.86061L110.421875 73.07936Q111.515625 71.67311 113.15625 71.67311Q113.890625 71.67311 114.484375 71.938736Q115.09375 72.188736 115.390625 72.594986Q115.703125 73.001236 115.828125 73.51686Q115.953125 74.032486 115.953125 75.001236L115.953125 80.157486Z" fill-rule="nonzero"/><path fill="#9e9e9e" d="M35.546875 102.157486L33.359375 102.157486L33.359375 93.876236Q32.15625 95.001236 30.515625 95.54811L30.515625 93.54811Q31.375 93.26686 32.375 92.48561Q33.390625 91.70436 33.765625 90.657486L35.546875 90.657486L35.546875 102.157486ZM38.984375 99.501236L41.109375 99.26686Q41.1875 99.92311 41.515625 100.23561Q41.84375 100.54811 42.375 100.54811Q43.0625 100.54811 43.53125 99.92311Q44.015625 99.29811 44.140625 97.32936Q43.3125 98.282486 42.078125 98.282486Q40.71875 98.282486 39.734375 97.251236Q38.765625 96.20436 38.765625 94.532486Q38.765625 92.782486 39.796875 91.719986Q40.828125 90.657486 42.4375 90.657486Q44.171875 90.657486 45.28125 92.001236Q46.40625 93.344986 46.40625 96.438736Q46.40625 99.57936 45.234375 100.969986Q44.078125 102.36061 42.21875 102.36061Q40.875 102.36061 40.046875 101.64186Q39.21875 100.92311 38.984375 99.501236ZM43.953125 94.70436Q43.953125 93.64186 43.453125 93.063736Q42.96875 92.469986 42.328125 92.469986Q41.71875 92.469986 41.3125 92.95436Q40.921875 93.438736 40.921875 94.532486Q40.921875 95.64186 41.359375 96.157486Q41.796875 96.67311 42.453125 96.67311Q43.078125 96.67311 43.515625 96.17311Q43.953125 95.67311 43.953125 94.70436ZM48.40625 102.157486L48.40625 99.95436L50.59375 99.95436L50.59375 102.157486L48.40625 102.157486ZM55.640625 90.657486Q57.3125 90.657486 58.25 91.844986Q59.359375 93.251236 59.359375 96.501236Q59.359375 99.751236 58.234375 101.17311Q57.3125 102.36061 55.640625 102.36061Q53.96875 102.36061 52.9375 101.07936Q51.921875 99.782486 51.921875 96.48561Q51.921875 93.251236 53.046875 91.82936Q53.984375 90.657486 55.640625 90.657486ZM55.640625 92.469986Q55.25 92.469986 54.9375 92.73561Q54.625 92.98561 54.453125 93.64186Q54.21875 94.48561 54.21875 96.501236Q54.21875 98.51686 54.421875 99.282486Q54.625 100.032486 54.9375 100.282486Q55.25 100.532486 55.640625 100.532486Q56.046875 100.532486 56.359375 100.282486Q56.671875 100.01686 56.84375 99.36061Q57.0625 98.51686 57.0625 96.501236Q57.0625 94.48561 56.859375 93.73561Q56.65625 92.98561 56.34375 92.73561Q56.046875 92.469986 55.640625 92.469986ZM60.953125 93.532486Q60.953125 91.98561 61.625 91.251236Q62.296875 90.501236 63.453125 90.501236Q64.65625 90.501236 65.328125 91.251236Q66.0 91.98561 66.0 93.532486Q66.0 95.063736 65.328125 95.813736Q64.65625 96.54811 63.5 96.54811Q62.296875 96.54811 61.625 95.813736Q60.953125 95.07936 60.953125 93.532486ZM62.65625 93.51686Q62.65625 94.626236 62.921875 95.01686Q63.109375 95.29811 63.453125 95.29811Q63.8125 95.29811 64.0 95.01686Q64.25 94.626236 64.25 93.51686Q64.25 92.39186 64.0 92.01686Q63.8125 91.73561 63.453125 91.73561Q63.109375 91.73561 62.921875 92.01686Q62.65625 92.39186 62.65625 93.51686ZM65.125 102.594986L63.5 102.594986L69.609375 90.501236L71.1875 90.501236L65.125 102.594986ZM68.671875 99.57936Q68.671875 98.04811 69.34375 97.313736Q70.03125 96.563736 71.203125 96.563736Q72.375 96.563736 73.046875 97.313736Q73.734375 98.04811 73.734375 99.57936Q73.734375 101.126236 73.046875 101.876236Q72.375 102.626236 71.21875 102.626236Q70.03125 102.626236 69.34375 101.876236Q68.671875 101.126236 68.671875 99.57936ZM70.390625 99.57936Q70.390625 100.688736 70.640625 101.063736Q70.84375 101.36061 71.1875 101.36061Q71.53125 101.36061 71.71875 101.07936Q71.984375 100.688736 71.984375 99.57936Q71.984375 98.45436 71.734375 98.07936Q71.53125 97.79811 71.1875 97.79811Q70.828125 97.79811 70.640625 98.07936Q70.390625 98.45436 70.390625 99.57936Z" fill-rule="nonzero"/><path stroke="#757575" stroke-width="1.0" stroke-linecap="butt" d="M29.25 85.657486L205.25 85.657486L333.92996 85.657486" fill-rule="nonzero"/><path fill="#9e9e9e" d="M335.92996 85.657486C335.92996 84.55292 335.03455 83.657486 333.92996 83.657486C332.8254 83.657486 331.92996 84.55292 331.92996 85.657486C331.92996 86.762054 332.8254 87.657486 333.92996 87.657486C335.03455 87.657486 335.92996 86.762054 335.92996 85.657486" fill-rule="nonzero"/><path fill="#1a1a1a" d="M30.421875 349.19424L30.421875 337.74112L38.90625 337.74112L38.90625 339.67862L32.734375 339.67862L32.734375 342.20987L38.484375 342.20987L38.484375 344.14737L32.734375 344.14737L32.734375 347.25674L39.125 347.25674L39.125 349.19424L30.421875 349.19424ZM48.640625 343.3505L46.46875 343.74112Q46.359375 343.08487 45.96875 342.75674Q45.59375 342.42862 44.96875 342.42862Q44.15625 342.42862 43.65625 343.00674Q43.171875 343.56924 43.171875 344.89737Q43.171875 346.36612 43.671875 346.9755Q44.171875 347.58487 45.0 347.58487Q45.625 347.58487 46.015625 347.24112Q46.421875 346.88174 46.59375 346.00674L48.75 346.38174Q48.40625 347.86612 47.453125 348.63174Q46.5 349.38174 44.90625 349.38174Q43.078125 349.38174 42.0 348.24112Q40.921875 347.08487 40.921875 345.05362Q40.921875 342.99112 42.0 341.8505Q43.09375 340.70987 44.9375 340.70987Q46.453125 340.70987 47.34375 341.36612Q48.25 342.00674 48.640625 343.3505ZM49.890625 344.92862Q49.890625 343.83487 50.421875 342.81924Q50.96875 341.788 51.953125 341.25674Q52.953125 340.70987 54.171875 340.70987Q56.046875 340.70987 57.25 341.92862Q58.453125 343.14737 58.453125 345.02237Q58.453125 346.89737 57.234375 348.14737Q56.03125 349.38174 54.1875 349.38174Q53.046875 349.38174 52.0 348.86612Q50.96875 348.3505 50.421875 347.3505Q49.890625 346.3505 49.890625 344.92862ZM52.140625 345.038Q52.140625 346.27237 52.71875 346.92862Q53.3125 347.58487 54.171875 347.58487Q55.03125 347.58487 55.609375 346.92862Q56.203125 346.27237 56.203125 345.02237Q56.203125 343.80362 55.609375 343.14737Q55.03125 342.49112 54.171875 342.49112Q53.3125 342.49112 52.71875 343.14737Q52.140625 343.80362 52.140625 345.038ZM59.625 346.81924L61.828125 346.49112Q61.96875 347.13174 62.390625 347.45987Q62.828125 347.788 63.609375 347.788Q64.453125 347.788 64.890625 347.4755Q65.171875 347.25674 65.171875 346.89737Q65.171875 346.64737 65.015625 346.4755Q64.859375 346.31924 64.28125 346.19424Q61.625 345.6005 60.921875 345.11612Q59.9375 344.44424 59.9375 343.25674Q59.9375 342.17862 60.78125 341.44424Q61.640625 340.70987 63.421875 340.70987Q65.125 340.70987 65.953125 341.27237Q66.78125 341.81924 67.09375 342.89737L65.03125 343.288Q64.890625 342.80362 64.515625 342.55362Q64.15625 342.288 63.46875 342.288Q62.59375 342.288 62.21875 342.52237Q61.96875 342.69424 61.96875 342.9755Q61.96875 343.20987 62.1875 343.36612Q62.484375 343.58487 64.234375 343.99112Q66.0 344.38174 66.6875 344.95987Q67.375 345.55362 67.375 346.6005Q67.375 347.74112 66.421875 348.56924Q65.46875 349.38174 63.609375 349.38174Q61.90625 349.38174 60.921875 348.69424Q59.9375 348.00674 59.625 346.81924ZM68.359375 340.89737L70.703125 340.89737L72.6875 346.788L74.625 340.89737L76.890625 340.89737L73.96875 348.88174L73.4375 350.33487Q73.15625 351.05362 72.890625 351.42862Q72.625 351.81924 72.28125 352.05362Q71.953125 352.30362 71.453125 352.42862Q70.953125 352.56924 70.328125 352.56924Q69.703125 352.56924 69.09375 352.42862L68.890625 350.70987Q69.40625 350.81924 69.828125 350.81924Q70.59375 350.81924 70.953125 350.36612Q71.328125 349.913 71.515625 349.2255L68.359375 340.89737ZM77.625 346.81924L79.828125 346.49112Q79.96875 347.13174 80.390625 347.45987Q80.828125 347.788 81.609375 347.788Q82.453125 347.788 82.890625 347.4755Q83.171875 347.25674 83.171875 346.89737Q83.171875 346.64737 83.015625 346.4755Q82.859375 346.31924 82.28125 346.19424Q79.625 345.6005 78.921875 345.11612Q77.9375 344.44424 77.9375 343.25674Q77.9375 342.17862 78.78125 341.44424Q79.640625 340.70987 81.421875 340.70987Q83.125 340.70987 83.953125 341.27237Q84.78125 341.81924 85.09375 342.89737L83.03125 343.288Q82.890625 342.80362 82.515625 342.55362Q82.15625 342.288 81.46875 342.288Q80.59375 342.288 80.21875 342.52237Q79.96875 342.69424 79.96875 342.9755Q79.96875 343.20987 80.1875 343.36612Q80.484375 343.58487 82.234375 343.99112Q84.0 344.38174 84.6875 344.95987Q85.375 345.55362 85.375 346.6005Q85.375 347.74112 84.421875 348.56924Q83.46875 349.38174 81.609375 349.38174Q79.90625 349.38174 78.921875 348.69424Q77.9375 348.00674 77.625 346.81924ZM91.203125 340.89737L91.203125 342.64737L89.703125 342.64737L89.703125 345.99112Q89.703125 347.00674 89.75 347.17862Q89.796875 347.33487 89.9375 347.44424Q90.09375 347.55362 90.3125 347.55362Q90.625 347.55362 91.203125 347.3505L91.390625 349.05362Q90.625 349.38174 89.65625 349.38174Q89.0625 349.38174 88.578125 349.17862Q88.109375 348.9755 87.875 348.663Q87.65625 348.3505 87.578125 347.80362Q87.5 347.42862 87.5 346.25674L87.5 342.64737L86.5 342.64737L86.5 340.89737L87.5 340.89737L87.5 339.24112L89.703125 337.95987L89.703125 340.89737L91.203125 340.89737ZM97.203125 346.55362L99.390625 346.913Q98.96875 348.11612 98.0625 348.75674Q97.15625 349.38174 95.78125 349.38174Q93.625 349.38174 92.578125 347.95987Q91.765625 346.83487 91.765625 345.1005Q91.765625 343.038 92.84375 341.88174Q93.921875 340.70987 95.5625 340.70987Q97.421875 340.70987 98.484375 341.92862Q99.5625 343.14737 99.515625 345.67862L94.015625 345.67862Q94.03125 346.64737 94.53125 347.19424Q95.046875 347.74112 95.8125 347.74112Q96.328125 347.74112 96.671875 347.45987Q97.03125 347.17862 97.203125 346.55362ZM97.328125 344.33487Q97.3125 343.38174 96.84375 342.88174Q96.375 342.38174 95.703125 342.38174Q94.984375 342.38174 94.515625 342.913Q94.046875 343.42862 94.046875 344.33487L97.328125 344.33487ZM101.234375 340.89737L103.265625 340.89737L103.265625 342.02237Q104.34375 340.70987 105.84375 340.70987Q106.640625 340.70987 107.21875 341.038Q107.8125 341.36612 108.1875 342.02237Q108.734375 341.36612 109.359375 341.038Q110.0 340.70987 110.71875 340.70987Q111.640625 340.70987 112.265625 341.08487Q112.90625 341.44424 113.21875 342.163Q113.4375 342.69424 113.4375 343.88174L113.4375 349.19424L111.25 349.19424L111.25 344.44424Q111.25 343.20987 111.015625 342.8505Q110.71875 342.38174 110.078125 342.38174Q109.625 342.38174 109.21875 342.663Q108.8125 342.94424 108.625 343.49112Q108.453125 344.038 108.453125 345.20987L108.453125 349.19424L106.25 349.19424L106.25 344.64737Q106.25 343.42862 106.125 343.08487Q106.015625 342.7255 105.765625 342.55362Q105.53125 342.38174 105.109375 342.38174Q104.59375 342.38174 104.1875 342.663Q103.78125 342.92862 103.609375 343.44424Q103.4375 343.95987 103.4375 345.163L103.4375 349.19424L101.234375 349.19424L101.234375 340.89737Z" fill-rule="nonzero"/><path fill="#9e9e9e" d="M37.34375 369.14737L37.34375 371.19424L29.65625 371.19424Q29.78125 370.038 30.40625 369.00674Q31.03125 367.95987 32.875 366.25674Q34.359375 364.86612 34.6875 364.38174Q35.140625 363.69424 35.140625 363.038Q35.140625 362.30362 34.75 361.913Q34.359375 361.50674 33.65625 361.50674Q32.96875 361.50674 32.5625 361.92862Q32.15625 362.33487 32.09375 363.30362L29.90625 363.08487Q30.109375 361.27237 31.140625 360.49112Q32.171875 359.69424 33.71875 359.69424Q35.40625 359.69424 36.375 360.61612Q37.34375 361.52237 37.34375 362.88174Q37.34375 363.64737 37.0625 364.3505Q36.796875 365.05362 36.1875 365.81924Q35.796875 366.31924 34.75 367.27237Q33.71875 368.2255 33.4375 368.538Q33.15625 368.8505 32.984375 369.14737L37.34375 369.14737ZM42.640625 359.69424Q44.3125 359.69424 45.25 360.88174Q46.359375 362.288 46.359375 365.538Q46.359375 368.788 45.234375 370.20987Q44.3125 371.39737 42.640625 371.39737Q40.96875 371.39737 39.9375 370.11612Q38.921875 368.81924 38.921875 365.52237Q38.921875 362.288 40.046875 360.86612Q40.984375 359.69424 42.640625 359.69424ZM42.640625 361.50674Q42.25 361.50674 41.9375 361.77237Q41.625 362.02237 41.453125 362.67862Q41.21875 363.52237 41.21875 365.538Q41.21875 367.55362 41.421875 368.31924Q41.625 369.06924 41.9375 369.31924Q42.25 369.56924 42.640625 369.56924Q43.046875 369.56924 43.359375 369.31924Q43.671875 369.05362 43.84375 368.39737Q44.0625 367.55362 44.0625 365.538Q44.0625 363.52237 43.859375 362.77237Q43.65625 362.02237 43.34375 361.77237Q43.046875 361.50674 42.640625 361.50674ZM48.40625 371.19424L48.40625 368.99112L50.59375 368.99112L50.59375 371.19424L48.40625 371.19424ZM55.640625 359.69424Q57.3125 359.69424 58.25 360.88174Q59.359375 362.288 59.359375 365.538Q59.359375 368.788 58.234375 370.20987Q57.3125 371.39737 55.640625 371.39737Q53.96875 371.39737 52.9375 370.11612Q51.921875 368.81924 51.921875 365.52237Q51.921875 362.288 53.046875 360.86612Q53.984375 359.69424 55.640625 359.69424ZM55.640625 361.50674Q55.25 361.50674 54.9375 361.77237Q54.625 362.02237 54.453125 362.67862Q54.21875 363.52237 54.21875 365.538Q54.21875 367.55362 54.421875 368.31924Q54.625 369.06924 54.9375 369.31924Q55.25 369.56924 55.640625 369.56924Q56.046875 369.56924 56.359375 369.31924Q56.671875 369.05362 56.84375 368.39737Q57.0625 367.55362 57.0625 365.538Q57.0625 363.52237 56.859375 362.77237Q56.65625 362.02237 56.34375 361.77237Q56.046875 361.50674 55.640625 361.50674ZM60.953125 362.56924Q60.953125 361.02237 61.625 360.288Q62.296875 359.538 63.453125 359.538Q64.65625 359.538 65.328125 360.288Q66.0 361.02237 66.0 362.56924Q66.0 364.1005 65.328125 364.8505Q64.65625 365.58487 63.5 365.58487Q62.296875 365.58487 61.625 364.8505Q60.953125 364.11612 60.953125 362.56924ZM62.65625 362.55362Q62.65625 363.663 62.921875 364.05362Q63.109375 364.33487 63.453125 364.33487Q63.8125 364.33487 64.0 364.05362Q64.25 363.663 64.25 362.55362Q64.25 361.42862 64.0 361.05362Q63.8125 360.77237 63.453125 360.77237Q63.109375 360.77237 62.921875 361.05362Q62.65625 361.42862 62.65625 362.55362ZM65.125 371.63174L63.5 371.63174L69.609375 359.538L71.1875 359.538L65.125 371.63174ZM68.671875 368.61612Q68.671875 367.08487 69.34375 366.3505Q70.03125 365.6005 71.203125 365.6005Q72.375 365.6005 73.046875 366.3505Q73.734375 367.08487 73.734375 368.61612Q73.734375 370.163 73.046875 370.913Q72.375 371.663 71.21875 371.663Q70.03125 371.663 69.34375 370.913Q68.671875 370.163 68.671875 368.61612ZM70.390625 368.61612Q70.390625 369.7255 70.640625 370.1005Q70.84375 370.39737 71.1875 370.39737Q71.53125 370.39737 71.71875 370.11612Q71.984375 369.7255 71.984375 368.61612Q71.984375 367.49112 71.734375 367.11612Q71.53125 366.83487 71.1875 366.83487Q70.828125 366.83487 70.640625 367.11612Q70.390625 367.49112 70.390625 368.61612Z" fill-rule="nonzero"/><path stroke="#757575" stroke-width="1.0" stroke-linecap="butt" d="M29.25 354.69424L205.25 354.69424L232.26945 354.69424" fill-rule="nonzero"/><path fill="#9e9e9e" d="M234.26945 354.69424C234.26945 353.58966 233.37402 352.69424 232.26945 352.69424C231.16489 352.69424 230.26945 353.58966 230.26945 354.69424C230.26945 355.7988 231.16489 356.69424 232.26945 356.69424C233.37402 356.69424 234.26945 355.7988 234.26945 354.69424" fill-rule="nonzero"/><path fill="#1a1a1a" d="M37.75 520.6286L39.984375 521.34735Q39.46875 523.22235 38.265625 524.1442Q37.078125 525.0505 35.234375 525.0505Q32.953125 525.0505 31.484375 523.488Q30.015625 521.9255 30.015625 519.22235Q30.015625 516.363 31.484375 514.78485Q32.96875 513.1911 35.375 513.1911Q37.46875 513.1911 38.78125 514.4411Q39.5625 515.1755 39.953125 516.5505L37.671875 517.09735Q37.46875 516.2067 36.8125 515.6911Q36.171875 515.1755 35.25 515.1755Q33.984375 515.1755 33.1875 516.09735Q32.390625 517.0036 32.390625 519.0505Q32.390625 521.22235 33.171875 522.1442Q33.953125 523.0661 35.203125 523.0661Q36.125 523.0661 36.78125 522.488Q37.453125 521.8942 37.75 520.6286ZM41.890625 520.5817Q41.890625 519.488 42.421875 518.47235Q42.96875 517.4411 43.953125 516.90985Q44.953125 516.363 46.171875 516.363Q48.046875 516.363 49.25 517.5817Q50.453125 518.8005 50.453125 520.6755Q50.453125 522.5505 49.234375 523.8005Q48.03125 525.03485 46.1875 525.03485Q45.046875 525.03485 44.0 524.5192Q42.96875 524.0036 42.421875 523.0036Q41.890625 522.0036 41.890625 520.5817ZM44.140625 520.6911Q44.140625 521.9255 44.71875 522.5817Q45.3125 523.238 46.171875 523.238Q47.03125 523.238 47.609375 522.5817Q48.203125 521.9255 48.203125 520.6755Q48.203125 519.4567 47.609375 518.8005Q47.03125 518.1442 46.171875 518.1442Q45.3125 518.1442 44.71875 518.8005Q44.140625 519.4567 44.140625 520.6911ZM52.40625 524.84735L52.40625 513.3942L54.59375 513.3942L54.59375 524.84735L52.40625 524.84735ZM56.40625 524.84735L56.40625 513.3942L58.59375 513.3942L58.59375 524.84735L56.40625 524.84735ZM62.046875 519.0817L60.046875 518.72235Q60.390625 517.5192 61.203125 516.9411Q62.03125 516.363 63.640625 516.363Q65.109375 516.363 65.828125 516.7067Q66.546875 517.0505 66.84375 517.59735Q67.140625 518.1286 67.140625 519.5505L67.109375 522.113Q67.109375 523.2067 67.21875 523.738Q67.328125 524.2536 67.609375 524.84735L65.4375 524.84735Q65.359375 524.6286 65.234375 524.1911Q65.171875 524.0036 65.15625 523.9411Q64.59375 524.488 63.953125 524.7692Q63.3125 525.03485 62.578125 525.03485Q61.296875 525.03485 60.5625 524.34735Q59.828125 523.6442 59.828125 522.5817Q59.828125 521.8786 60.15625 521.3317Q60.5 520.7692 61.09375 520.488Q61.703125 520.1911 62.84375 519.97235Q64.390625 519.6755 64.984375 519.4255L64.984375 519.2067Q64.984375 518.5817 64.671875 518.3161Q64.359375 518.03485 63.484375 518.03485Q62.90625 518.03485 62.578125 518.2692Q62.25 518.5036 62.046875 519.0817ZM64.984375 520.863Q64.5625 521.0036 63.640625 521.2067Q62.734375 521.3942 62.453125 521.5817Q62.015625 521.8786 62.015625 522.34735Q62.015625 522.8161 62.359375 523.15985Q62.703125 523.488 63.234375 523.488Q63.828125 523.488 64.375 523.09735Q64.765625 522.8005 64.890625 522.363Q64.984375 522.0817 64.984375 521.3005L64.984375 520.863ZM73.203125 516.5505L73.203125 518.3005L71.703125 518.3005L71.703125 521.6442Q71.703125 522.65985 71.75 522.8317Q71.796875 522.988 71.9375 523.09735Q72.09375 523.2067 72.3125 523.2067Q72.625 523.2067 73.203125 523.0036L73.390625 524.7067Q72.625 525.03485 71.65625 525.03485Q71.0625 525.03485 70.578125 524.8317Q70.109375 524.6286 69.875 524.3161Q69.65625 524.0036 69.578125 523.4567Q69.5 523.0817 69.5 521.90985L69.5 518.3005L68.5 518.3005L68.5 516.5505L69.5 516.5505L69.5 514.8942L71.703125 513.613L71.703125 516.5505L73.203125 516.5505ZM73.890625 520.5817Q73.890625 519.488 74.421875 518.47235Q74.96875 517.4411 75.953125 516.90985Q76.953125 516.363 78.171875 516.363Q80.046875 516.363 81.25 517.5817Q82.453125 518.8005 82.453125 520.6755Q82.453125 522.5505 81.234375 523.8005Q80.03125 525.03485 78.1875 525.03485Q77.046875 525.03485 76.0 524.5192Q74.96875 524.0036 74.421875 523.0036Q73.890625 522.0036 73.890625 520.5817ZM76.140625 520.6911Q76.140625 521.9255 76.71875 522.5817Q77.3125 523.238 78.171875 523.238Q79.03125 523.238 79.609375 522.5817Q80.203125 521.9255 80.203125 520.6755Q80.203125 519.4567 79.609375 518.8005Q79.03125 518.1442 78.171875 518.1442Q77.3125 518.1442 76.71875 518.8005Q76.140625 519.4567 76.140625 520.6911ZM86.5 524.84735L84.3125 524.84735L84.3125 516.5505L86.34375 516.5505L86.34375 517.72235Q86.875 516.8942 87.28125 516.6286Q87.703125 516.363 88.234375 516.363Q88.984375 516.363 89.6875 516.7692L89.0 518.6911Q88.453125 518.3317 87.96875 518.3317Q87.515625 518.3317 87.1875 518.5817Q86.875 518.8317 86.6875 519.5036Q86.5 520.15985 86.5 522.28485L86.5 524.84735ZM94.421875 524.84735L94.421875 513.3942L99.296875 513.3942Q101.125 513.3942 101.953125 513.7067Q102.796875 514.0036 103.296875 514.8005Q103.796875 515.5817 103.796875 516.59735Q103.796875 517.8942 103.03125 518.738Q102.28125 519.5661 100.765625 519.78485Q101.515625 520.22235 102.0 520.7536Q102.5 521.2692 103.328125 522.613L104.71875 524.84735L101.953125 524.84735L100.28125 522.34735Q99.390625 521.0192 99.0625 520.6755Q98.734375 520.3161 98.359375 520.1911Q98.0 520.0661 97.203125 520.0661L96.734375 520.0661L96.734375 524.84735L94.421875 524.84735ZM96.734375 518.238L98.453125 518.238Q100.109375 518.238 100.515625 518.09735Q100.9375 517.9567 101.171875 517.613Q101.40625 517.2692 101.40625 516.7536Q101.40625 516.1755 101.09375 515.8161Q100.796875 515.4567 100.234375 515.363Q99.953125 515.3317 98.546875 515.3317L96.734375 515.3317L96.734375 518.238ZM111.203125 522.2067L113.390625 522.5661Q112.96875 523.7692 112.0625 524.40985Q111.15625 525.03485 109.78125 525.03485Q107.625 525.03485 106.578125 523.613Q105.765625 522.488 105.765625 520.7536Q105.765625 518.6911 106.84375 517.53485Q107.921875 516.363 109.5625 516.363Q111.421875 516.363 112.484375 517.5817Q113.5625 518.8005 113.515625 521.3317L108.015625 521.3317Q108.03125 522.3005 108.53125 522.84735Q109.046875 523.3942 109.8125 523.3942Q110.328125 523.3942 110.671875 523.113Q111.03125 522.8317 111.203125 522.2067ZM111.328125 519.988Q111.3125 519.03485 110.84375 518.53485Q110.375 518.03485 109.703125 518.03485Q108.984375 518.03485 108.515625 518.5661Q108.046875 519.0817 108.046875 519.988L111.328125 519.988ZM116.953125 524.84735L114.328125 516.5505L116.453125 516.5505L118.015625 521.988L119.4375 516.5505L121.5625 516.5505L122.9375 521.988L124.53125 516.5505L126.6875 516.5505L124.03125 524.84735L121.921875 524.84735L120.484375 519.5036L119.078125 524.84735L116.953125 524.84735ZM129.04688 519.0817L127.046875 518.72235Q127.390625 517.5192 128.20312 516.9411Q129.03125 516.363 130.64062 516.363Q132.10938 516.363 132.82812 516.7067Q133.54688 517.0505 133.84375 517.59735Q134.14062 518.1286 134.14062 519.5505L134.10938 522.113Q134.10938 523.2067 134.21875 523.738Q134.32812 524.2536 134.60938 524.84735L132.4375 524.84735Q132.35938 524.6286 132.23438 524.1911Q132.17188 524.0036 132.15625 523.9411Q131.59375 524.488 130.95312 524.7692Q130.3125 525.03485 129.57812 525.03485Q128.29688 525.03485 127.5625 524.34735Q126.828125 523.6442 126.828125 522.5817Q126.828125 521.8786 127.15625 521.3317Q127.5 520.7692 128.09375 520.488Q128.70312 520.1911 129.84375 519.97235Q131.39062 519.6755 131.98438 519.4255L131.98438 519.2067Q131.98438 518.5817 131.67188 518.3161Q131.35938 518.03485 130.48438 518.03485Q129.90625 518.03485 129.57812 518.2692Q129.25 518.5036 129.04688 519.0817ZM131.98438 520.863Q131.5625 521.0036 130.64062 521.2067Q129.73438 521.3942 129.45312 521.5817Q129.01562 521.8786 129.01562 522.34735Q129.01562 522.8161 129.35938 523.15985Q129.70312 523.488 130.23438 523.488Q130.82812 523.488 131.375 523.09735Q131.76562 522.8005 131.89062 522.363Q131.98438 522.0817 131.98438 521.3005L131.98438 520.863ZM138.5 524.84735L136.3125 524.84735L136.3125 516.5505L138.34375 516.5505L138.34375 517.72235Q138.875 516.8942 139.28125 516.6286Q139.70312 516.363 140.23438 516.363Q140.98438 516.363 141.6875 516.7692L141.0 518.6911Q140.45312 518.3317 139.96875 518.3317Q139.51562 518.3317 139.1875 518.5817Q138.875 518.8317 138.6875 519.5036Q138.5 520.15985 138.5 522.28485L138.5 524.84735ZM150.01562 524.84735L147.96875 524.84735L147.96875 523.6286Q147.46875 524.3317 146.76562 524.6911Q146.07812 525.03485 145.375 525.03485Q143.95312 525.03485 142.92188 523.8786Q141.90625 522.72235 141.90625 520.65985Q141.90625 518.5505 142.89062 517.4567Q143.89062 516.363 145.40625 516.363Q146.79688 516.363 147.8125 517.5192L147.8125 513.3942L150.01562 513.3942L150.01562 524.84735ZM144.15625 520.5192Q144.15625 521.84735 144.51562 522.4411Q145.04688 523.3005 146.0 523.3005Q146.76562 523.3005 147.29688 522.65985Q147.82812 522.0036 147.82812 520.72235Q147.82812 519.3005 147.3125 518.6755Q146.79688 518.03485 145.98438 518.03485Q145.20312 518.03485 144.67188 518.65985Q144.15625 519.28485 144.15625 520.5192ZM151.625 522.47235L153.82812 522.1442Q153.96875 522.78485 154.39062 523.113Q154.82812 523.4411 155.60938 523.4411Q156.45312 523.4411 156.89062 523.1286Q157.17188 522.90985 157.17188 522.5505Q157.17188 522.3005 157.01562 522.1286Q156.85938 521.97235 156.28125 521.84735Q153.625 521.2536 152.92188 520.7692Q151.9375 520.09735 151.9375 518.90985Q151.9375 517.8317 152.78125 517.09735Q153.64062 516.363 155.42188 516.363Q157.125 516.363 157.95312 516.9255Q158.78125 517.47235 159.09375 518.5505L157.03125 518.9411Q156.89062 518.4567 156.51562 518.2067Q156.15625 517.9411 155.46875 517.9411Q154.59375 517.9411 154.21875 518.1755Q153.96875 518.34735 153.96875 518.6286Q153.96875 518.863 154.1875 519.0192Q154.48438 519.238 156.23438 519.6442Q158.0 520.03485 158.6875 520.613Q159.375 521.2067 159.375 522.2536Q159.375 523.3942 158.42188 524.22235Q157.46875 525.03485 155.60938 525.03485Q153.90625 525.03485 152.92188 524.34735Q151.9375 523.65985 151.625 522.47235Z" fill-rule="nonzero"/><path fill="#9e9e9e" d="M35.546875 546.84735L33.359375 546.84735L33.359375 538.5661Q32.15625 539.6911 30.515625 540.238L30.515625 538.238Q31.375 537.9567 32.375 537.1755Q33.390625 536.3942 33.765625 535.34735L35.546875 535.34735L35.546875 546.84735ZM46.34375 544.8005L46.34375 546.84735L38.65625 546.84735Q38.78125 545.6911 39.40625 544.65985Q40.03125 543.613 41.875 541.90985Q43.359375 540.5192 43.6875 540.03485Q44.140625 539.34735 44.140625 538.6911Q44.140625 537.9567 43.75 537.5661Q43.359375 537.15985 42.65625 537.15985Q41.96875 537.15985 41.5625 537.5817Q41.15625 537.988 41.09375 538.9567L38.90625 538.738Q39.109375 536.9255 40.140625 536.1442Q41.171875 535.34735 42.71875 535.34735Q44.40625 535.34735 45.375 536.2692Q46.34375 537.1755 46.34375 538.53485Q46.34375 539.3005 46.0625 540.0036Q45.796875 540.7067 45.1875 541.47235Q44.796875 541.97235 43.75 542.9255Q42.71875 543.8786 42.4375 544.1911Q42.15625 544.5036 41.984375 544.8005L46.34375 544.8005ZM48.40625 546.84735L48.40625 544.6442L50.59375 544.6442L50.59375 546.84735L48.40625 546.84735ZM55.640625 535.34735Q57.3125 535.34735 58.25 536.53485Q59.359375 537.9411 59.359375 541.1911Q59.359375 544.4411 58.234375 545.863Q57.3125 547.0505 55.640625 547.0505Q53.96875 547.0505 52.9375 545.7692Q51.921875 544.47235 51.921875 541.1755Q51.921875 537.9411 53.046875 536.5192Q53.984375 535.34735 55.640625 535.34735ZM55.640625 537.15985Q55.25 537.15985 54.9375 537.4255Q54.625 537.6755 54.453125 538.3317Q54.21875 539.1755 54.21875 541.1911Q54.21875 543.2067 54.421875 543.97235Q54.625 544.72235 54.9375 544.97235Q55.25 545.22235 55.640625 545.22235Q56.046875 545.22235 56.359375 544.97235Q56.671875 544.7067 56.84375 544.0505Q57.0625 543.2067 57.0625 541.1911Q57.0625 539.1755 56.859375 538.4255Q56.65625 537.6755 56.34375 537.4255Q56.046875 537.15985 55.640625 537.15985ZM60.953125 538.22235Q60.953125 536.6755 61.625 535.9411Q62.296875 535.1911 63.453125 535.1911Q64.65625 535.1911 65.328125 535.9411Q66.0 536.6755 66.0 538.22235Q66.0 539.7536 65.328125 540.5036Q64.65625 541.238 63.5 541.238Q62.296875 541.238 61.625 540.5036Q60.953125 539.7692 60.953125 538.22235ZM62.65625 538.2067Q62.65625 539.3161 62.921875 539.7067Q63.109375 539.988 63.453125 539.988Q63.8125 539.988 64.0 539.7067Q64.25 539.3161 64.25 538.2067Q64.25 537.0817 64.0 536.7067Q63.8125 536.4255 63.453125 536.4255Q63.109375 536.4255 62.921875 536.7067Q62.65625 537.0817 62.65625 538.2067ZM65.125 547.28485L63.5 547.28485L69.609375 535.1911L71.1875 535.1911L65.125 547.28485ZM68.671875 544.2692Q68.671875 542.738 69.34375 542.0036Q70.03125 541.2536 71.203125 541.2536Q72.375 541.2536 73.046875 542.0036Q73.734375 542.738 73.734375 544.2692Q73.734375 545.8161 73.046875 546.5661Q72.375 547.3161 71.21875 547.3161Q70.03125 547.3161 69.34375 546.5661Q68.671875 545.8161 68.671875 544.2692ZM70.390625 544.2692Q70.390625 545.3786 70.640625 545.7536Q70.84375 546.0505 71.1875 546.0505Q71.53125 546.0505 71.71875 545.7692Q71.984375 545.3786 71.984375 544.2692Q71.984375 543.1442 71.734375 542.7692Q71.53125 542.488 71.1875 542.488Q70.828125 542.488 70.640625 542.7692Q70.390625 543.1442 70.390625 544.2692Z" fill-rule="nonzero"/><path stroke="#757575" stroke-width="1.0" stroke-linecap="butt" d="M29.25 530.34735L205.25 530.34735L397.21872 530.34735" fill-rule="nonzero"/><path fill="#9e9e9e" d="M399.21872 530.34735C399.21872 529.2428 398.32327 528.34735 397.21872 528.34735C396.11414 528.34735 395.21872 529.2428 395.21872 530.34735C395.21872 531.4519 396.11414 532.34735 397.21872 532.34735C398.32327 532.34735 399.21872 531.4519 399.21872 530.34735" fill-rule="nonzero"/><path fill="#1a1a1a" d="M844.3281 40.515625L846.5781 40.296875Q846.78125 41.4375 847.40625 41.96875Q848.03125 42.5 849.0781 42.5Q850.2031 42.5 850.7656 42.03125Q851.3281 41.546875 851.3281 40.921875Q851.3281 40.515625 851.09375 40.234375Q850.8594 39.9375 850.2656 39.734375Q849.8594 39.59375 848.40625 39.234375Q846.5469 38.765625 845.7969 38.09375Q844.75 37.15625 844.75 35.796875Q844.75 34.921875 845.2344 34.15625Q845.7344 33.390625 846.6719 33.0Q847.6094 32.59375 848.9219 32.59375Q851.0781 32.59375 852.1719 33.546875Q853.2656 34.484375 853.3125 36.0625L851.0 36.171875Q850.8594 35.28125 850.3594 34.90625Q849.875 34.515625 848.90625 34.515625Q847.8906 34.515625 847.3281 34.921875Q846.9531 35.1875 846.9531 35.640625Q846.9531 36.046875 847.2969 36.328125Q847.7344 36.703125 849.4219 37.109375Q851.1094 37.5 851.9219 37.921875Q852.7344 38.34375 853.1875 39.09375Q853.6406 39.828125 853.6406 40.90625Q853.6406 41.890625 853.09375 42.75Q852.5469 43.609375 851.5469 44.03125Q850.5469 44.453125 849.0625 44.453125Q846.8906 44.453125 845.71875 43.453125Q844.5625 42.4375 844.3281 40.515625ZM860.7031 41.609375L862.8906 41.96875Q862.46875 43.171875 861.5625 43.8125Q860.65625 44.4375 859.28125 44.4375Q857.125 44.4375 856.0781 43.015625Q855.2656 41.890625 855.2656 40.15625Q855.2656 38.09375 856.34375 36.9375Q857.4219 35.765625 859.0625 35.765625Q860.9219 35.765625 861.9844 36.984375Q863.0625 38.203125 863.0156 40.734375L857.5156 40.734375Q857.53125 41.703125 858.03125 42.25Q858.5469 42.796875 859.3125 42.796875Q859.8281 42.796875 860.1719 42.515625Q860.53125 42.234375 860.7031 41.609375ZM860.8281 39.390625Q860.8125 38.4375 860.34375 37.9375Q859.875 37.4375 859.2031 37.4375Q858.4844 37.4375 858.0156 37.96875Q857.5469 38.484375 857.5469 39.390625L860.8281 39.390625ZM869.7031 41.609375L871.8906 41.96875Q871.46875 43.171875 870.5625 43.8125Q869.65625 44.4375 868.28125 44.4375Q866.125 44.4375 865.0781 43.015625Q864.2656 41.890625 864.2656 40.15625Q864.2656 38.09375 865.34375 36.9375Q866.4219 35.765625 868.0625 35.765625Q869.9219 35.765625 870.9844 36.984375Q872.0625 38.203125 872.0156 40.734375L866.5156 40.734375Q866.53125 41.703125 867.03125 42.25Q867.5469 42.796875 868.3125 42.796875Q868.8281 42.796875 869.1719 42.515625Q869.53125 42.234375 869.7031 41.609375ZM869.8281 39.390625Q869.8125 38.4375 869.34375 37.9375Q868.875 37.4375 868.2031 37.4375Q867.4844 37.4375 867.0156 37.96875Q866.5469 38.484375 866.5469 39.390625L869.8281 39.390625ZM881.5156 44.25L879.46875 44.25L879.46875 43.03125Q878.96875 43.734375 878.2656 44.09375Q877.5781 44.4375 876.875 44.4375Q875.4531 44.4375 874.4219 43.28125Q873.40625 42.125 873.40625 40.0625Q873.40625 37.953125 874.3906 36.859375Q875.3906 35.765625 876.90625 35.765625Q878.2969 35.765625 879.3125 36.921875L879.3125 32.796875L881.5156 32.796875L881.5156 44.25ZM875.65625 39.921875Q875.65625 41.25 876.0156 41.84375Q876.5469 42.703125 877.5 42.703125Q878.2656 42.703125 878.7969 42.0625Q879.3281 41.40625 879.3281 40.125Q879.3281 38.703125 878.8125 38.078125Q878.2969 37.4375 877.4844 37.4375Q876.7031 37.4375 876.1719 38.0625Q875.65625 38.6875 875.65625 39.921875ZM887.3281 40.515625L889.5781 40.296875Q889.78125 41.4375 890.40625 41.96875Q891.03125 42.5 892.0781 42.5Q893.2031 42.5 893.7656 42.03125Q894.3281 41.546875 894.3281 40.921875Q894.3281 40.515625 894.09375 40.234375Q893.8594 39.9375 893.2656 39.734375Q892.8594 39.59375 891.40625 39.234375Q889.5469 38.765625 888.7969 38.09375Q887.75 37.15625 887.75 35.796875Q887.75 34.921875 888.2344 34.15625Q888.7344 33.390625 889.6719 33.0Q890.6094 32.59375 891.9219 32.59375Q894.0781 32.59375 895.1719 33.546875Q896.2656 34.484375 896.3125 36.0625L894.0 36.171875Q893.8594 35.28125 893.3594 34.90625Q892.875 34.515625 891.90625 34.515625Q890.8906 34.515625 890.3281 34.921875Q889.9531 35.1875 889.9531 35.640625Q889.9531 36.046875 890.2969 36.328125Q890.7344 36.703125 892.4219 37.109375Q894.1094 37.5 894.9219 37.921875Q895.7344 38.34375 896.1875 39.09375Q896.6406 39.828125 896.6406 40.90625Q896.6406 41.890625 896.09375 42.75Q895.5469 43.609375 894.5469 44.03125Q893.5469 44.453125 892.0625 44.453125Q889.8906 44.453125 888.71875 43.453125Q887.5625 42.4375 887.3281 40.515625ZM900.5469 38.484375L898.5469 38.125Q898.8906 36.921875 899.7031 36.34375Q900.53125 35.765625 902.1406 35.765625Q903.6094 35.765625 904.3281 36.109375Q905.0469 36.453125 905.34375 37.0Q905.6406 37.53125 905.6406 38.953125L905.6094 41.515625Q905.6094 42.609375 905.71875 43.140625Q905.8281 43.65625 906.1094 44.25L903.9375 44.25Q903.8594 44.03125 903.7344 43.59375Q903.6719 43.40625 903.65625 43.34375Q903.09375 43.890625 902.4531 44.171875Q901.8125 44.4375 901.0781 44.4375Q899.7969 44.4375 899.0625 43.75Q898.3281 43.046875 898.3281 41.984375Q898.3281 41.28125 898.65625 40.734375Q899.0 40.171875 899.59375 39.890625Q900.2031 39.59375 901.34375 39.375Q902.8906 39.078125 903.4844 38.828125L903.4844 38.609375Q903.4844 37.984375 903.1719 37.71875Q902.8594 37.4375 901.9844 37.4375Q901.40625 37.4375 901.0781 37.671875Q900.75 37.90625 900.5469 38.484375ZM903.4844 40.265625Q903.0625 40.40625 902.1406 40.609375Q901.2344 40.796875 900.9531 40.984375Q900.5156 41.28125 900.5156 41.75Q900.5156 42.21875 900.8594 42.5625Q901.2031 42.890625 901.7344 42.890625Q902.3281 42.890625 902.875 42.5Q903.2656 42.203125 903.3906 41.765625Q903.4844 41.484375 903.4844 40.703125L903.4844 40.265625ZM907.90625 44.25L907.90625 32.796875L910.09375 32.796875L910.09375 44.25L907.90625 44.25ZM916.7031 41.609375L918.8906 41.96875Q918.46875 43.171875 917.5625 43.8125Q916.65625 44.4375 915.28125 44.4375Q913.125 44.4375 912.0781 43.015625Q911.2656 41.890625 911.2656 40.15625Q911.2656 38.09375 912.34375 36.9375Q913.4219 35.765625 915.0625 35.765625Q916.9219 35.765625 917.9844 36.984375Q919.0625 38.203125 919.0156 40.734375L913.5156 40.734375Q913.53125 41.703125 914.03125 42.25Q914.5469 42.796875 915.3125 42.796875Q915.8281 42.796875 916.1719 42.515625Q916.53125 42.234375 916.7031 41.609375ZM916.8281 39.390625Q916.8125 38.4375 916.34375 37.9375Q915.875 37.4375 915.2031 37.4375Q914.4844 37.4375 914.0156 37.96875Q913.5469 38.484375 913.5469 39.390625L916.8281 39.390625Z" fill-rule="nonzero"/><path fill="#9e9e9e" d="M888.7344 66.25L888.7344 63.9375L884.0469 63.9375L884.0469 62.015625L889.0156 54.75L890.8594 54.75L890.8594 62.015625L892.28125 62.015625L892.28125 63.9375L890.8594 63.9375L890.8594 66.25L888.7344 66.25ZM888.7344 62.015625L888.7344 58.09375L886.1094 62.015625L888.7344 62.015625ZM893.90625 66.25L893.90625 64.046875L896.09375 64.046875L896.09375 66.25L893.90625 66.25ZM897.46875 63.296875L899.65625 63.078125Q899.75 63.8125 900.2031 64.25Q900.6719 64.6875 901.2656 64.6875Q901.9531 64.6875 902.4219 64.125Q902.90625 63.5625 902.90625 62.4375Q902.90625 61.390625 902.4375 60.859375Q901.96875 60.328125 901.2031 60.328125Q900.2656 60.328125 899.5156 61.171875L897.7344 60.90625L898.8594 54.953125L904.65625 54.953125L904.65625 57.0L900.5156 57.0L900.1719 58.953125Q900.90625 58.578125 901.6719 58.578125Q903.1406 58.578125 904.15625 59.640625Q905.1719 60.703125 905.1719 62.40625Q905.1719 63.8125 904.34375 64.921875Q903.2344 66.453125 901.25 66.453125Q899.65625 66.453125 898.65625 65.59375Q897.65625 64.734375 897.46875 63.296875ZM906.4531 57.625Q906.4531 56.078125 907.125 55.34375Q907.7969 54.59375 908.9531 54.59375Q910.15625 54.59375 910.8281 55.34375Q911.5 56.078125 911.5 57.625Q911.5 59.15625 910.8281 59.90625Q910.15625 60.640625 909.0 60.640625Q907.7969 60.640625 907.125 59.90625Q906.4531 59.171875 906.4531 57.625ZM908.15625 57.609375Q908.15625 58.71875 908.4219 59.109375Q908.6094 59.390625 908.9531 59.390625Q909.3125 59.390625 909.5 59.109375Q909.75 58.71875 909.75 57.609375Q909.75 56.484375 909.5 56.109375Q909.3125 55.828125 908.9531 55.828125Q908.6094 55.828125 908.4219 56.109375Q908.15625 56.484375 908.15625 57.609375ZM910.625 66.6875L909.0 66.6875L915.1094 54.59375L916.6875 54.59375L910.625 66.6875ZM914.1719 63.671875Q914.1719 62.140625 914.84375 61.40625Q915.53125 60.65625 916.7031 60.65625Q917.875 60.65625 918.5469 61.40625Q919.2344 62.140625 919.2344 63.671875Q919.2344 65.21875 918.5469 65.96875Q917.875 66.71875 916.71875 66.71875Q915.53125 66.71875 914.84375 65.96875Q914.1719 65.21875 914.1719 63.671875ZM915.8906 63.671875Q915.8906 64.78125 916.1406 65.15625Q916.34375 65.453125 916.6875 65.453125Q917.03125 65.453125 917.21875 65.171875Q917.4844 64.78125 917.4844 63.671875Q917.4844 62.546875 917.2344 62.171875Q917.03125 61.890625 916.6875 61.890625Q916.3281 61.890625 916.1406 62.171875Q915.8906 62.546875 915.8906 63.671875Z" fill-rule="nonzero"/><path stroke="#757575" stroke-width="1.0" stroke-linecap="butt" d="M919.75 49.75L743.75 49.75L509.73764 44.90746" fill-rule="nonzero"/><path fill="#9e9e9e" d="M511.73764 44.90746C511.73764 43.80289 510.8422 42.90746 509.73764 42.90746C508.63306 42.90746 507.73764 43.80289 507.73764 44.90746C507.73764 46.012028 508.63306 46.90746 509.73764 46.90746C510.8422 46.90746 511.73764 46.012028 511.73764 44.90746" fill-rule="nonzero"/><path fill="#1a1a1a" d="M830.9219 118.68798L830.9219 107.234856L834.625 107.234856Q836.7344 107.234856 837.375 107.40673Q838.3594 107.65673 839.0156 108.53173Q839.6875 109.391106 839.6875 110.75048Q839.6875 111.81298 839.2969 112.53173Q838.9219 113.25048 838.3281 113.65673Q837.75 114.06298 837.1406 114.203606Q836.3125 114.359856 834.7344 114.359856L833.2344 114.359856L833.2344 118.68798L830.9219 118.68798ZM833.2344 109.172356L833.2344 112.422356L834.5 112.422356Q835.8594 112.422356 836.3125 112.25048Q836.78125 112.06298 837.0469 111.68798Q837.3125 111.297356 837.3125 110.78173Q837.3125 110.15673 836.9375 109.75048Q836.5781 109.34423 836.0156 109.25048Q835.59375 109.172356 834.34375 109.172356L833.2344 109.172356ZM844.0 118.68798L841.8125 118.68798L841.8125 110.391106L843.84375 110.391106L843.84375 111.56298Q844.375 110.734856 844.78125 110.46923Q845.2031 110.203606 845.7344 110.203606Q846.4844 110.203606 847.1875 110.609856L846.5 112.53173Q845.9531 112.172356 845.46875 112.172356Q845.0156 112.172356 844.6875 112.422356Q844.375 112.672356 844.1875 113.34423Q844.0 114.00048 844.0 116.12548L844.0 118.68798ZM847.90625 109.266106L847.90625 107.234856L850.09375 107.234856L850.09375 109.266106L847.90625 109.266106ZM847.90625 118.68798L847.90625 110.391106L850.09375 110.391106L850.09375 118.68798L847.90625 118.68798ZM854.1875 118.68798L850.84375 110.391106L853.1406 110.391106L854.7031 114.62548L855.15625 116.03173Q855.34375 115.50048 855.3906 115.328606Q855.5 114.96923 855.625 114.62548L857.2031 110.391106L859.4531 110.391106L856.15625 118.68798L854.1875 118.68798ZM862.5469 112.922356L860.5469 112.56298Q860.8906 111.359856 861.7031 110.78173Q862.53125 110.203606 864.1406 110.203606Q865.6094 110.203606 866.3281 110.547356Q867.0469 110.891106 867.34375 111.43798Q867.6406 111.96923 867.6406 113.391106L867.6094 115.953606Q867.6094 117.047356 867.71875 117.578606Q867.8281 118.09423 868.1094 118.68798L865.9375 118.68798Q865.8594 118.46923 865.7344 118.03173Q865.6719 117.84423 865.65625 117.78173Q865.09375 118.328606 864.4531 118.609856Q863.8125 118.87548 863.0781 118.87548Q861.7969 118.87548 861.0625 118.18798Q860.3281 117.484856 860.3281 116.422356Q860.3281 115.71923 860.65625 115.172356Q861.0 114.609856 861.59375 114.328606Q862.2031 114.03173 863.34375 113.81298Q864.8906 113.516106 865.4844 113.266106L865.4844 113.047356Q865.4844 112.422356 865.1719 112.15673Q864.8594 111.87548 863.9844 111.87548Q863.40625 111.87548 863.0781 112.109856Q862.75 112.34423 862.5469 112.922356ZM865.4844 114.703606Q865.0625 114.84423 864.1406 115.047356Q863.2344 115.234856 862.9531 115.422356Q862.5156 115.71923 862.5156 116.18798Q862.5156 116.65673 862.8594 117.00048Q863.2031 117.328606 863.7344 117.328606Q864.3281 117.328606 864.875 116.93798Q865.2656 116.641106 865.3906 116.203606Q865.4844 115.922356 865.4844 115.141106L865.4844 114.703606ZM873.7031 110.391106L873.7031 112.141106L872.2031 112.141106L872.2031 115.484856Q872.2031 116.50048 872.25 116.672356Q872.2969 116.828606 872.4375 116.93798Q872.59375 117.047356 872.8125 117.047356Q873.125 117.047356 873.7031 116.84423L873.8906 118.547356Q873.125 118.87548 872.15625 118.87548Q871.5625 118.87548 871.0781 118.672356Q870.6094 118.46923 870.375 118.15673Q870.15625 117.84423 870.0781 117.297356Q870.0 116.922356 870.0 115.75048L870.0 112.141106L869.0 112.141106L869.0 110.391106L870.0 110.391106L870.0 108.734856L872.2031 107.453606L872.2031 110.391106L873.7031 110.391106ZM879.7031 116.047356L881.8906 116.40673Q881.46875 117.609856 880.5625 118.25048Q879.65625 118.87548 878.28125 118.87548Q876.125 118.87548 875.0781 117.453606Q874.2656 116.328606 874.2656 114.59423Q874.2656 112.53173 875.34375 111.37548Q876.4219 110.203606 878.0625 110.203606Q879.9219 110.203606 880.9844 111.422356Q882.0625 112.641106 882.0156 115.172356L876.5156 115.172356Q876.53125 116.141106 877.03125 116.68798Q877.5469 117.234856 878.3125 117.234856Q878.8281 117.234856 879.1719 116.953606Q879.53125 116.672356 879.7031 116.047356ZM879.8281 113.828606Q879.8125 112.87548 879.34375 112.37548Q878.875 111.87548 878.2031 111.87548Q877.4844 111.87548 877.0156 112.40673Q876.5469 112.922356 876.5469 113.828606L879.8281 113.828606ZM887.3281 114.953606L889.5781 114.734856Q889.78125 115.87548 890.40625 116.40673Q891.03125 116.93798 892.0781 116.93798Q893.2031 116.93798 893.7656 116.46923Q894.3281 115.984856 894.3281 115.359856Q894.3281 114.953606 894.09375 114.672356Q893.8594 114.37548 893.2656 114.172356Q892.8594 114.03173 891.40625 113.672356Q889.5469 113.203606 888.7969 112.53173Q887.75 111.59423 887.75 110.234856Q887.75 109.359856 888.2344 108.59423Q888.7344 107.828606 889.6719 107.43798Q890.6094 107.03173 891.9219 107.03173Q894.0781 107.03173 895.1719 107.984856Q896.2656 108.922356 896.3125 110.50048L894.0 110.609856Q893.8594 109.71923 893.3594 109.34423Q892.875 108.953606 891.90625 108.953606Q890.8906 108.953606 890.3281 109.359856Q889.9531 109.62548 889.9531 110.078606Q889.9531 110.484856 890.2969 110.766106Q890.7344 111.141106 892.4219 111.547356Q894.1094 111.93798 894.9219 112.359856Q895.7344 112.78173 896.1875 113.53173Q896.6406 114.266106 896.6406 115.34423Q896.6406 116.328606 896.09375 117.18798Q895.5469 118.047356 894.5469 118.46923Q893.5469 118.891106 892.0625 118.891106Q889.8906 118.891106 888.71875 117.891106Q887.5625 116.87548 887.3281 114.953606ZM900.5469 112.922356L898.5469 112.56298Q898.8906 111.359856 899.7031 110.78173Q900.53125 110.203606 902.1406 110.203606Q903.6094 110.203606 904.3281 110.547356Q905.0469 110.891106 905.34375 111.43798Q905.6406 111.96923 905.6406 113.391106L905.6094 115.953606Q905.6094 117.047356 905.71875 117.578606Q905.8281 118.09423 906.1094 118.68798L903.9375 118.68798Q903.8594 118.46923 903.7344 118.03173Q903.6719 117.84423 903.65625 117.78173Q903.09375 118.328606 902.4531 118.609856Q901.8125 118.87548 901.0781 118.87548Q899.7969 118.87548 899.0625 118.18798Q898.3281 117.484856 898.3281 116.422356Q898.3281 115.71923 898.65625 115.172356Q899.0 114.609856 899.59375 114.328606Q900.2031 114.03173 901.34375 113.81298Q902.8906 113.516106 903.4844 113.266106L903.4844 113.047356Q903.4844 112.422356 903.1719 112.15673Q902.8594 111.87548 901.9844 111.87548Q901.40625 111.87548 901.0781 112.109856Q900.75 112.34423 900.5469 112.922356ZM903.4844 114.703606Q903.0625 114.84423 902.1406 115.047356Q901.2344 115.234856 900.9531 115.422356Q900.5156 115.71923 900.5156 116.18798Q900.5156 116.65673 900.8594 117.00048Q901.2031 117.328606 901.7344 117.328606Q902.3281 117.328606 902.875 116.93798Q903.2656 116.641106 903.3906 116.203606Q903.4844 115.922356 903.4844 115.141106L903.4844 114.703606ZM907.90625 118.68798L907.90625 107.234856L910.09375 107.234856L910.09375 118.68798L907.90625 118.68798ZM916.7031 116.047356L918.8906 116.40673Q918.46875 117.609856 917.5625 118.25048Q916.65625 118.87548 915.28125 118.87548Q913.125 118.87548 912.0781 117.453606Q911.2656 116.328606 911.2656 114.59423Q911.2656 112.53173 912.34375 111.37548Q913.4219 110.203606 915.0625 110.203606Q916.9219 110.203606 917.9844 111.422356Q919.0625 112.641106 919.0156 115.172356L913.5156 115.172356Q913.53125 116.141106 914.03125 116.68798Q914.5469 117.234856 915.3125 117.234856Q915.8281 117.234856 916.1719 116.953606Q916.53125 116.672356 916.7031 116.047356ZM916.8281 113.828606Q916.8125 112.87548 916.34375 112.37548Q915.875 111.87548 915.2031 111.87548Q914.4844 111.87548 914.0156 112.40673Q913.5469 112.922356 913.5469 113.828606L916.8281 113.828606Z" fill-rule="nonzero"/><path fill="#9e9e9e" d="M881.0469 140.68799L878.8594 140.68799L878.8594 132.40674Q877.65625 133.53174 876.0156 134.07861L876.0156 132.07861Q876.875 131.79736 877.875 131.01611Q878.8906 130.23486 879.2656 129.18799L881.0469 129.18799L881.0469 140.68799ZM884.4375 131.42236L884.4375 129.39111L891.9375 129.39111L891.9375 130.98486Q891.0156 131.89111 890.0469 133.60986Q889.09375 135.31299 888.5781 137.25049Q888.0781 139.17236 888.09375 140.68799L885.96875 140.68799Q886.03125 138.31299 886.9531 135.84424Q887.875 133.37549 889.4219 131.42236L884.4375 131.42236ZM893.90625 140.68799L893.90625 138.48486L896.09375 138.48486L896.09375 140.68799L893.90625 140.68799ZM897.46875 137.73486L899.65625 137.51611Q899.75 138.25049 900.2031 138.68799Q900.6719 139.12549 901.2656 139.12549Q901.9531 139.12549 902.4219 138.56299Q902.90625 138.00049 902.90625 136.87549Q902.90625 135.82861 902.4375 135.29736Q901.96875 134.76611 901.2031 134.76611Q900.2656 134.76611 899.5156 135.60986L897.7344 135.34424L898.8594 129.39111L904.65625 129.39111L904.65625 131.43799L900.5156 131.43799L900.1719 133.39111Q900.90625 133.01611 901.6719 133.01611Q903.1406 133.01611 904.15625 134.07861Q905.1719 135.14111 905.1719 136.84424Q905.1719 138.25049 904.34375 139.35986Q903.2344 140.89111 901.25 140.89111Q899.65625 140.89111 898.65625 140.03174Q897.65625 139.17236 897.46875 137.73486ZM906.4531 132.06299Q906.4531 130.51611 907.125 129.78174Q907.7969 129.03174 908.9531 129.03174Q910.15625 129.03174 910.8281 129.78174Q911.5 130.51611 911.5 132.06299Q911.5 133.59424 910.8281 134.34424Q910.15625 135.07861 909.0 135.07861Q907.7969 135.07861 907.125 134.34424Q906.4531 133.60986 906.4531 132.06299ZM908.15625 132.04736Q908.15625 133.15674 908.4219 133.54736Q908.6094 133.82861 908.9531 133.82861Q909.3125 133.82861 909.5 133.54736Q909.75 133.15674 909.75 132.04736Q909.75 130.92236 909.5 130.54736Q909.3125 130.26611 908.9531 130.26611Q908.6094 130.26611 908.4219 130.54736Q908.15625 130.92236 908.15625 132.04736ZM910.625 141.12549L909.0 141.12549L915.1094 129.03174L916.6875 129.03174L910.625 141.12549ZM914.1719 138.10986Q914.1719 136.57861 914.84375 135.84424Q915.53125 135.09424 916.7031 135.09424Q917.875 135.09424 918.5469 135.84424Q919.2344 136.57861 919.2344 138.10986Q919.2344 139.65674 918.5469 140.40674Q917.875 141.15674 916.71875 141.15674Q915.53125 141.15674 914.84375 140.40674Q914.1719 139.65674 914.1719 138.10986ZM915.8906 138.10986Q915.8906 139.21924 916.1406 139.59424Q916.34375 139.89111 916.6875 139.89111Q917.03125 139.89111 917.21875 139.60986Q917.4844 139.21924 917.4844 138.10986Q917.4844 136.98486 917.2344 136.60986Q917.03125 136.32861 916.6875 136.32861Q916.3281 136.32861 916.1406 136.60986Q915.8906 136.98486 915.8906 138.10986Z" fill-rule="nonzero"/><path stroke="#757575" stroke-width="1.0" stroke-linecap="butt" d="M919.75 124.18798L743.75 124.18798L659.4725 124.18798" fill-rule="nonzero"/><path fill="#9e9e9e" d="M661.4725 124.18798C661.4725 123.08341 660.5771 122.18798 659.4725 122.18798C658.3679 122.18798 657.4725 123.08341 657.4725 124.18798C657.4725 125.29255 658.3679 126.18798 659.4725 126.18798C660.5771 126.18798 661.4725 125.29255 661.4725 124.18798" fill-rule="nonzero"/><path fill="#1a1a1a" d="M835.9219 247.8777L835.9219 236.42458L839.625 236.42458Q841.7344 236.42458 842.375 236.59645Q843.3594 236.84645 844.0156 237.72145Q844.6875 238.58083 844.6875 239.9402Q844.6875 241.0027 844.2969 241.72145Q843.9219 242.4402 843.3281 242.84645Q842.75 243.2527 842.1406 243.39333Q841.3125 243.54958 839.7344 243.54958L838.2344 243.54958L838.2344 247.8777L835.9219 247.8777ZM838.2344 238.36208L838.2344 241.61208L839.5 241.61208Q840.8594 241.61208 841.3125 241.4402Q841.78125 241.2527 842.0469 240.8777Q842.3125 240.48708 842.3125 239.97145Q842.3125 239.34645 841.9375 238.9402Q841.5781 238.53395 841.0156 238.4402Q840.59375 238.36208 839.34375 238.36208L838.2344 238.36208ZM852.3594 247.8777L852.3594 246.6277Q851.90625 247.29958 851.1719 247.6902Q850.4375 248.0652 849.6094 248.0652Q848.78125 248.0652 848.1094 247.70583Q847.4531 247.33083 847.15625 246.67458Q846.8594 246.0027 846.8594 244.83083L846.8594 239.58083L849.0469 239.58083L849.0469 243.39333Q849.0469 245.14333 849.1719 245.53395Q849.2969 245.92458 849.6094 246.15895Q849.9375 246.39333 850.4219 246.39333Q850.9844 246.39333 851.4219 246.08083Q851.875 245.76833 852.03125 245.3152Q852.2031 244.86208 852.2031 243.08083L852.2031 239.58083L854.40625 239.58083L854.40625 247.8777L852.3594 247.8777ZM856.8125 247.8777L856.8125 236.42458L859.0 236.42458L859.0 240.54958Q860.0156 239.39333 861.40625 239.39333Q862.9219 239.39333 863.90625 240.48708Q864.90625 241.58083 864.90625 243.64333Q864.90625 245.76833 863.8906 246.92458Q862.8906 248.0652 861.4375 248.0652Q860.7344 248.0652 860.03125 247.70583Q859.34375 247.34645 858.84375 246.65895L858.84375 247.8777L856.8125 247.8777ZM858.9844 243.54958Q858.9844 244.83083 859.3906 245.45583Q859.96875 246.33083 860.90625 246.33083Q861.6406 246.33083 862.1406 245.70583Q862.65625 245.08083 862.65625 243.7527Q862.65625 242.33083 862.1406 241.70583Q861.625 241.0652 860.8281 241.0652Q860.03125 241.0652 859.5 241.6902Q858.9844 242.29958 858.9844 243.54958ZM866.90625 247.8777L866.90625 236.42458L869.09375 236.42458L869.09375 247.8777L866.90625 247.8777ZM870.90625 238.45583L870.90625 236.42458L873.09375 236.42458L873.09375 238.45583L870.90625 238.45583ZM870.90625 247.8777L870.90625 239.58083L873.09375 239.58083L873.09375 247.8777L870.90625 247.8777ZM882.1406 242.03395L879.96875 242.42458Q879.8594 241.76833 879.46875 241.4402Q879.09375 241.11208 878.46875 241.11208Q877.65625 241.11208 877.15625 241.6902Q876.6719 242.2527 876.6719 243.58083Q876.6719 245.04958 877.1719 245.65895Q877.6719 246.26833 878.5 246.26833Q879.125 246.26833 879.5156 245.92458Q879.9219 245.5652 880.09375 244.6902L882.25 245.0652Q881.90625 246.54958 880.9531 247.3152Q880.0 248.0652 878.40625 248.0652Q876.5781 248.0652 875.5 246.92458Q874.4219 245.76833 874.4219 243.73708Q874.4219 241.67458 875.5 240.53395Q876.59375 239.39333 878.4375 239.39333Q879.9531 239.39333 880.84375 240.04958Q881.75 240.6902 882.1406 242.03395ZM887.3281 244.14333L889.5781 243.92458Q889.78125 245.0652 890.40625 245.59645Q891.03125 246.1277 892.0781 246.1277Q893.2031 246.1277 893.7656 245.65895Q894.3281 245.17458 894.3281 244.54958Q894.3281 244.14333 894.09375 243.86208Q893.8594 243.5652 893.2656 243.36208Q892.8594 243.22145 891.40625 242.86208Q889.5469 242.39333 888.7969 241.72145Q887.75 240.78395 887.75 239.42458Q887.75 238.54958 888.2344 237.78395Q888.7344 237.01833 889.6719 236.6277Q890.6094 236.22145 891.9219 236.22145Q894.0781 236.22145 895.1719 237.17458Q896.2656 238.11208 896.3125 239.6902L894.0 239.79958Q893.8594 238.90895 893.3594 238.53395Q892.875 238.14333 891.90625 238.14333Q890.8906 238.14333 890.3281 238.54958Q889.9531 238.8152 889.9531 239.26833Q889.9531 239.67458 890.2969 239.95583Q890.7344 240.33083 892.4219 240.73708Q894.1094 241.1277 894.9219 241.54958Q895.7344 241.97145 896.1875 242.72145Q896.6406 243.45583 896.6406 244.53395Q896.6406 245.51833 896.09375 246.3777Q895.5469 247.23708 894.5469 247.65895Q893.5469 248.08083 892.0625 248.08083Q889.8906 248.08083 888.71875 247.08083Q887.5625 246.0652 887.3281 244.14333ZM900.5469 242.11208L898.5469 241.7527Q898.8906 240.54958 899.7031 239.97145Q900.53125 239.39333 902.1406 239.39333Q903.6094 239.39333 904.3281 239.73708Q905.0469 240.08083 905.34375 240.6277Q905.6406 241.15895 905.6406 242.58083L905.6094 245.14333Q905.6094 246.23708 905.71875 246.76833Q905.8281 247.28395 906.1094 247.8777L903.9375 247.8777Q903.8594 247.65895 903.7344 247.22145Q903.6719 247.03395 903.65625 246.97145Q903.09375 247.51833 902.4531 247.79958Q901.8125 248.0652 901.0781 248.0652Q899.7969 248.0652 899.0625 247.3777Q898.3281 246.67458 898.3281 245.61208Q898.3281 244.90895 898.65625 244.36208Q899.0 243.79958 899.59375 243.51833Q900.2031 243.22145 901.34375 243.0027Q902.8906 242.70583 903.4844 242.45583L903.4844 242.23708Q903.4844 241.61208 903.1719 241.34645Q902.8594 241.0652 901.9844 241.0652Q901.40625 241.0652 901.0781 241.29958Q900.75 241.53395 900.5469 242.11208ZM903.4844 243.89333Q903.0625 244.03395 902.1406 244.23708Q901.2344 244.42458 900.9531 244.61208Q900.5156 244.90895 900.5156 245.3777Q900.5156 245.84645 900.8594 246.1902Q901.2031 246.51833 901.7344 246.51833Q902.3281 246.51833 902.875 246.1277Q903.2656 245.83083 903.3906 245.39333Q903.4844 245.11208 903.4844 244.33083L903.4844 243.89333ZM907.90625 247.8777L907.90625 236.42458L910.09375 236.42458L910.09375 247.8777L907.90625 247.8777ZM916.7031 245.23708L918.8906 245.59645Q918.46875 246.79958 917.5625 247.4402Q916.65625 248.0652 915.28125 248.0652Q913.125 248.0652 912.0781 246.64333Q911.2656 245.51833 911.2656 243.78395Q911.2656 241.72145 912.34375 240.5652Q913.4219 239.39333 915.0625 239.39333Q916.9219 239.39333 917.9844 240.61208Q919.0625 241.83083 919.0156 244.36208L913.5156 244.36208Q913.53125 245.33083 914.03125 245.8777Q914.5469 246.42458 915.3125 246.42458Q915.8281 246.42458 916.1719 246.14333Q916.53125 245.86208 916.7031 245.23708ZM916.8281 243.01833Q916.8125 242.0652 916.34375 241.5652Q915.875 241.0652 915.2031 241.0652Q914.4844 241.0652 914.0156 241.59645Q913.5469 242.11208 913.5469 243.01833L916.8281 243.01833Z" fill-rule="nonzero"/><path fill="#9e9e9e" d="M890.0469 269.8777L887.8594 269.8777L887.8594 261.59644Q886.65625 262.72144 885.0156 263.2683L885.0156 261.2683Q885.875 260.98706 886.875 260.2058Q887.8906 259.42456 888.2656 258.3777L890.0469 258.3777L890.0469 269.8777ZM893.90625 269.8777L893.90625 267.67456L896.09375 267.67456L896.09375 269.8777L893.90625 269.8777ZM901.1406 258.3777Q902.8125 258.3777 903.75 259.5652Q904.8594 260.97144 904.8594 264.22144Q904.8594 267.47144 903.7344 268.8933Q902.8125 270.0808 901.1406 270.0808Q899.46875 270.0808 898.4375 268.79956Q897.4219 267.5027 897.4219 264.2058Q897.4219 260.97144 898.5469 259.54956Q899.4844 258.3777 901.1406 258.3777ZM901.1406 260.1902Q900.75 260.1902 900.4375 260.4558Q900.125 260.7058 899.9531 261.36206Q899.71875 262.2058 899.71875 264.22144Q899.71875 266.23706 899.9219 267.0027Q900.125 267.7527 900.4375 268.0027Q900.75 268.2527 901.1406 268.2527Q901.5469 268.2527 901.8594 268.0027Q902.1719 267.73706 902.34375 267.0808Q902.5625 266.23706 902.5625 264.22144Q902.5625 262.2058 902.3594 261.4558Q902.15625 260.7058 901.84375 260.4558Q901.5469 260.1902 901.1406 260.1902ZM906.4531 261.2527Q906.4531 259.7058 907.125 258.97144Q907.7969 258.22144 908.9531 258.22144Q910.15625 258.22144 910.8281 258.97144Q911.5 259.7058 911.5 261.2527Q911.5 262.78394 910.8281 263.53394Q910.15625 264.2683 909.0 264.2683Q907.7969 264.2683 907.125 263.53394Q906.4531 262.79956 906.4531 261.2527ZM908.15625 261.23706Q908.15625 262.34644 908.4219 262.73706Q908.6094 263.0183 908.9531 263.0183Q909.3125 263.0183 909.5 262.73706Q909.75 262.34644 909.75 261.23706Q909.75 260.11206 909.5 259.73706Q909.3125 259.4558 908.9531 259.4558Q908.6094 259.4558 908.4219 259.73706Q908.15625 260.11206 908.15625 261.23706ZM910.625 270.3152L909.0 270.3152L915.1094 258.22144L916.6875 258.22144L910.625 270.3152ZM914.1719 267.29956Q914.1719 265.7683 914.84375 265.03394Q915.53125 264.28394 916.7031 264.28394Q917.875 264.28394 918.5469 265.03394Q919.2344 265.7683 919.2344 267.29956Q919.2344 268.84644 918.5469 269.59644Q917.875 270.34644 916.71875 270.34644Q915.53125 270.34644 914.84375 269.59644Q914.1719 268.84644 914.1719 267.29956ZM915.8906 267.29956Q915.8906 268.40894 916.1406 268.78394Q916.34375 269.0808 916.6875 269.0808Q917.03125 269.0808 917.21875 268.79956Q917.4844 268.40894 917.4844 267.29956Q917.4844 266.17456 917.2344 265.79956Q917.03125 265.5183 916.6875 265.5183Q916.3281 265.5183 916.1406 265.79956Q915.8906 266.17456 915.8906 267.29956Z" fill-rule="nonzero"/><path stroke="#757575" stroke-width="1.0" stroke-linecap="butt" d="M919.75 253.3777L743.75 253.3777L721.5085 253.3777" fill-rule="nonzero"/><path fill="#9e9e9e" d="M723.5085 253.3777C723.5085 252.27313 722.6131 251.3777 721.5085 251.3777C720.40393 251.3777 719.5085 252.27313 719.5085 253.3777C719.5085 254.48227 720.40393 255.3777 721.5085 255.3777C722.6131 255.3777 723.5085 254.48227 723.5085 253.3777" fill-rule="nonzero"/><path fill="#1a1a1a" d="M792.5 414.3049L792.5 404.78928L789.09375 404.78928L789.09375 402.85178L798.2031 402.85178L798.2031 404.78928L794.8125 404.78928L794.8125 414.3049L792.5 414.3049ZM804.7031 411.66428L806.8906 412.02365Q806.46875 413.22678 805.5625 413.8674Q804.65625 414.4924 803.28125 414.4924Q801.125 414.4924 800.0781 413.07053Q799.2656 411.94553 799.2656 410.21115Q799.2656 408.14865 800.34375 406.9924Q801.4219 405.82053 803.0625 405.82053Q804.9219 405.82053 805.9844 407.03928Q807.0625 408.25803 807.0156 410.78928L801.5156 410.78928Q801.53125 411.75803 802.03125 412.3049Q802.5469 412.85178 803.3125 412.85178Q803.8281 412.85178 804.1719 412.57053Q804.53125 412.28928 804.7031 411.66428ZM804.8281 409.44553Q804.8125 408.4924 804.34375 407.9924Q803.875 407.4924 803.2031 407.4924Q802.4844 407.4924 802.0156 408.02365Q801.5469 408.53928 801.5469 409.44553L804.8281 409.44553ZM810.5469 408.53928L808.5469 408.1799Q808.8906 406.97678 809.7031 406.39865Q810.53125 405.82053 812.1406 405.82053Q813.6094 405.82053 814.3281 406.16428Q815.0469 406.50803 815.34375 407.0549Q815.6406 407.58615 815.6406 409.00803L815.6094 411.57053Q815.6094 412.66428 815.71875 413.19553Q815.8281 413.71115 816.1094 414.3049L813.9375 414.3049Q813.8594 414.08615 813.7344 413.64865Q813.6719 413.46115 813.65625 413.39865Q813.09375 413.94553 812.4531 414.22678Q811.8125 414.4924 811.0781 414.4924Q809.7969 414.4924 809.0625 413.8049Q808.3281 413.10178 808.3281 412.03928Q808.3281 411.33615 808.65625 410.78928Q809.0 410.22678 809.59375 409.94553Q810.2031 409.64865 811.34375 409.4299Q812.8906 409.13303 813.4844 408.88303L813.4844 408.66428Q813.4844 408.03928 813.1719 407.77365Q812.8594 407.4924 811.9844 407.4924Q811.40625 407.4924 811.0781 407.72678Q810.75 407.96115 810.5469 408.53928ZM813.4844 410.32053Q813.0625 410.46115 812.1406 410.66428Q811.2344 410.85178 810.9531 411.03928Q810.5156 411.33615 810.5156 411.8049Q810.5156 412.27365 810.8594 412.6174Q811.2031 412.94553 811.7344 412.94553Q812.3281 412.94553 812.875 412.5549Q813.2656 412.25803 813.3906 411.82053Q813.4844 411.53928 813.4844 410.75803L813.4844 410.32053ZM817.7344 406.00803L819.7656 406.00803L819.7656 407.13303Q820.84375 405.82053 822.34375 405.82053Q823.1406 405.82053 823.71875 406.14865Q824.3125 406.47678 824.6875 407.13303Q825.2344 406.47678 825.8594 406.14865Q826.5 405.82053 827.21875 405.82053Q828.1406 405.82053 828.7656 406.19553Q829.40625 406.5549 829.71875 407.27365Q829.9375 407.8049 829.9375 408.9924L829.9375 414.3049L827.75 414.3049L827.75 409.5549Q827.75 408.32053 827.5156 407.96115Q827.21875 407.4924 826.5781 407.4924Q826.125 407.4924 825.71875 407.77365Q825.3125 408.0549 825.125 408.60178Q824.9531 409.14865 824.9531 410.32053L824.9531 414.3049L822.75 414.3049L822.75 409.75803Q822.75 408.53928 822.625 408.19553Q822.5156 407.83615 822.2656 407.66428Q822.03125 407.4924 821.6094 407.4924Q821.09375 407.4924 820.6875 407.77365Q820.28125 408.03928 820.1094 408.5549Q819.9375 409.07053 819.9375 410.27365L819.9375 414.3049L817.7344 414.3049L817.7344 406.00803ZM846.0469 412.89865L844.71875 414.60178Q843.75 414.1174 842.84375 413.28928Q842.15625 413.91428 841.375 414.21115Q840.59375 414.50803 839.5156 414.50803Q837.375 414.50803 836.2969 413.3049Q835.4531 412.3674 835.4531 411.16428Q835.4531 410.0549 836.1094 409.1799Q836.7656 408.3049 838.0781 407.64865Q837.4844 406.96115 837.1875 406.33615Q836.8906 405.69553 836.8906 405.13303Q836.8906 404.10178 837.71875 403.38303Q838.5625 402.64865 840.09375 402.64865Q841.5781 402.64865 842.40625 403.41428Q843.25 404.16428 843.25 405.25803Q843.25 405.96115 842.8281 406.58615Q842.4219 407.21115 841.1719 407.9924L842.7656 410.10178Q843.0469 409.60178 843.25 408.78928L845.2344 409.2424Q844.9375 410.3049 844.71875 410.78928Q844.5 411.27365 844.25 411.60178Q844.6094 411.94553 845.1875 412.3674Q845.78125 412.77365 846.0469 412.89865ZM840.0781 406.6799L840.6719 406.22678Q841.3281 405.71115 841.3281 405.21115Q841.3281 404.78928 841.0 404.4924Q840.6875 404.19553 840.15625 404.19553Q839.625 404.19553 839.3281 404.46115Q839.03125 404.72678 839.03125 405.07053Q839.03125 405.47678 839.53125 406.0549L840.0781 406.6799ZM839.21875 409.0549Q838.4531 409.44553 838.0781 409.9924Q837.7031 410.52365 837.7031 411.08615Q837.7031 411.78928 838.1719 412.2424Q838.6406 412.69553 839.4219 412.69553Q839.9375 412.69553 840.40625 412.4924Q840.8906 412.28928 841.4531 411.82053L839.21875 409.0549ZM862.25 414.3049L859.7344 414.3049L858.7344 411.69553L854.15625 411.69553L853.2031 414.3049L850.75 414.3049L855.21875 402.85178L857.65625 402.85178L862.25 414.3049ZM857.9844 409.77365L856.40625 405.52365L854.8594 409.77365L857.9844 409.77365ZM871.5156 414.3049L869.46875 414.3049L869.46875 413.08615Q868.96875 413.78928 868.2656 414.14865Q867.5781 414.4924 866.875 414.4924Q865.4531 414.4924 864.4219 413.33615Q863.40625 412.1799 863.40625 410.1174Q863.40625 408.00803 864.3906 406.91428Q865.3906 405.82053 866.90625 405.82053Q868.2969 405.82053 869.3125 406.97678L869.3125 402.85178L871.5156 402.85178L871.5156 414.3049ZM865.65625 409.97678Q865.65625 411.3049 866.0156 411.89865Q866.5469 412.75803 867.5 412.75803Q868.2656 412.75803 868.7969 412.1174Q869.3281 411.46115 869.3281 410.1799Q869.3281 408.75803 868.8125 408.13303Q868.2969 407.4924 867.4844 407.4924Q866.7031 407.4924 866.1719 408.1174Q865.65625 408.7424 865.65625 409.97678ZM876.1875 414.3049L872.84375 406.00803L875.1406 406.00803L876.7031 410.2424L877.15625 411.64865Q877.34375 411.1174 877.3906 410.94553Q877.5 410.58615 877.625 410.2424L879.2031 406.00803L881.4531 406.00803L878.15625 414.3049L876.1875 414.3049ZM882.90625 404.88303L882.90625 402.85178L885.09375 402.85178L885.09375 404.88303L882.90625 404.88303ZM882.90625 414.3049L882.90625 406.00803L885.09375 406.00803L885.09375 414.3049L882.90625 414.3049ZM886.125 411.9299L888.3281 411.60178Q888.46875 412.2424 888.8906 412.57053Q889.3281 412.89865 890.1094 412.89865Q890.9531 412.89865 891.3906 412.58615Q891.6719 412.3674 891.6719 412.00803Q891.6719 411.75803 891.5156 411.58615Q891.3594 411.4299 890.78125 411.3049Q888.125 410.71115 887.4219 410.22678Q886.4375 409.5549 886.4375 408.3674Q886.4375 407.28928 887.28125 406.5549Q888.1406 405.82053 889.9219 405.82053Q891.625 405.82053 892.4531 406.38303Q893.28125 406.9299 893.59375 408.00803L891.53125 408.39865Q891.3906 407.91428 891.0156 407.66428Q890.65625 407.39865 889.96875 407.39865Q889.09375 407.39865 888.71875 407.63303Q888.46875 407.8049 888.46875 408.08615Q888.46875 408.32053 888.6875 408.47678Q888.9844 408.69553 890.7344 409.10178Q892.5 409.4924 893.1875 410.07053Q893.875 410.66428 893.875 411.71115Q893.875 412.85178 892.9219 413.6799Q891.96875 414.4924 890.1094 414.4924Q888.40625 414.4924 887.4219 413.8049Q886.4375 413.1174 886.125 411.9299ZM895.3906 410.03928Q895.3906 408.94553 895.9219 407.9299Q896.46875 406.89865 897.4531 406.3674Q898.4531 405.82053 899.6719 405.82053Q901.5469 405.82053 902.75 407.03928Q903.9531 408.25803 903.9531 410.13303Q903.9531 412.00803 902.7344 413.25803Q901.53125 414.4924 899.6875 414.4924Q898.5469 414.4924 897.5 413.97678Q896.46875 413.46115 895.9219 412.46115Q895.3906 411.46115 895.3906 410.03928ZM897.6406 410.14865Q897.6406 411.38303 898.21875 412.03928Q898.8125 412.69553 899.6719 412.69553Q900.53125 412.69553 901.1094 412.03928Q901.7031 411.38303 901.7031 410.13303Q901.7031 408.91428 901.1094 408.25803Q900.53125 407.60178 899.6719 407.60178Q898.8125 407.60178 898.21875 408.25803Q897.6406 408.91428 897.6406 410.14865ZM908.0 414.3049L905.8125 414.3049L905.8125 406.00803L907.84375 406.00803L907.84375 407.1799Q908.375 406.35178 908.78125 406.08615Q909.2031 405.82053 909.7344 405.82053Q910.4844 405.82053 911.1875 406.22678L910.5 408.14865Q909.9531 407.78928 909.46875 407.78928Q909.0156 407.78928 908.6875 408.03928Q908.375 408.28928 908.1875 408.96115Q908.0 409.6174 908.0 411.7424L908.0 414.3049ZM911.125 411.9299L913.3281 411.60178Q913.46875 412.2424 913.8906 412.57053Q914.3281 412.89865 915.1094 412.89865Q915.9531 412.89865 916.3906 412.58615Q916.6719 412.3674 916.6719 412.00803Q916.6719 411.75803 916.5156 411.58615Q916.3594 411.4299 915.78125 411.3049Q913.125 410.71115 912.4219 410.22678Q911.4375 409.5549 911.4375 408.3674Q911.4375 407.28928 912.28125 406.5549Q913.1406 405.82053 914.9219 405.82053Q916.625 405.82053 917.4531 406.38303Q918.28125 406.9299 918.59375 408.00803L916.53125 408.39865Q916.3906 407.91428 916.0156 407.66428Q915.65625 407.39865 914.96875 407.39865Q914.09375 407.39865 913.71875 407.63303Q913.46875 407.8049 913.46875 408.08615Q913.46875 408.32053 913.6875 408.47678Q913.9844 408.69553 915.7344 409.10178Q917.5 409.4924 918.1875 410.07053Q918.875 410.66428 918.875 411.71115Q918.875 412.85178 917.9219 413.6799Q916.96875 414.4924 915.1094 414.4924Q913.40625 414.4924 912.4219 413.8049Q911.4375 413.1174 911.125 411.9299Z" fill-rule="nonzero"/><path fill="#9e9e9e" d="M882.84375 434.25803L882.84375 436.3049L875.15625 436.3049Q875.28125 435.14865 875.90625 434.1174Q876.53125 433.07053 878.375 431.3674Q879.8594 429.97678 880.1875 429.4924Q880.6406 428.8049 880.6406 428.14865Q880.6406 427.41428 880.25 427.02365Q879.8594 426.6174 879.15625 426.6174Q878.46875 426.6174 878.0625 427.03928Q877.65625 427.44553 877.59375 428.41428L875.40625 428.19553Q875.6094 426.38303 876.6406 425.60178Q877.6719 424.8049 879.21875 424.8049Q880.90625 424.8049 881.875 425.72678Q882.84375 426.63303 882.84375 427.9924Q882.84375 428.75803 882.5625 429.46115Q882.2969 430.16428 881.6875 430.9299Q881.2969 431.4299 880.25 432.38303Q879.21875 433.33615 878.9375 433.64865Q878.65625 433.96115 878.4844 434.25803L882.84375 434.25803ZM890.0469 436.3049L887.8594 436.3049L887.8594 428.02365Q886.65625 429.14865 885.0156 429.69553L885.0156 427.69553Q885.875 427.41428 886.875 426.63303Q887.8906 425.85178 888.2656 424.8049L890.0469 424.8049L890.0469 436.3049ZM893.90625 436.3049L893.90625 434.10178L896.09375 434.10178L896.09375 436.3049L893.90625 436.3049ZM901.1406 424.8049Q902.8125 424.8049 903.75 425.9924Q904.8594 427.39865 904.8594 430.64865Q904.8594 433.89865 903.7344 435.32053Q902.8125 436.50803 901.1406 436.50803Q899.46875 436.50803 898.4375 435.22678Q897.4219 433.9299 897.4219 430.63303Q897.4219 427.39865 898.5469 425.97678Q899.4844 424.8049 901.1406 424.8049ZM901.1406 426.6174Q900.75 426.6174 900.4375 426.88303Q900.125 427.13303 899.9531 427.78928Q899.71875 428.63303 899.71875 430.64865Q899.71875 432.66428 899.9219 433.4299Q900.125 434.1799 900.4375 434.4299Q900.75 434.6799 901.1406 434.6799Q901.5469 434.6799 901.8594 434.4299Q902.1719 434.16428 902.34375 433.50803Q902.5625 432.66428 902.5625 430.64865Q902.5625 428.63303 902.3594 427.88303Q902.15625 427.13303 901.84375 426.88303Q901.5469 426.6174 901.1406 426.6174ZM906.4531 427.6799Q906.4531 426.13303 907.125 425.39865Q907.7969 424.64865 908.9531 424.64865Q910.15625 424.64865 910.8281 425.39865Q911.5 426.13303 911.5 427.6799Q911.5 429.21115 910.8281 429.96115Q910.15625 430.69553 909.0 430.69553Q907.7969 430.69553 907.125 429.96115Q906.4531 429.22678 906.4531 427.6799ZM908.15625 427.66428Q908.15625 428.77365 908.4219 429.16428Q908.6094 429.44553 908.9531 429.44553Q909.3125 429.44553 909.5 429.16428Q909.75 428.77365 909.75 427.66428Q909.75 426.53928 909.5 426.16428Q909.3125 425.88303 908.9531 425.88303Q908.6094 425.88303 908.4219 426.16428Q908.15625 426.53928 908.15625 427.66428ZM910.625 436.7424L909.0 436.7424L915.1094 424.64865L916.6875 424.64865L910.625 436.7424ZM914.1719 433.72678Q914.1719 432.19553 914.84375 431.46115Q915.53125 430.71115 916.7031 430.71115Q917.875 430.71115 918.5469 431.46115Q919.2344 432.19553 919.2344 433.72678Q919.2344 435.27365 918.5469 436.02365Q917.875 436.77365 916.71875 436.77365Q915.53125 436.77365 914.84375 436.02365Q914.1719 435.27365 914.1719 433.72678ZM915.8906 433.72678Q915.8906 434.83615 916.1406 435.21115Q916.34375 435.50803 916.6875 435.50803Q917.03125 435.50803 917.21875 435.22678Q917.4844 434.83615 917.4844 433.72678Q917.4844 432.60178 917.2344 432.22678Q917.03125 431.94553 916.6875 431.94553Q916.3281 431.94553 916.1406 432.22678Q915.8906 432.60178 915.8906 433.72678Z" fill-rule="nonzero"/><path stroke="#757575" stroke-width="1.0" stroke-linecap="butt" d="M919.75 419.8049L743.75 419.8049L689.7608 419.8049" fill-rule="nonzero"/><path fill="#9e9e9e" d="M691.7608 419.8049C691.7608 418.70032 690.8654 417.8049 689.7608 417.8049C688.65625 417.8049 687.7608 418.70032 687.7608 419.8049C687.7608 420.90945 688.65625 421.8049 689.7608 421.8049C690.8654 421.8049 691.7608 420.90945 691.7608 419.8049" fill-rule="nonzero"/><path fill="#1a1a1a" d="M773.8906 529.75L773.8906 518.2969L777.34375 518.2969L779.4219 526.1094L781.4844 518.2969L784.9531 518.2969L784.9531 529.75L782.7969 529.75L782.7969 520.7344L780.53125 529.75L778.2969 529.75L776.03125 520.7344L776.03125 529.75L773.8906 529.75ZM788.5469 523.9844L786.5469 523.625Q786.8906 522.4219 787.7031 521.84375Q788.53125 521.2656 790.1406 521.2656Q791.6094 521.2656 792.3281 521.6094Q793.0469 521.9531 793.34375 522.5Q793.6406 523.03125 793.6406 524.4531L793.6094 527.0156Q793.6094 528.1094 793.71875 528.6406Q793.8281 529.15625 794.1094 529.75L791.9375 529.75Q791.8594 529.53125 791.7344 529.09375Q791.6719 528.90625 791.65625 528.84375Q791.09375 529.3906 790.4531 529.6719Q789.8125 529.9375 789.0781 529.9375Q787.7969 529.9375 787.0625 529.25Q786.3281 528.5469 786.3281 527.4844Q786.3281 526.78125 786.65625 526.2344Q787.0 525.6719 787.59375 525.3906Q788.2031 525.09375 789.34375 524.875Q790.8906 524.5781 791.4844 524.3281L791.4844 524.1094Q791.4844 523.4844 791.1719 523.21875Q790.8594 522.9375 789.9844 522.9375Q789.40625 522.9375 789.0781 523.1719Q788.75 523.40625 788.5469 523.9844ZM791.4844 525.7656Q791.0625 525.90625 790.1406 526.1094Q789.2344 526.2969 788.9531 526.4844Q788.5156 526.78125 788.5156 527.25Q788.5156 527.71875 788.8594 528.0625Q789.2031 528.3906 789.7344 528.3906Q790.3281 528.3906 790.875 528.0Q791.2656 527.7031 791.3906 527.2656Q791.4844 526.9844 791.4844 526.2031L791.4844 525.7656ZM798.0 529.75L795.8125 529.75L795.8125 521.4531L797.84375 521.4531L797.84375 522.625Q798.375 521.7969 798.78125 521.53125Q799.2031 521.2656 799.7344 521.2656Q800.4844 521.2656 801.1875 521.6719L800.5 523.59375Q799.9531 523.2344 799.46875 523.2344Q799.0156 523.2344 798.6875 523.4844Q798.375 523.7344 798.1875 524.40625Q798.0 525.0625 798.0 527.1875L798.0 529.75ZM801.8281 529.75L801.8281 518.2969L804.0156 518.2969L804.0156 524.375L806.59375 521.4531L809.2969 521.4531L806.4531 524.4844L809.5 529.75L807.125 529.75L805.0469 526.0156L804.0156 527.09375L804.0156 529.75L801.8281 529.75ZM815.7031 527.1094L817.8906 527.46875Q817.46875 528.6719 816.5625 529.3125Q815.65625 529.9375 814.28125 529.9375Q812.125 529.9375 811.0781 528.5156Q810.2656 527.3906 810.2656 525.65625Q810.2656 523.59375 811.34375 522.4375Q812.4219 521.2656 814.0625 521.2656Q815.9219 521.2656 816.9844 522.4844Q818.0625 523.7031 818.0156 526.2344L812.5156 526.2344Q812.53125 527.2031 813.03125 527.75Q813.5469 528.2969 814.3125 528.2969Q814.8281 528.2969 815.1719 528.0156Q815.53125 527.7344 815.7031 527.1094ZM815.8281 524.8906Q815.8125 523.9375 815.34375 523.4375Q814.875 522.9375 814.2031 522.9375Q813.4844 522.9375 813.0156 523.46875Q812.5469 523.9844 812.5469 524.8906L815.8281 524.8906ZM823.7031 521.4531L823.7031 523.2031L822.2031 523.2031L822.2031 526.5469Q822.2031 527.5625 822.25 527.7344Q822.2969 527.8906 822.4375 528.0Q822.59375 528.1094 822.8125 528.1094Q823.125 528.1094 823.7031 527.90625L823.8906 529.6094Q823.125 529.9375 822.15625 529.9375Q821.5625 529.9375 821.0781 529.7344Q820.6094 529.53125 820.375 529.21875Q820.15625 528.90625 820.0781 528.3594Q820.0 527.9844 820.0 526.8125L820.0 523.2031L819.0 523.2031L819.0 521.4531L820.0 521.4531L820.0 519.7969L822.2031 518.5156L822.2031 521.4531L823.7031 521.4531ZM824.90625 520.3281L824.90625 518.2969L827.09375 518.2969L827.09375 520.3281L824.90625 520.3281ZM824.90625 529.75L824.90625 521.4531L827.09375 521.4531L827.09375 529.75L824.90625 529.75ZM836.4531 529.75L834.25 529.75L834.25 525.5156Q834.25 524.1719 834.1094 523.78125Q833.96875 523.375 833.65625 523.15625Q833.34375 522.9375 832.8906 522.9375Q832.3281 522.9375 831.875 523.25Q831.4219 523.5625 831.25 524.0781Q831.0781 524.59375 831.0781 525.9844L831.0781 529.75L828.8906 529.75L828.8906 521.4531L830.9219 521.4531L830.9219 522.6719Q832.0156 521.2656 833.65625 521.2656Q834.3906 521.2656 834.9844 521.53125Q835.59375 521.78125 835.8906 522.1875Q836.2031 522.59375 836.3281 523.1094Q836.4531 523.625 836.4531 524.59375L836.4531 529.75ZM838.7031 530.2969L841.2031 530.6094Q841.2656 531.0469 841.5 531.2031Q841.8125 531.4375 842.4844 531.4375Q843.34375 531.4375 843.7656 531.1875Q844.0625 531.0156 844.2031 530.625Q844.3125 530.3594 844.3125 529.6094L844.3125 528.40625Q843.3281 529.75 841.8281 529.75Q840.15625 529.75 839.1719 528.3281Q838.40625 527.21875 838.40625 525.5469Q838.40625 523.46875 839.40625 522.375Q840.4219 521.2656 841.90625 521.2656Q843.4531 521.2656 844.4531 522.6094L844.4531 521.4531L846.5 521.4531L846.5 528.8906Q846.5 530.375 846.25 531.09375Q846.0156 531.8281 845.5781 532.2344Q845.1406 532.65625 844.40625 532.8906Q843.6875 533.125 842.5625 533.125Q840.4531 533.125 839.5625 532.3906Q838.6875 531.6719 838.6875 530.5625Q838.6875 530.4531 838.7031 530.2969ZM840.65625 525.4219Q840.65625 526.75 841.1719 527.3594Q841.6875 527.96875 842.4375 527.96875Q843.2344 527.96875 843.78125 527.34375Q844.34375 526.71875 844.34375 525.4844Q844.34375 524.1875 843.8125 523.5625Q843.28125 522.9375 842.46875 522.9375Q841.6875 522.9375 841.1719 523.5625Q840.65625 524.1719 840.65625 525.4219ZM863.0469 528.34375L861.71875 530.0469Q860.75 529.5625 859.84375 528.7344Q859.15625 529.3594 858.375 529.65625Q857.59375 529.9531 856.5156 529.9531Q854.375 529.9531 853.2969 528.75Q852.4531 527.8125 852.4531 526.6094Q852.4531 525.5 853.1094 524.625Q853.7656 523.75 855.0781 523.09375Q854.4844 522.40625 854.1875 521.78125Q853.8906 521.1406 853.8906 520.5781Q853.8906 519.5469 854.71875 518.8281Q855.5625 518.09375 857.09375 518.09375Q858.5781 518.09375 859.40625 518.8594Q860.25 519.6094 860.25 520.7031Q860.25 521.40625 859.8281 522.03125Q859.4219 522.65625 858.1719 523.4375L859.7656 525.5469Q860.0469 525.0469 860.25 524.2344L862.2344 524.6875Q861.9375 525.75 861.71875 526.2344Q861.5 526.71875 861.25 527.0469Q861.6094 527.3906 862.1875 527.8125Q862.78125 528.21875 863.0469 528.34375ZM857.0781 522.125L857.6719 521.6719Q858.3281 521.15625 858.3281 520.65625Q858.3281 520.2344 858.0 519.9375Q857.6875 519.6406 857.15625 519.6406Q856.625 519.6406 856.3281 519.90625Q856.03125 520.1719 856.03125 520.5156Q856.03125 520.9219 856.53125 521.5L857.0781 522.125ZM856.21875 524.5Q855.4531 524.8906 855.0781 525.4375Q854.7031 525.96875 854.7031 526.53125Q854.7031 527.2344 855.1719 527.6875Q855.6406 528.1406 856.4219 528.1406Q856.9375 528.1406 857.40625 527.9375Q857.8906 527.7344 858.4531 527.2656L856.21875 524.5ZM868.9844 529.75L868.9844 518.3906L871.2969 518.3906L871.2969 527.8125L877.0469 527.8125L877.0469 529.75L868.9844 529.75ZM878.90625 520.3281L878.90625 518.2969L881.09375 518.2969L881.09375 520.3281L878.90625 520.3281ZM878.90625 529.75L878.90625 521.4531L881.09375 521.4531L881.09375 529.75L878.90625 529.75ZM882.125 527.375L884.3281 527.0469Q884.46875 527.6875 884.8906 528.0156Q885.3281 528.34375 886.1094 528.34375Q886.9531 528.34375 887.3906 528.03125Q887.6719 527.8125 887.6719 527.4531Q887.6719 527.2031 887.5156 527.03125Q887.3594 526.875 886.78125 526.75Q884.125 526.15625 883.4219 525.6719Q882.4375 525.0 882.4375 523.8125Q882.4375 522.7344 883.28125 522.0Q884.1406 521.2656 885.9219 521.2656Q887.625 521.2656 888.4531 521.8281Q889.28125 522.375 889.59375 523.4531L887.53125 523.84375Q887.3906 523.3594 887.0156 523.1094Q886.65625 522.84375 885.96875 522.84375Q885.09375 522.84375 884.71875 523.0781Q884.46875 523.25 884.46875 523.53125Q884.46875 523.7656 884.6875 523.9219Q884.9844 524.1406 886.7344 524.5469Q888.5 524.9375 889.1875 525.5156Q889.875 526.1094 889.875 527.15625Q889.875 528.2969 888.9219 529.125Q887.96875 529.9375 886.1094 529.9375Q884.40625 529.9375 883.4219 529.25Q882.4375 528.5625 882.125 527.375ZM895.7031 521.4531L895.7031 523.2031L894.2031 523.2031L894.2031 526.5469Q894.2031 527.5625 894.25 527.7344Q894.2969 527.8906 894.4375 528.0Q894.59375 528.1094 894.8125 528.1094Q895.125 528.1094 895.7031 527.90625L895.8906 529.6094Q895.125 529.9375 894.15625 529.9375Q893.5625 529.9375 893.0781 529.7344Q892.6094 529.53125 892.375 529.21875Q892.15625 528.90625 892.0781 528.3594Q892.0 527.9844 892.0 526.8125L892.0 523.2031L891.0 523.2031L891.0 521.4531L892.0 521.4531L892.0 519.7969L894.2031 518.5156L894.2031 521.4531L895.7031 521.4531ZM896.90625 520.3281L896.90625 518.2969L899.09375 518.2969L899.09375 520.3281L896.90625 520.3281ZM896.90625 529.75L896.90625 521.4531L899.09375 521.4531L899.09375 529.75L896.90625 529.75ZM908.4531 529.75L906.25 529.75L906.25 525.5156Q906.25 524.1719 906.1094 523.78125Q905.96875 523.375 905.65625 523.15625Q905.34375 522.9375 904.8906 522.9375Q904.3281 522.9375 903.875 523.25Q903.4219 523.5625 903.25 524.0781Q903.0781 524.59375 903.0781 525.9844L903.0781 529.75L900.8906 529.75L900.8906 521.4531L902.9219 521.4531L902.9219 522.6719Q904.0156 521.2656 905.65625 521.2656Q906.3906 521.2656 906.9844 521.53125Q907.59375 521.78125 907.8906 522.1875Q908.2031 522.59375 908.3281 523.1094Q908.4531 523.625 908.4531 524.59375L908.4531 529.75ZM910.7031 530.2969L913.2031 530.6094Q913.2656 531.0469 913.5 531.2031Q913.8125 531.4375 914.4844 531.4375Q915.34375 531.4375 915.7656 531.1875Q916.0625 531.0156 916.2031 530.625Q916.3125 530.3594 916.3125 529.6094L916.3125 528.40625Q915.3281 529.75 913.8281 529.75Q912.15625 529.75 911.1719 528.3281Q910.40625 527.21875 910.40625 525.5469Q910.40625 523.46875 911.40625 522.375Q912.4219 521.2656 913.90625 521.2656Q915.4531 521.2656 916.4531 522.6094L916.4531 521.4531L918.5 521.4531L918.5 528.8906Q918.5 530.375 918.25 531.09375Q918.0156 531.8281 917.5781 532.2344Q917.1406 532.65625 916.40625 532.8906Q915.6875 533.125 914.5625 533.125Q912.4531 533.125 911.5625 532.3906Q910.6875 531.6719 910.6875 530.5625Q910.6875 530.4531 910.7031 530.2969ZM912.65625 525.4219Q912.65625 526.75 913.1719 527.3594Q913.6875 527.96875 914.4375 527.96875Q915.2344 527.96875 915.78125 527.34375Q916.34375 526.71875 916.34375 525.4844Q916.34375 524.1875 915.8125 523.5625Q915.28125 522.9375 914.46875 522.9375Q913.6875 522.9375 913.1719 523.5625Q912.65625 524.1719 912.65625 525.4219Z" fill-rule="nonzero"/><path fill="#9e9e9e" d="M884.46875 548.7969L886.65625 548.5781Q886.75 549.3125 887.2031 549.75Q887.6719 550.1875 888.2656 550.1875Q888.9531 550.1875 889.4219 549.625Q889.90625 549.0625 889.90625 547.9375Q889.90625 546.8906 889.4375 546.3594Q888.96875 545.8281 888.2031 545.8281Q887.2656 545.8281 886.5156 546.6719L884.7344 546.40625L885.8594 540.4531L891.65625 540.4531L891.65625 542.5L887.5156 542.5L887.1719 544.4531Q887.90625 544.0781 888.6719 544.0781Q890.1406 544.0781 891.15625 545.1406Q892.1719 546.2031 892.1719 547.90625Q892.1719 549.3125 891.34375 550.4219Q890.2344 551.9531 888.25 551.9531Q886.65625 551.9531 885.65625 551.09375Q884.65625 550.2344 884.46875 548.7969ZM893.90625 551.75L893.90625 549.5469L896.09375 549.5469L896.09375 551.75L893.90625 551.75ZM901.1406 540.25Q902.8125 540.25 903.75 541.4375Q904.8594 542.84375 904.8594 546.09375Q904.8594 549.34375 903.7344 550.7656Q902.8125 551.9531 901.1406 551.9531Q899.46875 551.9531 898.4375 550.6719Q897.4219 549.375 897.4219 546.0781Q897.4219 542.84375 898.5469 541.4219Q899.4844 540.25 901.1406 540.25ZM901.1406 542.0625Q900.75 542.0625 900.4375 542.3281Q900.125 542.5781 899.9531 543.2344Q899.71875 544.0781 899.71875 546.09375Q899.71875 548.1094 899.9219 548.875Q900.125 549.625 900.4375 549.875Q900.75 550.125 901.1406 550.125Q901.5469 550.125 901.8594 549.875Q902.1719 549.6094 902.34375 548.9531Q902.5625 548.1094 902.5625 546.09375Q902.5625 544.0781 902.3594 543.3281Q902.15625 542.5781 901.84375 542.3281Q901.5469 542.0625 901.1406 542.0625ZM906.4531 543.125Q906.4531 541.5781 907.125 540.84375Q907.7969 540.09375 908.9531 540.09375Q910.15625 540.09375 910.8281 540.84375Q911.5 541.5781 911.5 543.125Q911.5 544.65625 910.8281 545.40625Q910.15625 546.1406 909.0 546.1406Q907.7969 546.1406 907.125 545.40625Q906.4531 544.6719 906.4531 543.125ZM908.15625 543.1094Q908.15625 544.21875 908.4219 544.6094Q908.6094 544.8906 908.9531 544.8906Q909.3125 544.8906 909.5 544.6094Q909.75 544.21875 909.75 543.1094Q909.75 541.9844 909.5 541.6094Q909.3125 541.3281 908.9531 541.3281Q908.6094 541.3281 908.4219 541.6094Q908.15625 541.9844 908.15625 543.1094ZM910.625 552.1875L909.0 552.1875L915.1094 540.09375L916.6875 540.09375L910.625 552.1875ZM914.1719 549.1719Q914.1719 547.6406 914.84375 546.90625Q915.53125 546.15625 916.7031 546.15625Q917.875 546.15625 918.5469 546.90625Q919.2344 547.6406 919.2344 549.1719Q919.2344 550.71875 918.5469 551.46875Q917.875 552.21875 916.71875 552.21875Q915.53125 552.21875 914.84375 551.46875Q914.1719 550.71875 914.1719 549.1719ZM915.8906 549.1719Q915.8906 550.28125 916.1406 550.65625Q916.34375 550.9531 916.6875 550.9531Q917.03125 550.9531 917.21875 550.6719Q917.4844 550.28125 917.4844 549.1719Q917.4844 548.0469 917.2344 547.6719Q917.03125 547.3906 916.6875 547.3906Q916.3281 547.3906 916.1406 547.6719Q915.8906 548.0469 915.8906 549.1719Z" fill-rule="nonzero"/><path stroke="#757575" stroke-width="1.0" stroke-linecap="butt" d="M919.75 535.25L743.75 535.25L529.0549 536.5646" fill-rule="nonzero"/><path fill="#9e9e9e" d="M531.0549 536.5646C531.0549 535.46 530.1595 534.5646 529.0549 534.5646C527.9503 534.5646 527.0549 535.46 527.0549 536.5646C527.0549 537.6691 527.9503 538.5646 529.0549 538.5646C530.1595 538.5646 531.0549 537.6691 531.0549 536.5646" fill-rule="nonzero"/></svg>