
<svg version="1.1" viewBox="0.0 0.0 940.0 580.0" fill="none" stroke="none" stroke-linecap="square" stroke-miterlimit="10" width="940" height="580" xmlns:xlink="http://www.w3.org/1999/xlink" xmlns="http://www.w3.org/2000/svg"><path fill="#ffffff" d="M0 0L940.0 0L940.0 580.0L0 580.0L0 0Z" fill-rule="nonzero"/><path fill="#4285f4" d="M470.0 29.0C583.0721 29.0 683.28455 101.80865 718.22577 209.34656C753.16693 316.8845 714.88916 434.69135 623.4119 501.15344L546.706 395.57672C592.4446 362.34567 611.5835 303.44223 594.11285 249.67328C576.6423 195.90433 526.536 159.5 470.0 159.5Z" fill-rule="nonzero"/><path fill="#34a853" d="M316.58804 78.846565C361.17926 46.449142 414.8822 29.0 470.0 29.0L470.0 159.5C442.4411 159.5 415.58963 168.22458 393.29404 184.42328Z" fill-rule="nonzero"/><path fill="#fbbc04" d="M316.58804 501.15344C248.99678 452.0455 209.0 373.5474 209.0 290.0C209.0 206.45259 248.99678 127.9545 316.58804 78.846565L393.29404 184.42328C359.49838 208.97725 339.5 248.2263 339.5 290.0C339.5 331.7737 359.49838 371.02274 393.29404 395.57672Z" fill-rule="nonzero"/><path fill="#ea4335" d="M623.4119 501.15344C531.93475 567.61554 408.06528 567.61554 316.58804 501.15344L393.29404 395.57672C439.03262 428.80777 500.96738 428.80777 546.706 395.57672Z" fill-rule="nonzero"/><path fill="#1a1a1a" d="M29.703125 43.029285Q29.703125 41.279285 30.21875 40.091785Q30.609375 39.216785 31.28125 38.529285Q31.96875 37.82616 32.765625 37.48241Q33.84375 37.029285 35.234375 37.029285Q37.765625 37.029285 39.28125 38.60741Q40.8125 40.16991 40.8125 42.966785Q40.8125 45.748035 39.296875 47.32616Q37.796875 48.88866 35.265625 48.88866Q32.71875 48.88866 31.203125 47.32616Q29.703125 45.76366 29.703125 43.029285ZM32.078125 42.95116Q32.078125 44.88866 32.96875 45.904285Q33.875 46.904285 35.265625 46.904285Q36.640625 46.904285 37.53125 45.904285Q38.421875 44.904285 38.421875 42.91991Q38.421875 40.95116 37.546875 39.98241Q36.6875 39.01366 35.265625 39.01366Q33.828125 39.01366 32.953125 39.998035Q32.078125 40.966785 32.078125 42.95116ZM42.09375 40.38866L44.140625 40.38866L44.140625 41.60741Q44.53125 40.98241 45.203125 40.591785Q45.890625 40.20116 46.71875 40.20116Q48.171875 40.20116 49.171875 41.341785Q50.1875 42.466785 50.1875 44.48241Q50.1875 46.560535 49.171875 47.716785Q48.15625 48.873035 46.703125 48.873035Q46.015625 48.873035 45.453125 48.60741Q44.90625 48.32616 44.28125 47.654285L44.28125 51.841785L42.09375 51.841785L42.09375 40.38866ZM44.265625 44.38866Q44.265625 45.79491 44.8125 46.466785Q45.375 47.123035 46.171875 47.123035Q46.9375 47.123035 47.4375 46.51366Q47.953125 45.904285 47.953125 44.498035Q47.953125 43.20116 47.421875 42.57616Q46.90625 41.935535 46.125 41.935535Q45.328125 41.935535 44.796875 42.560535Q44.265625 43.16991 44.265625 44.38866ZM56.953125 46.04491L59.140625 46.404285Q58.71875 47.60741 57.8125 48.248035Q56.90625 48.873035 55.53125 48.873035Q53.375 48.873035 52.328125 47.45116Q51.515625 46.32616 51.515625 44.591785Q51.515625 42.529285 52.59375 41.373035Q53.671875 40.20116 55.3125 40.20116Q57.171875 40.20116 58.234375 41.41991Q59.3125 42.63866 59.265625 45.16991L53.765625 45.16991Q53.78125 46.13866 54.28125 46.685535Q54.796875 47.23241 55.5625 47.23241Q56.078125 47.23241 56.421875 46.95116Q56.78125 46.66991 56.953125 46.04491ZM57.078125 43.82616Q57.0625 42.873035 56.59375 42.373035Q56.125 41.873035 55.453125 41.873035Q54.734375 41.873035 54.265625 42.404285Q53.796875 42.91991 53.796875 43.82616L57.078125 43.82616ZM63.25 48.685535L61.0625 48.685535L61.0625 40.38866L63.09375 40.38866L63.09375 41.560535Q63.625 40.73241 64.03125 40.466785Q64.453125 40.20116 64.984375 40.20116Q65.734375 40.20116 66.4375 40.60741L65.75 42.529285Q65.203125 42.16991 64.71875 42.16991Q64.265625 42.16991 63.9375 42.41991Q63.625 42.66991 63.4375 43.341785Q63.25 43.998035 63.25 46.123035L63.25 48.685535ZM68.796875 42.91991L66.796875 42.560535Q67.140625 41.35741 67.953125 40.779285Q68.78125 40.20116 70.390625 40.20116Q71.859375 40.20116 72.578125 40.54491Q73.296875 40.88866 73.59375 41.435535Q73.890625 41.966785 73.890625 43.38866L73.859375 45.95116Q73.859375 47.04491 73.96875 47.57616Q74.078125 48.091785 74.359375 48.685535L72.1875 48.685535Q72.109375 48.466785 71.984375 48.029285Q71.921875 47.841785 71.90625 47.779285Q71.34375 48.32616 70.703125 48.60741Q70.0625 48.873035 69.328125 48.873035Q68.046875 48.873035 67.3125 48.185535Q66.578125 47.48241 66.578125 46.41991Q66.578125 45.716785 66.90625 45.16991Q67.25 44.60741 67.84375 44.32616Q68.453125 44.029285 69.59375 43.810535Q71.140625 43.51366 71.734375 43.26366L71.734375 43.04491Q71.734375 42.41991 71.421875 42.154285Q71.109375 41.873035 70.234375 41.873035Q69.65625 41.873035 69.328125 42.10741Q69.0 42.341785 68.796875 42.91991ZM71.734375 44.70116Q71.3125 44.841785 70.390625 45.04491Q69.484375 45.23241 69.203125 45.41991Q68.765625 45.716785 68.765625 46.185535Q68.765625 46.654285 69.109375 46.998035Q69.453125 47.32616 69.984375 47.32616Q70.578125 47.32616 71.125 46.935535Q71.515625 46.63866 71.640625 46.20116Q71.734375 45.91991 71.734375 45.13866L71.734375 44.70116ZM79.953125 40.38866L79.953125 42.13866L78.453125 42.13866L78.453125 45.48241Q78.453125 46.498035 78.5 46.66991Q78.546875 46.82616 78.6875 46.935535Q78.84375 47.04491 79.0625 47.04491Q79.375 47.04491 79.953125 46.841785L80.140625 48.54491Q79.375 48.873035 78.40625 48.873035Q77.8125 48.873035 77.328125 48.66991Q76.859375 48.466785 76.625 48.154285Q76.40625 47.841785 76.328125 47.29491Q76.25 46.91991 76.25 45.748035L76.25 42.13866L75.25 42.13866L75.25 40.38866L76.25 40.38866L76.25 38.73241L78.453125 37.45116L78.453125 40.38866L79.953125 40.38866ZM81.15625 39.26366L81.15625 37.23241L83.34375 37.23241L83.34375 39.26366L81.15625 39.26366ZM81.15625 48.685535L81.15625 40.38866L83.34375 40.38866L83.34375 48.685535L81.15625 48.685535ZM84.640625 44.41991Q84.640625 43.32616 85.171875 42.310535Q85.71875 41.279285 86.703125 40.748035Q87.703125 40.20116 88.921875 40.20116Q90.796875 40.20116 92.0 41.41991Q93.203125 42.63866 93.203125 44.51366Q93.203125 46.38866 91.984375 47.63866Q90.78125 48.873035 88.9375 48.873035Q87.796875 48.873035 86.75 48.35741Q85.71875 47.841785 85.171875 46.841785Q84.640625 45.841785 84.640625 44.41991ZM86.890625 44.529285Q86.890625 45.76366 87.46875 46.41991Q88.0625 47.07616 88.921875 47.07616Q89.78125 47.07616 90.359375 46.41991Q90.953125 45.76366 90.953125 44.51366Q90.953125 43.29491 90.359375 42.63866Q89.78125 41.98241 88.921875 41.98241Q88.0625 41.98241 87.46875 42.63866Q86.890625 43.29491 86.890625 44.529285ZM102.703125 48.685535L100.5 48.685535L100.5 44.45116Q100.5 43.10741 100.359375 42.716785Q100.21875 42.310535 99.90625 42.091785Q99.59375 41.873035 99.140625 41.873035Q98.578125 41.873035 98.125 42.185535Q97.671875 42.498035 97.5 43.01366Q97.328125 43.529285 97.328125 44.91991L97.328125 48.685535L95.140625 48.685535L95.140625 40.38866L97.171875 40.38866L97.171875 41.60741Q98.265625 40.20116 99.90625 40.20116Q100.640625 40.20116 101.234375 40.466785Q101.84375 40.716785 102.140625 41.123035Q102.453125 41.529285 102.578125 42.04491Q102.703125 42.560535 102.703125 43.529285L102.703125 48.685535ZM106.796875 42.91991L104.796875 42.560535Q105.140625 41.35741 105.953125 40.779285Q106.78125 40.20116 108.390625 40.20116Q109.859375 40.20116 110.578125 40.54491Q111.296875 40.88866 111.59375 41.435535Q111.890625 41.966785 111.890625 43.38866L111.859375 45.95116Q111.859375 47.04491 111.96875 47.57616Q112.078125 48.091785 112.359375 48.685535L110.1875 48.685535Q110.109375 48.466785 109.984375 48.029285Q109.921875 47.841785 109.90625 47.779285Q109.34375 48.32616 108.703125 48.60741Q108.0625 48.873035 107.328125 48.873035Q106.046875 48.873035 105.3125 48.185535Q104.578125 47.48241 104.578125 46.41991Q104.578125 45.716785 104.90625 45.16991Q105.25 44.60741 105.84375 44.32616Q106.453125 44.029285 107.59375 43.810535Q109.140625 43.51366 109.734375 43.26366L109.734375 43.04491Q109.734375 42.41991 109.421875 42.154285Q109.109375 41.873035 108.234375 41.873035Q107.65625 41.873035 107.328125 42.10741Q107.0 42.341785 106.796875 42.91991ZM109.734375 44.70116Q109.3125 44.841785 108.390625 45.04491Q107.484375 45.23241 107.203125 45.41991Q106.765625 45.716785 106.765625 46.185535Q106.765625 46.654285 107.109375 46.998035Q107.453125 47.32616 107.984375 47.32616Q108.578125 47.32616 109.125 46.935535Q109.515625 46.63866 109.640625 46.20116Q109.734375 45.91991 109.734375 45.13866L109.734375 44.70116ZM114.15625 48.685535L114.15625 37.23241L116.34375 37.23241L116.34375 48.685535L114.15625 48.685535ZM122.171875 48.685535L122.171875 37.23241L130.65625 37.23241L130.65625 39.16991L124.484375 39.16991L124.484375 41.70116L130.23438 41.70116L130.23438 43.63866L124.484375 43.63866L124.484375 46.748035L130.875 46.748035L130.875 48.685535L122.171875 48.685535ZM132.09375 48.685535L135.09375 44.404285L132.21875 40.38866L134.90625 40.38866L136.375 42.66991L137.92188 40.38866L140.5 40.38866L137.6875 44.310535L140.75 48.685535L138.0625 48.685535L136.375 46.10741L134.67188 48.685535L132.09375 48.685535ZM142.09375 40.38866L144.14062 40.38866L144.14062 41.60741Q144.53125 40.98241 145.20312 40.591785Q145.89062 40.20116 146.71875 40.20116Q148.17188 40.20116 149.17188 41.341785Q150.1875 42.466785 150.1875 44.48241Q150.1875 46.560535 149.17188 47.716785Q148.15625 48.873035 146.70312 48.873035Q146.01562 48.873035 145.45312 48.60741Q144.90625 48.32616 144.28125 47.654285L144.28125 51.841785L142.09375 51.841785L142.09375 40.38866ZM144.26562 44.38866Q144.26562 45.79491 144.8125 46.466785Q145.375 47.123035 146.17188 47.123035Q146.9375 47.123035 147.4375 46.51366Q147.95312 45.904285 147.95312 44.498035Q147.95312 43.20116 147.42188 42.57616Q146.90625 41.935535 146.125 41.935535Q145.32812 41.935535 144.79688 42.560535Q144.26562 43.16991 144.26562 44.38866ZM156.95312 46.04491L159.14062 46.404285Q158.71875 47.60741 157.8125 48.248035Q156.90625 48.873035 155.53125 48.873035Q153.375 48.873035 152.32812 47.45116Q151.51562 46.32616 151.51562 44.591785Q151.51562 42.529285 152.59375 41.373035Q153.67188 40.20116 155.3125 40.20116Q157.17188 40.20116 158.23438 41.41991Q159.3125 42.63866 159.26562 45.16991L153.76562 45.16991Q153.78125 46.13866 154.28125 46.685535Q154.79688 47.23241 155.5625 47.23241Q156.07812 47.23241 156.42188 46.95116Q156.78125 46.66991 156.95312 46.04491ZM157.07812 43.82616Q157.0625 42.873035 156.59375 42.373035Q156.125 41.873035 155.45312 41.873035Q154.73438 41.873035 154.26562 42.404285Q153.79688 42.91991 153.79688 43.82616L157.07812 43.82616ZM168.70312 48.685535L166.5 48.685535L166.5 44.45116Q166.5 43.10741 166.35938 42.716785Q166.21875 42.310535 165.90625 42.091785Q165.59375 41.873035 165.14062 41.873035Q164.57812 41.873035 164.125 42.185535Q163.67188 42.498035 163.5 43.01366Q163.32812 43.529285 163.32812 44.91991L163.32812 48.685535L161.14062 48.685535L161.14062 40.38866L163.17188 40.38866L163.17188 41.60741Q164.26562 40.20116 165.90625 40.20116Q166.64062 40.20116 167.23438 40.466785Q167.84375 40.716785 168.14062 41.123035Q168.45312 41.529285 168.57812 42.04491Q168.70312 42.560535 168.70312 43.529285L168.70312 48.685535ZM170.375 46.310535L172.57812 45.98241Q172.71875 46.623035 173.14062 46.95116Q173.57812 47.279285 174.35938 47.279285Q175.20312 47.279285 175.64062 46.966785Q175.92188 46.748035 175.92188 46.38866Q175.92188 46.13866 175.76562 45.966785Q175.60938 45.810535 175.03125 45.685535Q172.375 45.091785 171.67188 44.60741Q170.6875 43.935535 170.6875 42.748035Q170.6875 41.66991 171.53125 40.935535Q172.39062 40.20116 174.17188 40.20116Q175.875 40.20116 176.70312 40.76366Q177.53125 41.310535 177.84375 42.38866L175.78125 42.779285Q175.64062 42.29491 175.26562 42.04491Q174.90625 41.779285 174.21875 41.779285Q173.34375 41.779285 172.96875 42.01366Q172.71875 42.185535 172.71875 42.466785Q172.71875 42.70116 172.9375 42.85741Q173.23438 43.07616 174.98438 43.48241Q176.75 43.873035 177.4375 44.45116Q178.125 45.04491 178.125 46.091785Q178.125 47.23241 177.17188 48.060535Q176.21875 48.873035 174.35938 48.873035Q172.65625 48.873035 171.67188 48.185535Q170.6875 47.498035 170.375 46.310535ZM184.95312 46.04491L187.14062 46.404285Q186.71875 47.60741 185.8125 48.248035Q184.90625 48.873035 183.53125 48.873035Q181.375 48.873035 180.32812 47.45116Q179.51562 46.32616 179.51562 44.591785Q179.51562 42.529285 180.59375 41.373035Q181.67188 40.20116 183.3125 40.20116Q185.17188 40.20116 186.23438 41.41991Q187.3125 42.63866 187.26562 45.16991L181.76562 45.16991Q181.78125 46.13866 182.28125 46.685535Q182.79688 47.23241 183.5625 47.23241Q184.07812 47.23241 184.42188 46.95116Q184.78125 46.66991 184.95312 46.04491ZM185.07812 43.82616Q185.0625 42.873035 184.59375 42.373035Q184.125 41.873035 183.45312 41.873035Q182.73438 41.873035 182.26562 42.404285Q181.79688 42.91991 181.79688 43.82616L185.07812 43.82616ZM188.375 46.310535L190.57812 45.98241Q190.71875 46.623035 191.14062 46.95116Q191.57812 47.279285 192.35938 47.279285Q193.20312 47.279285 193.64062 46.966785Q193.92188 46.748035 193.92188 46.38866Q193.92188 46.13866 193.76562 45.966785Q193.60938 45.810535 193.03125 45.685535Q190.375 45.091785 189.67188 44.60741Q188.6875 43.935535 188.6875 42.748035Q188.6875 41.66991 189.53125 40.935535Q190.39062 40.20116 192.17188 40.20116Q193.875 40.20116 194.70312 40.76366Q195.53125 41.310535 195.84375 42.38866L193.78125 42.779285Q193.64062 42.29491 193.26562 42.04491Q192.90625 41.779285 192.21875 41.779285Q191.34375 41.779285 190.96875 42.01366Q190.71875 42.185535 190.71875 42.466785Q190.71875 42.70116 190.9375 42.85741Q191.23438 43.07616 192.98438 43.48241Q194.75 43.873035 195.4375 44.45116Q196.125 45.04491 196.125 46.091785Q196.125 47.23241 195.17188 48.060535Q194.21875 48.873035 192.35938 48.873035Q190.65625 48.873035 189.67188 48.185535Q188.6875 47.498035 188.375 46.310535Z" fill-rule="nonzero"/><path fill="#9e9e9e" d="M35.296875 70.68554L33.109375 70.68554L33.109375 62.40429Q31.90625 63.52929 30.265625 64.076164L30.265625 62.076164Q31.125 61.794914 32.125 61.013664Q33.140625 60.232414 33.515625 59.18554L35.296875 59.18554L35.296875 70.68554ZM42.390625 59.18554Q44.0625 59.18554 45.0 60.37304Q46.109375 61.77929 46.109375 65.02929Q46.109375 68.27929 44.984375 69.701164Q44.0625 70.888664 42.390625 70.888664Q40.71875 70.888664 39.6875 69.607414Q38.671875 68.31054 38.671875 65.013664Q38.671875 61.77929 39.796875 60.357414Q40.734375 59.18554 42.390625 59.18554ZM42.390625 60.99804Q42.0 60.99804 41.6875 61.263664Q41.375 61.513664 41.203125 62.169914Q40.96875 63.013664 40.96875 65.02929Q40.96875 67.044914 41.171875 67.81054Q41.375 68.56054 41.6875 68.81054Q42.0 69.06054 42.390625 69.06054Q42.796875 69.06054 43.109375 68.81054Q43.421875 68.544914 43.59375 67.888664Q43.8125 67.044914 43.8125 65.02929Q43.8125 63.013664 43.609375 62.263664Q43.40625 61.513664 43.09375 61.263664Q42.796875 60.99804 42.390625 60.99804ZM48.15625 70.68554L48.15625 68.482414L50.34375 68.482414L50.34375 70.68554L48.15625 70.68554ZM55.390625 59.18554Q57.0625 59.18554 58.0 60.37304Q59.109375 61.77929 59.109375 65.02929Q59.109375 68.27929 57.984375 69.701164Q57.0625 70.888664 55.390625 70.888664Q53.71875 70.888664 52.6875 69.607414Q51.671875 68.31054 51.671875 65.013664Q51.671875 61.77929 52.796875 60.357414Q53.734375 59.18554 55.390625 59.18554ZM55.390625 60.99804Q55.0 60.99804 54.6875 61.263664Q54.375 61.513664 54.203125 62.169914Q53.96875 63.013664 53.96875 65.02929Q53.96875 67.044914 54.171875 67.81054Q54.375 68.56054 54.6875 68.81054Q55.0 69.06054 55.390625 69.06054Q55.796875 69.06054 56.109375 68.81054Q56.421875 68.544914 56.59375 67.888664Q56.8125 67.044914 56.8125 65.02929Q56.8125 63.013664 56.609375 62.263664Q56.40625 61.513664 56.09375 61.263664Q55.796875 60.99804 55.390625 60.99804ZM60.703125 62.06054Q60.703125 60.513664 61.375 59.77929Q62.046875 59.02929 63.203125 59.02929Q64.40625 59.02929 65.078125 59.77929Q65.75 60.513664 65.75 62.06054Q65.75 63.59179 65.078125 64.34179Q64.40625 65.076164 63.25 65.076164Q62.046875 65.076164 61.375 64.34179Q60.703125 63.607414 60.703125 62.06054ZM62.40625 62.044914Q62.40625 63.15429 62.671875 63.544914Q62.859375 63.826164 63.203125 63.826164Q63.5625 63.826164 63.75 63.544914Q64.0 63.15429 64.0 62.044914Q64.0 60.919914 63.75 60.544914Q63.5625 60.263664 63.203125 60.263664Q62.859375 60.263664 62.671875 60.544914Q62.40625 60.919914 62.40625 62.044914ZM64.875 71.12304L63.25 71.12304L69.359375 59.02929L70.9375 59.02929L64.875 71.12304ZM68.421875 68.107414Q68.421875 66.576164 69.09375 65.84179Q69.78125 65.09179 70.953125 65.09179Q72.125 65.09179 72.796875 65.84179Q73.484375 66.576164 73.484375 68.107414Q73.484375 69.65429 72.796875 70.40429Q72.125 71.15429 70.96875 71.15429Q69.78125 71.15429 69.09375 70.40429Q68.421875 69.65429 68.421875 68.107414ZM70.140625 68.107414Q70.140625 69.21679 70.390625 69.59179Q70.59375 69.888664 70.9375 69.888664Q71.28125 69.888664 71.46875 69.607414Q71.734375 69.21679 71.734375 68.107414Q71.734375 66.982414 71.484375 66.607414Q71.28125 66.326164 70.9375 66.326164Q70.578125 66.326164 70.390625 66.607414Q70.140625 66.982414 70.140625 68.107414Z" fill-rule="nonzero"/><path stroke="#757575" stroke-width="1.0" stroke-linecap="butt" d="M29.0 54.185535L203.0 54.185535L393.37924 54.185535" fill-rule="nonzero"/><path fill="#9e9e9e" d="M395.37924 54.185535C395.37924 53.080967 394.4838 52.185535 393.37924 52.185535C392.27466 52.185535 391.37924 53.080967 391.37924 54.185535C391.37924 55.290108 392.27466 56.185535 393.37924 56.185535C394.4838 56.185535 395.37924 55.290108 395.37924 54.185535" fill-rule="nonzero"/><path fill="#1a1a1a" d="M30.234375 284.5L30.234375 273.14062L32.546875 273.14062L32.546875 282.5625L38.296875 282.5625L38.296875 284.5L30.234375 284.5ZM40.15625 275.07812L40.15625 273.04688L42.34375 273.04688L42.34375 275.07812L40.15625 275.07812ZM40.15625 284.5L40.15625 276.20312L42.34375 276.20312L42.34375 284.5L40.15625 284.5ZM49.578125 287.65625L49.578125 283.48438Q49.140625 284.03125 48.5 284.35938Q47.859375 284.6875 47.125 284.6875Q45.703125 284.6875 44.796875 283.625Q43.71875 282.375 43.71875 280.25Q43.71875 278.25 44.71875 277.14062Q45.734375 276.01562 47.234375 276.01562Q48.0625 276.01562 48.671875 276.375Q49.28125 276.71875 49.75 277.42188L49.75 276.20312L51.765625 276.20312L51.765625 287.65625L49.578125 287.65625ZM49.640625 280.25Q49.640625 278.96875 49.125 278.35938Q48.609375 277.73438 47.828125 277.73438Q47.03125 277.73438 46.484375 278.375Q45.953125 279.0 45.953125 280.375Q45.953125 281.73438 46.46875 282.34375Q46.984375 282.95312 47.75 282.95312Q48.5 282.95312 49.0625 282.28125Q49.640625 281.59375 49.640625 280.25ZM59.609375 284.5L59.609375 283.25Q59.15625 283.92188 58.421875 284.3125Q57.6875 284.6875 56.859375 284.6875Q56.03125 284.6875 55.359375 284.32812Q54.703125 283.95312 54.40625 283.29688Q54.109375 282.625 54.109375 281.45312L54.109375 276.20312L56.296875 276.20312L56.296875 280.01562Q56.296875 281.76562 56.421875 282.15625Q56.546875 282.54688 56.859375 282.78125Q57.1875 283.01562 57.671875 283.01562Q58.234375 283.01562 58.671875 282.70312Q59.125 282.39062 59.28125 281.9375Q59.453125 281.48438 59.453125 279.70312L59.453125 276.20312L61.65625 276.20312L61.65625 284.5L59.609375 284.5ZM64.15625 275.07812L64.15625 273.04688L66.34375 273.04688L66.34375 275.07812L64.15625 275.07812ZM64.15625 284.5L64.15625 276.20312L66.34375 276.20312L66.34375 284.5L64.15625 284.5ZM75.765625 284.5L73.71875 284.5L73.71875 283.28125Q73.21875 283.98438 72.515625 284.34375Q71.828125 284.6875 71.125 284.6875Q69.703125 284.6875 68.671875 283.53125Q67.65625 282.375 67.65625 280.3125Q67.65625 278.20312 68.640625 277.10938Q69.640625 276.01562 71.15625 276.01562Q72.546875 276.01562 73.5625 277.17188L73.5625 273.04688L75.765625 273.04688L75.765625 284.5ZM69.90625 280.17188Q69.90625 281.5 70.265625 282.09375Q70.796875 282.95312 71.75 282.95312Q72.515625 282.95312 73.046875 282.3125Q73.578125 281.65625 73.578125 280.375Q73.578125 278.95312 73.0625 278.32812Q72.546875 277.6875 71.734375 277.6875Q70.953125 277.6875 70.421875 278.3125Q69.90625 278.9375 69.90625 280.17188ZM78.15625 275.07812L78.15625 273.04688L80.34375 273.04688L80.34375 275.07812L78.15625 275.07812ZM78.15625 284.5L78.15625 276.20312L80.34375 276.20312L80.34375 284.5L78.15625 284.5ZM85.953125 276.20312L85.953125 277.95312L84.453125 277.95312L84.453125 281.29688Q84.453125 282.3125 84.5 282.48438Q84.546875 282.64062 84.6875 282.75Q84.84375 282.85938 85.0625 282.85938Q85.375 282.85938 85.953125 282.65625L86.140625 284.35938Q85.375 284.6875 84.40625 284.6875Q83.8125 284.6875 83.328125 284.48438Q82.859375 284.28125 82.625 283.96875Q82.40625 283.65625 82.328125 283.10938Q82.25 282.73438 82.25 281.5625L82.25 277.95312L81.25 277.95312L81.25 276.20312L82.25 276.20312L82.25 274.54688L84.453125 273.26562L84.453125 276.20312L85.953125 276.20312ZM86.109375 276.20312L88.453125 276.20312L90.4375 282.09375L92.375 276.20312L94.640625 276.20312L91.71875 284.1875L91.1875 285.64062Q90.90625 286.35938 90.640625 286.73438Q90.375 287.125 90.03125 287.35938Q89.703125 287.60938 89.203125 287.73438Q88.703125 287.875 88.078125 287.875Q87.453125 287.875 86.84375 287.73438L86.640625 286.01562Q87.15625 286.125 87.578125 286.125Q88.34375 286.125 88.703125 285.67188Q89.078125 285.21875 89.265625 284.53125L86.109375 276.20312ZM110.296875 283.09375L108.96875 284.79688Q108.0 284.3125 107.09375 283.48438Q106.40625 284.10938 105.625 284.40625Q104.84375 284.70312 103.765625 284.70312Q101.625 284.70312 100.546875 283.5Q99.703125 282.5625 99.703125 281.35938Q99.703125 280.25 100.359375 279.375Q101.015625 278.5 102.328125 277.84375Q101.734375 277.15625 101.4375 276.53125Q101.140625 275.89062 101.140625 275.32812Q101.140625 274.29688 101.96875 273.57812Q102.8125 272.84375 104.34375 272.84375Q105.828125 272.84375 106.65625 273.60938Q107.5 274.35938 107.5 275.45312Q107.5 276.15625 107.078125 276.78125Q106.671875 277.40625 105.421875 278.1875L107.015625 280.29688Q107.296875 279.79688 107.5 278.98438L109.484375 279.4375Q109.1875 280.5 108.96875 280.98438Q108.75 281.46875 108.5 281.79688Q108.859375 282.14062 109.4375 282.5625Q110.03125 282.96875 110.296875 283.09375ZM104.328125 276.875L104.921875 276.42188Q105.578125 275.90625 105.578125 275.40625Q105.578125 274.98438 105.25 274.6875Q104.9375 274.39062 104.40625 274.39062Q103.875 274.39062 103.578125 274.65625Q103.28125 274.92188 103.28125 275.26562Q103.28125 275.67188 103.78125 276.25L104.328125 276.875ZM103.46875 279.25Q102.703125 279.64062 102.328125 280.1875Q101.953125 280.71875 101.953125 281.28125Q101.953125 281.98438 102.421875 282.4375Q102.890625 282.89062 103.671875 282.89062Q104.1875 282.89062 104.65625 282.6875Q105.140625 282.48438 105.703125 282.01562L103.46875 279.25ZM116.171875 284.5L116.171875 273.04688L124.65625 273.04688L124.65625 274.98438L118.484375 274.98438L118.484375 277.51562L124.234375 277.51562L124.234375 279.45312L118.484375 279.45312L118.484375 282.5625L124.875 282.5625L124.875 284.5L116.171875 284.5ZM126.09375 284.5L129.09375 280.21875L126.21875 276.20312L128.90625 276.20312L130.375 278.48438L131.92188 276.20312L134.5 276.20312L131.6875 280.125L134.75 284.5L132.0625 284.5L130.375 281.92188L128.67188 284.5L126.09375 284.5ZM143.39062 278.65625L141.21875 279.04688Q141.10938 278.39062 140.71875 278.0625Q140.34375 277.73438 139.71875 277.73438Q138.90625 277.73438 138.40625 278.3125Q137.92188 278.875 137.92188 280.20312Q137.92188 281.67188 138.42188 282.28125Q138.92188 282.89062 139.75 282.89062Q140.375 282.89062 140.76562 282.54688Q141.17188 282.1875 141.34375 281.3125L143.5 281.6875Q143.15625 283.17188 142.20312 283.9375Q141.25 284.6875 139.65625 284.6875Q137.82812 284.6875 136.75 283.54688Q135.67188 282.39062 135.67188 280.35938Q135.67188 278.29688 136.75 277.15625Q137.84375 276.01562 139.6875 276.01562Q141.20312 276.01562 142.09375 276.67188Q143.0 277.3125 143.39062 278.65625ZM147.34375 273.04688L147.34375 277.25Q148.40625 276.01562 149.875 276.01562Q150.64062 276.01562 151.25 276.29688Q151.85938 276.57812 152.15625 277.01562Q152.46875 277.45312 152.57812 277.98438Q152.70312 278.51562 152.70312 279.625L152.70312 284.5L150.5 284.5L150.5 280.10938Q150.5 278.8125 150.375 278.46875Q150.25 278.10938 149.9375 277.90625Q149.625 277.6875 149.14062 277.6875Q148.59375 277.6875 148.15625 277.95312Q147.73438 278.21875 147.53125 278.76562Q147.34375 279.29688 147.34375 280.34375L147.34375 284.5L145.14062 284.5L145.14062 273.04688L147.34375 273.04688ZM156.79688 278.73438L154.79688 278.375Q155.14062 277.17188 155.95312 276.59375Q156.78125 276.01562 158.39062 276.01562Q159.85938 276.01562 160.57812 276.35938Q161.29688 276.70312 161.59375 277.25Q161.89062 277.78125 161.89062 279.20312L161.85938 281.76562Q161.85938 282.85938 161.96875 283.39062Q162.07812 283.90625 162.35938 284.5L160.1875 284.5Q160.10938 284.28125 159.98438 283.84375Q159.92188 283.65625 159.90625 283.59375Q159.34375 284.14062 158.70312 284.42188Q158.0625 284.6875 157.32812 284.6875Q156.04688 284.6875 155.3125 284.0Q154.57812 283.29688 154.57812 282.23438Q154.57812 281.53125 154.90625 280.98438Q155.25 280.42188 155.84375 280.14062Q156.45312 279.84375 157.59375 279.625Q159.14062 279.32812 159.73438 279.07812L159.73438 278.85938Q159.73438 278.23438 159.42188 277.96875Q159.10938 277.6875 158.23438 277.6875Q157.65625 277.6875 157.32812 277.92188Q157.0 278.15625 156.79688 278.73438ZM159.73438 280.51562Q159.3125 280.65625 158.39062 280.85938Q157.48438 281.04688 157.20312 281.23438Q156.76562 281.53125 156.76562 282.0Q156.76562 282.46875 157.10938 282.8125Q157.45312 283.14062 157.98438 283.14062Q158.57812 283.14062 159.125 282.75Q159.51562 282.45312 159.64062 282.01562Q159.73438 281.73438 159.73438 280.95312L159.73438 280.51562ZM171.70312 284.5L169.5 284.5L169.5 280.26562Q169.5 278.92188 169.35938 278.53125Q169.21875 278.125 168.90625 277.90625Q168.59375 277.6875 168.14062 277.6875Q167.57812 277.6875 167.125 278.0Q166.67188 278.3125 166.5 278.82812Q166.32812 279.34375 166.32812 280.73438L166.32812 284.5L164.14062 284.5L164.14062 276.20312L166.17188 276.20312L166.17188 277.42188Q167.26562 276.01562 168.90625 276.01562Q169.64062 276.01562 170.23438 276.28125Q170.84375 276.53125 171.14062 276.9375Q171.45312 277.34375 171.57812 277.85938Q171.70312 278.375 171.70312 279.34375L171.70312 284.5ZM173.95312 285.04688L176.45312 285.35938Q176.51562 285.79688 176.75 285.95312Q177.0625 286.1875 177.73438 286.1875Q178.59375 286.1875 179.01562 285.9375Q179.3125 285.76562 179.45312 285.375Q179.5625 285.10938 179.5625 284.35938L179.5625 283.15625Q178.57812 284.5 177.07812 284.5Q175.40625 284.5 174.42188 283.07812Q173.65625 281.96875 173.65625 280.29688Q173.65625 278.21875 174.65625 277.125Q175.67188 276.01562 177.15625 276.01562Q178.70312 276.01562 179.70312 277.35938L179.70312 276.20312L181.75 276.20312L181.75 283.64062Q181.75 285.125 181.5 285.84375Q181.26562 286.57812 180.82812 286.98438Q180.39062 287.40625 179.65625 287.64062Q178.9375 287.875 177.8125 287.875Q175.70312 287.875 174.8125 287.14062Q173.9375 286.42188 173.9375 285.3125Q173.9375 285.20312 173.95312 285.04688ZM175.90625 280.17188Q175.90625 281.5 176.42188 282.10938Q176.9375 282.71875 177.6875 282.71875Q178.48438 282.71875 179.03125 282.09375Q179.59375 281.46875 179.59375 280.23438Q179.59375 278.9375 179.0625 278.3125Q178.53125 277.6875 177.71875 277.6875Q176.9375 277.6875 176.42188 278.3125Q175.90625 278.92188 175.90625 280.17188ZM188.95312 281.85938L191.14062 282.21875Q190.71875 283.42188 189.8125 284.0625Q188.90625 284.6875 187.53125 284.6875Q185.375 284.6875 184.32812 283.26562Q183.51562 282.14062 183.51562 280.40625Q183.51562 278.34375 184.59375 277.1875Q185.67188 276.01562 187.3125 276.01562Q189.17188 276.01562 190.23438 277.23438Q191.3125 278.45312 191.26562 280.98438L185.76562 280.98438Q185.78125 281.95312 186.28125 282.5Q186.79688 283.04688 187.5625 283.04688Q188.07812 283.04688 188.42188 282.76562Q188.78125 282.48438 188.95312 281.85938ZM189.07812 279.64062Q189.0625 278.6875 188.59375 278.1875Q188.125 277.6875 187.45312 277.6875Q186.73438 277.6875 186.26562 278.21875Q185.79688 278.73438 185.79688 279.64062L189.07812 279.64062ZM192.375 282.125L194.57812 281.79688Q194.71875 282.4375 195.14062 282.76562Q195.57812 283.09375 196.35938 283.09375Q197.20312 283.09375 197.64062 282.78125Q197.92188 282.5625 197.92188 282.20312Q197.92188 281.95312 197.76562 281.78125Q197.60938 281.625 197.03125 281.5Q194.375 280.90625 193.67188 280.42188Q192.6875 279.75 192.6875 278.5625Q192.6875 277.48438 193.53125 276.75Q194.39062 276.01562 196.17188 276.01562Q197.875 276.01562 198.70312 276.57812Q199.53125 277.125 199.84375 278.20312L197.78125 278.59375Q197.64062 278.10938 197.26562 277.85938Q196.90625 277.59375 196.21875 277.59375Q195.34375 277.59375 194.96875 277.82812Q194.71875 278.0 194.71875 278.28125Q194.71875 278.51562 194.9375 278.67188Q195.23438 278.89062 196.98438 279.29688Q198.75 279.6875 199.4375 280.26562Q200.125 280.85938 200.125 281.90625Q200.125 283.04688 199.17188 283.875Q198.21875 284.6875 196.35938 284.6875Q194.65625 284.6875 193.67188 284.0Q192.6875 283.3125 192.375 282.125Z" fill-rule="nonzero"/><path fill="#9e9e9e" d="M29.609375 303.45312L31.734375 303.20312Q31.828125 304.01562 32.265625 304.45312Q32.71875 304.875 33.359375 304.875Q34.03125 304.875 34.5 304.35938Q34.96875 303.84375 34.96875 302.96875Q34.96875 302.14062 34.515625 301.65625Q34.078125 301.17188 33.4375 301.17188Q33.015625 301.17188 32.421875 301.32812L32.671875 299.54688Q33.5625 299.5625 34.03125 299.15625Q34.5 298.75 34.5 298.0625Q34.5 297.48438 34.15625 297.14062Q33.8125 296.79688 33.234375 296.79688Q32.671875 296.79688 32.265625 297.1875Q31.875 297.57812 31.796875 298.32812L29.765625 297.98438Q29.984375 296.95312 30.40625 296.32812Q30.828125 295.70312 31.59375 295.35938Q32.359375 295.0 33.296875 295.0Q34.921875 295.0 35.890625 296.03125Q36.703125 296.875 36.703125 297.9375Q36.703125 299.4375 35.046875 300.34375Q36.03125 300.54688 36.625 301.28125Q37.21875 302.01562 37.21875 303.0625Q37.21875 304.5625 36.109375 305.64062Q35.015625 306.70312 33.375 306.70312Q31.8125 306.70312 30.78125 305.8125Q29.765625 304.90625 29.609375 303.45312ZM42.390625 295.0Q44.0625 295.0 45.0 296.1875Q46.109375 297.59375 46.109375 300.84375Q46.109375 304.09375 44.984375 305.51562Q44.0625 306.70312 42.390625 306.70312Q40.71875 306.70312 39.6875 305.42188Q38.671875 304.125 38.671875 300.82812Q38.671875 297.59375 39.796875 296.17188Q40.734375 295.0 42.390625 295.0ZM42.390625 296.8125Q42.0 296.8125 41.6875 297.07812Q41.375 297.32812 41.203125 297.98438Q40.96875 298.82812 40.96875 300.84375Q40.96875 302.85938 41.171875 303.625Q41.375 304.375 41.6875 304.625Q42.0 304.875 42.390625 304.875Q42.796875 304.875 43.109375 304.625Q43.421875 304.35938 43.59375 303.70312Q43.8125 302.85938 43.8125 300.84375Q43.8125 298.82812 43.609375 298.07812Q43.40625 297.32812 43.09375 297.07812Q42.796875 296.8125 42.390625 296.8125ZM48.15625 306.5L48.15625 304.29688L50.34375 304.29688L50.34375 306.5L48.15625 306.5ZM55.390625 295.0Q57.0625 295.0 58.0 296.1875Q59.109375 297.59375 59.109375 300.84375Q59.109375 304.09375 57.984375 305.51562Q57.0625 306.70312 55.390625 306.70312Q53.71875 306.70312 52.6875 305.42188Q51.671875 304.125 51.671875 300.82812Q51.671875 297.59375 52.796875 296.17188Q53.734375 295.0 55.390625 295.0ZM55.390625 296.8125Q55.0 296.8125 54.6875 297.07812Q54.375 297.32812 54.203125 297.98438Q53.96875 298.82812 53.96875 300.84375Q53.96875 302.85938 54.171875 303.625Q54.375 304.375 54.6875 304.625Q55.0 304.875 55.390625 304.875Q55.796875 304.875 56.109375 304.625Q56.421875 304.35938 56.59375 303.70312Q56.8125 302.85938 56.8125 300.84375Q56.8125 298.82812 56.609375 298.07812Q56.40625 297.32812 56.09375 297.07812Q55.796875 296.8125 55.390625 296.8125ZM60.703125 297.875Q60.703125 296.32812 61.375 295.59375Q62.046875 294.84375 63.203125 294.84375Q64.40625 294.84375 65.078125 295.59375Q65.75 296.32812 65.75 297.875Q65.75 299.40625 65.078125 300.15625Q64.40625 300.89062 63.25 300.89062Q62.046875 300.89062 61.375 300.15625Q60.703125 299.42188 60.703125 297.875ZM62.40625 297.85938Q62.40625 298.96875 62.671875 299.35938Q62.859375 299.64062 63.203125 299.64062Q63.5625 299.64062 63.75 299.35938Q64.0 298.96875 64.0 297.85938Q64.0 296.73438 63.75 296.35938Q63.5625 296.07812 63.203125 296.07812Q62.859375 296.07812 62.671875 296.35938Q62.40625 296.73438 62.40625 297.85938ZM64.875 306.9375L63.25 306.9375L69.359375 294.84375L70.9375 294.84375L64.875 306.9375ZM68.421875 303.92188Q68.421875 302.39062 69.09375 301.65625Q69.78125 300.90625 70.953125 300.90625Q72.125 300.90625 72.796875 301.65625Q73.484375 302.39062 73.484375 303.92188Q73.484375 305.46875 72.796875 306.21875Q72.125 306.96875 70.96875 306.96875Q69.78125 306.96875 69.09375 306.21875Q68.421875 305.46875 68.421875 303.92188ZM70.140625 303.92188Q70.140625 305.03125 70.390625 305.40625Q70.59375 305.70312 70.9375 305.70312Q71.28125 305.70312 71.46875 305.42188Q71.734375 305.03125 71.734375 303.92188Q71.734375 302.79688 71.484375 302.42188Q71.28125 302.14062 70.9375 302.14062Q70.578125 302.14062 70.390625 302.42188Q70.140625 302.79688 70.140625 303.92188Z" fill-rule="nonzero"/><path stroke="#757575" stroke-width="1.0" stroke-linecap="butt" d="M29.0 290.0L203.0 290.0L222.05 290.0" fill-rule="nonzero"/><path fill="#9e9e9e" d="M224.05 290.0C224.05 288.89542 223.15457 288.0 222.05 288.0C220.94543 288.0 220.05 288.89542 220.05 290.0C220.05 291.10458 220.94543 292.0 222.05 292.0C223.15457 292.0 224.05 291.10458 224.05 290.0" fill-rule="nonzero"/><path fill="#1a1a1a" d="M739.5781 204.14487L741.8281 203.92612Q742.03125 205.06674 742.65625 205.59799Q743.28125 206.12924 744.3281 206.12924Q745.4531 206.12924 746.0156 205.66049Q746.5781 205.17612 746.5781 204.55112Q746.5781 204.14487 746.34375 203.86362Q746.1094 203.56674 745.5156 203.36362Q745.1094 203.22299 743.65625 202.86362Q741.7969 202.39487 741.0469 201.72299Q740.0 200.78549 740.0 199.42612Q740.0 198.55112 740.4844 197.78549Q740.9844 197.01987 741.9219 196.62924Q742.8594 196.22299 744.1719 196.22299Q746.3281 196.22299 747.4219 197.17612Q748.5156 198.11362 748.5625 199.69174L746.25 199.80112Q746.1094 198.91049 745.6094 198.53549Q745.125 198.14487 744.15625 198.14487Q743.1406 198.14487 742.5781 198.55112Q742.2031 198.81674 742.2031 199.26987Q742.2031 199.67612 742.5469 199.95737Q742.9844 200.33237 744.6719 200.73862Q746.3594 201.12924 747.1719 201.55112Q747.9844 201.97299 748.4375 202.72299Q748.8906 203.45737 748.8906 204.53549Q748.8906 205.51987 748.34375 206.37924Q747.7969 207.23862 746.7969 207.66049Q745.7969 208.08237 744.3125 208.08237Q742.1406 208.08237 740.96875 207.08237Q739.8125 206.06674 739.5781 204.14487ZM750.6406 203.61362Q750.6406 202.51987 751.1719 201.50424Q751.71875 200.47299 752.7031 199.94174Q753.7031 199.39487 754.9219 199.39487Q756.7969 199.39487 758.0 200.61362Q759.2031 201.83237 759.2031 203.70737Q759.2031 205.58237 757.9844 206.83237Q756.78125 208.06674 754.9375 208.06674Q753.7969 208.06674 752.75 207.55112Q751.71875 207.03549 751.1719 206.03549Q750.6406 205.03549 750.6406 203.61362ZM752.8906 203.72299Q752.8906 204.95737 753.46875 205.61362Q754.0625 206.26987 754.9219 206.26987Q755.78125 206.26987 756.3594 205.61362Q756.9531 204.95737 756.9531 203.70737Q756.9531 202.48862 756.3594 201.83237Q755.78125 201.17612 754.9219 201.17612Q754.0625 201.17612 753.46875 201.83237Q752.8906 202.48862 752.8906 203.72299ZM760.1875 199.58237L761.40625 199.58237L761.40625 198.95737Q761.40625 197.91049 761.625 197.39487Q761.8594 196.87924 762.4531 196.55112Q763.0469 196.22299 763.96875 196.22299Q764.90625 196.22299 765.7969 196.50424L765.5 198.03549Q764.9844 197.91049 764.5 197.91049Q764.0156 197.91049 763.8125 198.14487Q763.6094 198.36362 763.6094 198.98862L763.6094 199.58237L765.25 199.58237L765.25 201.30112L763.6094 201.30112L763.6094 207.87924L761.40625 207.87924L761.40625 201.30112L760.1875 201.30112L760.1875 199.58237ZM769.9531 199.58237L769.9531 201.33237L768.4531 201.33237L768.4531 204.67612Q768.4531 205.69174 768.5 205.86362Q768.5469 206.01987 768.6875 206.12924Q768.84375 206.23862 769.0625 206.23862Q769.375 206.23862 769.9531 206.03549L770.1406 207.73862Q769.375 208.06674 768.40625 208.06674Q767.8125 208.06674 767.3281 207.86362Q766.8594 207.66049 766.625 207.34799Q766.40625 207.03549 766.3281 206.48862Q766.25 206.11362 766.25 204.94174L766.25 201.33237L765.25 201.33237L765.25 199.58237L766.25 199.58237L766.25 197.92612L768.4531 196.64487L768.4531 199.58237L769.9531 199.58237ZM772.7031 207.87924L770.0781 199.58237L772.2031 199.58237L773.7656 205.01987L775.1875 199.58237L777.3125 199.58237L778.6875 205.01987L780.28125 199.58237L782.4375 199.58237L779.78125 207.87924L777.6719 207.87924L776.2344 202.53549L774.8281 207.87924L772.7031 207.87924ZM784.7969 202.11362L782.7969 201.75424Q783.1406 200.55112 783.9531 199.97299Q784.78125 199.39487 786.3906 199.39487Q787.8594 199.39487 788.5781 199.73862Q789.2969 200.08237 789.59375 200.62924Q789.8906 201.16049 789.8906 202.58237L789.8594 205.14487Q789.8594 206.23862 789.96875 206.76987Q790.0781 207.28549 790.3594 207.87924L788.1875 207.87924Q788.1094 207.66049 787.9844 207.22299Q787.9219 207.03549 787.90625 206.97299Q787.34375 207.51987 786.7031 207.80112Q786.0625 208.06674 785.3281 208.06674Q784.0469 208.06674 783.3125 207.37924Q782.5781 206.67612 782.5781 205.61362Q782.5781 204.91049 782.90625 204.36362Q783.25 203.80112 783.84375 203.51987Q784.4531 203.22299 785.59375 203.00424Q787.1406 202.70737 787.7344 202.45737L787.7344 202.23862Q787.7344 201.61362 787.4219 201.34799Q787.1094 201.06674 786.2344 201.06674Q785.65625 201.06674 785.3281 201.30112Q785.0 201.53549 784.7969 202.11362ZM787.7344 203.89487Q787.3125 204.03549 786.3906 204.23862Q785.4844 204.42612 785.2031 204.61362Q784.7656 204.91049 784.7656 205.37924Q784.7656 205.84799 785.1094 206.19174Q785.4531 206.51987 785.9844 206.51987Q786.5781 206.51987 787.125 206.12924Q787.5156 205.83237 787.6406 205.39487Q787.7344 205.11362 787.7344 204.33237L787.7344 203.89487ZM794.25 207.87924L792.0625 207.87924L792.0625 199.58237L794.09375 199.58237L794.09375 200.75424Q794.625 199.92612 795.03125 199.66049Q795.4531 199.39487 795.9844 199.39487Q796.7344 199.39487 797.4375 199.80112L796.75 201.72299Q796.2031 201.36362 795.71875 201.36362Q795.2656 201.36362 794.9375 201.61362Q794.625 201.86362 794.4375 202.53549Q794.25 203.19174 794.25 205.31674L794.25 207.87924ZM802.9531 205.23862L805.1406 205.59799Q804.71875 206.80112 803.8125 207.44174Q802.90625 208.06674 801.53125 208.06674Q799.375 208.06674 798.3281 206.64487Q797.5156 205.51987 797.5156 203.78549Q797.5156 201.72299 798.59375 200.56674Q799.6719 199.39487 801.3125 199.39487Q803.1719 199.39487 804.2344 200.61362Q805.3125 201.83237 805.2656 204.36362L799.7656 204.36362Q799.78125 205.33237 800.28125 205.87924Q800.7969 206.42612 801.5625 206.42612Q802.0781 206.42612 802.4219 206.14487Q802.78125 205.86362 802.9531 205.23862ZM803.0781 203.01987Q803.0625 202.06674 802.59375 201.56674Q802.125 201.06674 801.4531 201.06674Q800.7344 201.06674 800.2656 201.59799Q799.7969 202.11362 799.7969 203.01987L803.0781 203.01987ZM811.15625 196.42612L815.3906 196.42612Q816.8125 196.42612 817.5625 196.64487Q818.5781 196.94174 819.2969 197.70737Q820.0156 198.45737 820.3906 199.55112Q820.7656 200.64487 820.7656 202.25424Q820.7656 203.67612 820.40625 204.69174Q819.9844 205.94174 819.1875 206.72299Q818.5781 207.30112 817.5625 207.62924Q816.7969 207.87924 815.5156 207.87924L811.15625 207.87924L811.15625 196.42612ZM813.46875 198.36362L813.46875 205.94174L815.2031 205.94174Q816.1719 205.94174 816.59375 205.83237Q817.15625 205.69174 817.53125 205.36362Q817.90625 205.01987 818.1406 204.25424Q818.375 203.48862 818.375 202.16049Q818.375 200.83237 818.1406 200.12924Q817.90625 199.41049 817.4844 199.01987Q817.0625 198.61362 816.40625 198.47299Q815.9219 198.36362 814.5156 198.36362L813.46875 198.36362ZM827.9531 205.23862L830.1406 205.59799Q829.71875 206.80112 828.8125 207.44174Q827.90625 208.06674 826.53125 208.06674Q824.375 208.06674 823.3281 206.64487Q822.5156 205.51987 822.5156 203.78549Q822.5156 201.72299 823.59375 200.56674Q824.6719 199.39487 826.3125 199.39487Q828.1719 199.39487 829.2344 200.61362Q830.3125 201.83237 830.2656 204.36362L824.7656 204.36362Q824.78125 205.33237 825.28125 205.87924Q825.7969 206.42612 826.5625 206.42612Q827.0781 206.42612 827.4219 206.14487Q827.78125 205.86362 827.9531 205.23862ZM828.0781 203.01987Q828.0625 202.06674 827.59375 201.56674Q827.125 201.06674 826.4531 201.06674Q825.7344 201.06674 825.2656 201.59799Q824.7969 202.11362 824.7969 203.01987L828.0781 203.01987ZM834.4375 207.87924L831.09375 199.58237L833.3906 199.58237L834.9531 203.81674L835.40625 205.22299Q835.59375 204.69174 835.6406 204.51987Q835.75 204.16049 835.875 203.81674L837.4531 199.58237L839.7031 199.58237L836.40625 207.87924L834.4375 207.87924ZM845.9531 205.23862L848.1406 205.59799Q847.71875 206.80112 846.8125 207.44174Q845.90625 208.06674 844.53125 208.06674Q842.375 208.06674 841.3281 206.64487Q840.5156 205.51987 840.5156 203.78549Q840.5156 201.72299 841.59375 200.56674Q842.6719 199.39487 844.3125 199.39487Q846.1719 199.39487 847.2344 200.61362Q848.3125 201.83237 848.2656 204.36362L842.7656 204.36362Q842.78125 205.33237 843.28125 205.87924Q843.7969 206.42612 844.5625 206.42612Q845.0781 206.42612 845.4219 206.14487Q845.78125 205.86362 845.9531 205.23862ZM846.0781 203.01987Q846.0625 202.06674 845.59375 201.56674Q845.125 201.06674 844.4531 201.06674Q843.7344 201.06674 843.2656 201.59799Q842.7969 202.11362 842.7969 203.01987L846.0781 203.01987ZM850.15625 207.87924L850.15625 196.42612L852.34375 196.42612L852.34375 207.87924L850.15625 207.87924ZM853.6406 203.61362Q853.6406 202.51987 854.1719 201.50424Q854.71875 200.47299 855.7031 199.94174Q856.7031 199.39487 857.9219 199.39487Q859.7969 199.39487 861.0 200.61362Q862.2031 201.83237 862.2031 203.70737Q862.2031 205.58237 860.9844 206.83237Q859.78125 208.06674 857.9375 208.06674Q856.7969 208.06674 855.75 207.55112Q854.71875 207.03549 854.1719 206.03549Q853.6406 205.03549 853.6406 203.61362ZM855.8906 203.72299Q855.8906 204.95737 856.46875 205.61362Q857.0625 206.26987 857.9219 206.26987Q858.78125 206.26987 859.3594 205.61362Q859.9531 204.95737 859.9531 203.70737Q859.9531 202.48862 859.3594 201.83237Q858.78125 201.17612 857.9219 201.17612Q857.0625 201.17612 856.46875 201.83237Q855.8906 202.48862 855.8906 203.72299ZM864.09375 199.58237L866.1406 199.58237L866.1406 200.80112Q866.53125 200.17612 867.2031 199.78549Q867.8906 199.39487 868.71875 199.39487Q870.1719 199.39487 871.1719 200.53549Q872.1875 201.66049 872.1875 203.67612Q872.1875 205.75424 871.1719 206.91049Q870.15625 208.06674 868.7031 208.06674Q868.0156 208.06674 867.4531 207.80112Q866.90625 207.51987 866.28125 206.84799L866.28125 211.03549L864.09375 211.03549L864.09375 199.58237ZM866.2656 203.58237Q866.2656 204.98862 866.8125 205.66049Q867.375 206.31674 868.1719 206.31674Q868.9375 206.31674 869.4375 205.70737Q869.9531 205.09799 869.9531 203.69174Q869.9531 202.39487 869.4219 201.76987Q868.90625 201.12924 868.125 201.12924Q867.3281 201.12924 866.7969 201.75424Q866.2656 202.36362 866.2656 203.58237ZM873.9844 199.58237L876.0156 199.58237L876.0156 200.70737Q877.09375 199.39487 878.59375 199.39487Q879.3906 199.39487 879.96875 199.72299Q880.5625 200.05112 880.9375 200.70737Q881.4844 200.05112 882.1094 199.72299Q882.75 199.39487 883.46875 199.39487Q884.3906 199.39487 885.0156 199.76987Q885.65625 200.12924 885.96875 200.84799Q886.1875 201.37924 886.1875 202.56674L886.1875 207.87924L884.0 207.87924L884.0 203.12924Q884.0 201.89487 883.7656 201.53549Q883.46875 201.06674 882.8281 201.06674Q882.375 201.06674 881.96875 201.34799Q881.5625 201.62924 881.375 202.17612Q881.2031 202.72299 881.2031 203.89487L881.2031 207.87924L879.0 207.87924L879.0 203.33237Q879.0 202.11362 878.875 201.76987Q878.7656 201.41049 878.5156 201.23862Q878.28125 201.06674 877.8594 201.06674Q877.34375 201.06674 876.9375 201.34799Q876.53125 201.61362 876.3594 202.12924Q876.1875 202.64487 876.1875 203.84799L876.1875 207.87924L873.9844 207.87924L873.9844 199.58237ZM892.9531 205.23862L895.1406 205.59799Q894.71875 206.80112 893.8125 207.44174Q892.90625 208.06674 891.53125 208.06674Q889.375 208.06674 888.3281 206.64487Q887.5156 205.51987 887.5156 203.78549Q887.5156 201.72299 888.59375 200.56674Q889.6719 199.39487 891.3125 199.39487Q893.1719 199.39487 894.2344 200.61362Q895.3125 201.83237 895.2656 204.36362L889.7656 204.36362Q889.78125 205.33237 890.28125 205.87924Q890.7969 206.42612 891.5625 206.42612Q892.0781 206.42612 892.4219 206.14487Q892.78125 205.86362 892.9531 205.23862ZM893.0781 203.01987Q893.0625 202.06674 892.59375 201.56674Q892.125 201.06674 891.4531 201.06674Q890.7344 201.06674 890.2656 201.59799Q889.7969 202.11362 889.7969 203.01987L893.0781 203.01987ZM904.7031 207.87924L902.5 207.87924L902.5 203.64487Q902.5 202.30112 902.3594 201.91049Q902.21875 201.50424 901.90625 201.28549Q901.59375 201.06674 901.1406 201.06674Q900.5781 201.06674 900.125 201.37924Q899.6719 201.69174 899.5 202.20737Q899.3281 202.72299 899.3281 204.11362L899.3281 207.87924L897.1406 207.87924L897.1406 199.58237L899.1719 199.58237L899.1719 200.80112Q900.2656 199.39487 901.90625 199.39487Q902.6406 199.39487 903.2344 199.66049Q903.84375 199.91049 904.1406 200.31674Q904.4531 200.72299 904.5781 201.23862Q904.7031 201.75424 904.7031 202.72299L904.7031 207.87924ZM910.9531 199.58237L910.9531 201.33237L909.4531 201.33237L909.4531 204.67612Q909.4531 205.69174 909.5 205.86362Q909.5469 206.01987 909.6875 206.12924Q909.84375 206.23862 910.0625 206.23862Q910.375 206.23862 910.9531 206.03549L911.1406 207.73862Q910.375 208.06674 909.40625 208.06674Q908.8125 208.06674 908.3281 207.86362Q907.8594 207.66049 907.625 207.34799Q907.40625 207.03549 907.3281 206.48862Q907.25 206.11362 907.25 204.94174L907.25 201.33237L906.25 201.33237L906.25 199.58237L907.25 199.58237L907.25 197.92612L909.4531 196.64487L909.4531 199.58237L910.9531 199.58237Z" fill-rule="nonzero"/><path fill="#9e9e9e" d="M870.9844 229.87924L870.9844 227.56674L866.2969 227.56674L866.2969 225.64487L871.2656 218.37924L873.1094 218.37924L873.1094 225.64487L874.53125 225.64487L874.53125 227.56674L873.1094 227.56674L873.1094 229.87924L870.9844 229.87924ZM870.9844 225.64487L870.9844 221.72299L868.3594 225.64487L870.9844 225.64487ZM879.3906 218.37924Q881.0625 218.37924 882.0 219.56674Q883.1094 220.97299 883.1094 224.22299Q883.1094 227.47299 881.9844 228.89487Q881.0625 230.08237 879.3906 230.08237Q877.71875 230.08237 876.6875 228.80112Q875.6719 227.50424 875.6719 224.20737Q875.6719 220.97299 876.7969 219.55112Q877.7344 218.37924 879.3906 218.37924ZM879.3906 220.19174Q879.0 220.19174 878.6875 220.45737Q878.375 220.70737 878.2031 221.36362Q877.96875 222.20737 877.96875 224.22299Q877.96875 226.23862 878.1719 227.00424Q878.375 227.75424 878.6875 228.00424Q879.0 228.25424 879.3906 228.25424Q879.7969 228.25424 880.1094 228.00424Q880.4219 227.73862 880.59375 227.08237Q880.8125 226.23862 880.8125 224.22299Q880.8125 222.20737 880.6094 221.45737Q880.40625 220.70737 880.09375 220.45737Q879.7969 220.19174 879.3906 220.19174ZM885.15625 229.87924L885.15625 227.67612L887.34375 227.67612L887.34375 229.87924L885.15625 229.87924ZM892.3906 218.37924Q894.0625 218.37924 895.0 219.56674Q896.1094 220.97299 896.1094 224.22299Q896.1094 227.47299 894.9844 228.89487Q894.0625 230.08237 892.3906 230.08237Q890.71875 230.08237 889.6875 228.80112Q888.6719 227.50424 888.6719 224.20737Q888.6719 220.97299 889.7969 219.55112Q890.7344 218.37924 892.3906 218.37924ZM892.3906 220.19174Q892.0 220.19174 891.6875 220.45737Q891.375 220.70737 891.2031 221.36362Q890.96875 222.20737 890.96875 224.22299Q890.96875 226.23862 891.1719 227.00424Q891.375 227.75424 891.6875 228.00424Q892.0 228.25424 892.3906 228.25424Q892.7969 228.25424 893.1094 228.00424Q893.4219 227.73862 893.59375 227.08237Q893.8125 226.23862 893.8125 224.22299Q893.8125 222.20737 893.6094 221.45737Q893.40625 220.70737 893.09375 220.45737Q892.7969 220.19174 892.3906 220.19174ZM897.7031 221.25424Q897.7031 219.70737 898.375 218.97299Q899.0469 218.22299 900.2031 218.22299Q901.40625 218.22299 902.0781 218.97299Q902.75 219.70737 902.75 221.25424Q902.75 222.78549 902.0781 223.53549Q901.40625 224.26987 900.25 224.26987Q899.0469 224.26987 898.375 223.53549Q897.7031 222.80112 897.7031 221.25424ZM899.40625 221.23862Q899.40625 222.34799 899.6719 222.73862Q899.8594 223.01987 900.2031 223.01987Q900.5625 223.01987 900.75 222.73862Q901.0 222.34799 901.0 221.23862Q901.0 220.11362 900.75 219.73862Q900.5625 219.45737 900.2031 219.45737Q899.8594 219.45737 899.6719 219.73862Q899.40625 220.11362 899.40625 221.23862ZM901.875 230.31674L900.25 230.31674L906.3594 218.22299L907.9375 218.22299L901.875 230.31674ZM905.4219 227.30112Q905.4219 225.76987 906.09375 225.03549Q906.78125 224.28549 907.9531 224.28549Q909.125 224.28549 909.7969 225.03549Q910.4844 225.76987 910.4844 227.30112Q910.4844 228.84799 909.7969 229.59799Q909.125 230.34799 907.96875 230.34799Q906.78125 230.34799 906.09375 229.59799Q905.4219 228.84799 905.4219 227.30112ZM907.1406 227.30112Q907.1406 228.41049 907.3906 228.78549Q907.59375 229.08237 907.9375 229.08237Q908.28125 229.08237 908.46875 228.80112Q908.7344 228.41049 908.7344 227.30112Q908.7344 226.17612 908.4844 225.80112Q908.28125 225.51987 907.9375 225.51987Q907.5781 225.51987 907.3906 225.80112Q907.1406 226.17612 907.1406 227.30112Z" fill-rule="nonzero"/><path stroke="#757575" stroke-width="1.0" stroke-linecap="butt" d="M911.0 213.37924L737.0 213.37924L705.81445 213.37924" fill-rule="nonzero"/><path fill="#9e9e9e" d="M707.81445 213.37924C707.81445 212.27467 706.919 211.37924 705.81445 211.37924C704.7099 211.37924 703.81445 212.27467 703.81445 213.37924C703.81445 214.48381 704.7099 215.37924 705.81445 215.37924C706.919 215.37924 707.81445 214.48381 707.81445 213.37924" fill-rule="nonzero"/><path fill="#1a1a1a" d="M768.1719 525.0L768.1719 513.5469L776.65625 513.5469L776.65625 515.4844L770.4844 515.4844L770.4844 518.0156L776.2344 518.0156L776.2344 519.9531L770.4844 519.9531L770.4844 523.0625L776.875 523.0625L776.875 525.0L768.1719 525.0ZM786.3906 519.15625L784.21875 519.5469Q784.1094 518.8906 783.71875 518.5625Q783.34375 518.2344 782.71875 518.2344Q781.90625 518.2344 781.40625 518.8125Q780.9219 519.375 780.9219 520.7031Q780.9219 522.1719 781.4219 522.78125Q781.9219 523.3906 782.75 523.3906Q783.375 523.3906 783.7656 523.0469Q784.1719 522.6875 784.34375 521.8125L786.5 522.1875Q786.15625 523.6719 785.2031 524.4375Q784.25 525.1875 782.65625 525.1875Q780.8281 525.1875 779.75 524.0469Q778.6719 522.8906 778.6719 520.8594Q778.6719 518.7969 779.75 517.65625Q780.84375 516.5156 782.6875 516.5156Q784.2031 516.5156 785.09375 517.1719Q786.0 517.8125 786.3906 519.15625ZM787.6406 520.7344Q787.6406 519.6406 788.1719 518.625Q788.71875 517.59375 789.7031 517.0625Q790.7031 516.5156 791.9219 516.5156Q793.7969 516.5156 795.0 517.7344Q796.2031 518.9531 796.2031 520.8281Q796.2031 522.7031 794.9844 523.9531Q793.78125 525.1875 791.9375 525.1875Q790.7969 525.1875 789.75 524.6719Q788.71875 524.15625 788.1719 523.15625Q787.6406 522.15625 787.6406 520.7344ZM789.8906 520.84375Q789.8906 522.0781 790.46875 522.7344Q791.0625 523.3906 791.9219 523.3906Q792.78125 523.3906 793.3594 522.7344Q793.9531 522.0781 793.9531 520.8281Q793.9531 519.6094 793.3594 518.9531Q792.78125 518.2969 791.9219 518.2969Q791.0625 518.2969 790.46875 518.9531Q789.8906 519.6094 789.8906 520.84375ZM797.375 522.625L799.5781 522.2969Q799.71875 522.9375 800.1406 523.2656Q800.5781 523.59375 801.3594 523.59375Q802.2031 523.59375 802.6406 523.28125Q802.9219 523.0625 802.9219 522.7031Q802.9219 522.4531 802.7656 522.28125Q802.6094 522.125 802.03125 522.0Q799.375 521.40625 798.6719 520.9219Q797.6875 520.25 797.6875 519.0625Q797.6875 517.9844 798.53125 517.25Q799.3906 516.5156 801.1719 516.5156Q802.875 516.5156 803.7031 517.0781Q804.53125 517.625 804.84375 518.7031L802.78125 519.09375Q802.6406 518.6094 802.2656 518.3594Q801.90625 518.09375 801.21875 518.09375Q800.34375 518.09375 799.96875 518.3281Q799.71875 518.5 799.71875 518.78125Q799.71875 519.0156 799.9375 519.1719Q800.2344 519.3906 801.9844 519.7969Q803.75 520.1875 804.4375 520.7656Q805.125 521.3594 805.125 522.40625Q805.125 523.5469 804.1719 524.375Q803.21875 525.1875 801.3594 525.1875Q799.65625 525.1875 798.6719 524.5Q797.6875 523.8125 797.375 522.625ZM806.1094 516.7031L808.4531 516.7031L810.4375 522.59375L812.375 516.7031L814.6406 516.7031L811.71875 524.6875L811.1875 526.1406Q810.90625 526.8594 810.6406 527.2344Q810.375 527.625 810.03125 527.8594Q809.7031 528.1094 809.2031 528.2344Q808.7031 528.375 808.0781 528.375Q807.4531 528.375 806.84375 528.2344L806.6406 526.5156Q807.15625 526.625 807.5781 526.625Q808.34375 526.625 808.7031 526.1719Q809.0781 525.71875 809.2656 525.03125L806.1094 516.7031ZM815.375 522.625L817.5781 522.2969Q817.71875 522.9375 818.1406 523.2656Q818.5781 523.59375 819.3594 523.59375Q820.2031 523.59375 820.6406 523.28125Q820.9219 523.0625 820.9219 522.7031Q820.9219 522.4531 820.7656 522.28125Q820.6094 522.125 820.03125 522.0Q817.375 521.40625 816.6719 520.9219Q815.6875 520.25 815.6875 519.0625Q815.6875 517.9844 816.53125 517.25Q817.3906 516.5156 819.1719 516.5156Q820.875 516.5156 821.7031 517.0781Q822.53125 517.625 822.84375 518.7031L820.78125 519.09375Q820.6406 518.6094 820.2656 518.3594Q819.90625 518.09375 819.21875 518.09375Q818.34375 518.09375 817.96875 518.3281Q817.71875 518.5 817.71875 518.78125Q817.71875 519.0156 817.9375 519.1719Q818.2344 519.3906 819.9844 519.7969Q821.75 520.1875 822.4375 520.7656Q823.125 521.3594 823.125 522.40625Q823.125 523.5469 822.1719 524.375Q821.21875 525.1875 819.3594 525.1875Q817.65625 525.1875 816.6719 524.5Q815.6875 523.8125 815.375 522.625ZM828.9531 516.7031L828.9531 518.4531L827.4531 518.4531L827.4531 521.7969Q827.4531 522.8125 827.5 522.9844Q827.5469 523.1406 827.6875 523.25Q827.84375 523.3594 828.0625 523.3594Q828.375 523.3594 828.9531 523.15625L829.1406 524.8594Q828.375 525.1875 827.40625 525.1875Q826.8125 525.1875 826.3281 524.9844Q825.8594 524.78125 825.625 524.46875Q825.40625 524.15625 825.3281 523.6094Q825.25 523.2344 825.25 522.0625L825.25 518.4531L824.25 518.4531L824.25 516.7031L825.25 516.7031L825.25 515.0469L827.4531 513.7656L827.4531 516.7031L828.9531 516.7031ZM834.9531 522.3594L837.1406 522.71875Q836.71875 523.9219 835.8125 524.5625Q834.90625 525.1875 833.53125 525.1875Q831.375 525.1875 830.3281 523.7656Q829.5156 522.6406 829.5156 520.90625Q829.5156 518.84375 830.59375 517.6875Q831.6719 516.5156 833.3125 516.5156Q835.1719 516.5156 836.2344 517.7344Q837.3125 518.9531 837.2656 521.4844L831.7656 521.4844Q831.78125 522.4531 832.28125 523.0Q832.7969 523.5469 833.5625 523.5469Q834.0781 523.5469 834.4219 523.2656Q834.78125 522.9844 834.9531 522.3594ZM835.0781 520.1406Q835.0625 519.1875 834.59375 518.6875Q834.125 518.1875 833.4531 518.1875Q832.7344 518.1875 832.2656 518.71875Q831.7969 519.2344 831.7969 520.1406L835.0781 520.1406ZM838.9844 516.7031L841.0156 516.7031L841.0156 517.8281Q842.09375 516.5156 843.59375 516.5156Q844.3906 516.5156 844.96875 516.84375Q845.5625 517.1719 845.9375 517.8281Q846.4844 517.1719 847.1094 516.84375Q847.75 516.5156 848.46875 516.5156Q849.3906 516.5156 850.0156 516.8906Q850.65625 517.25 850.96875 517.96875Q851.1875 518.5 851.1875 519.6875L851.1875 525.0L849.0 525.0L849.0 520.25Q849.0 519.0156 848.7656 518.65625Q848.46875 518.1875 847.8281 518.1875Q847.375 518.1875 846.96875 518.46875Q846.5625 518.75 846.375 519.2969Q846.2031 519.84375 846.2031 521.0156L846.2031 525.0L844.0 525.0L844.0 520.4531Q844.0 519.2344 843.875 518.8906Q843.7656 518.53125 843.5156 518.3594Q843.28125 518.1875 842.8594 518.1875Q842.34375 518.1875 841.9375 518.46875Q841.53125 518.7344 841.3594 519.25Q841.1875 519.7656 841.1875 520.96875L841.1875 525.0L838.9844 525.0L838.9844 516.7031ZM862.5 520.78125L862.5 518.8594L867.4844 518.8594L867.4844 523.4219Q866.75 524.125 865.375 524.6719Q864.0 525.2031 862.5781 525.2031Q860.78125 525.2031 859.4375 524.4531Q858.1094 523.6875 857.4375 522.28125Q856.7656 520.875 856.7656 519.2344Q856.7656 517.4375 857.5156 516.0469Q858.2656 514.65625 859.71875 513.9219Q860.8125 513.34375 862.4531 513.34375Q864.59375 513.34375 865.78125 514.25Q866.9844 515.1406 867.3281 516.71875L865.03125 517.1406Q864.7969 516.2969 864.125 515.8125Q863.4531 515.3281 862.4531 515.3281Q860.9375 515.3281 860.0469 516.2969Q859.15625 517.25 859.15625 519.1406Q859.15625 521.1719 860.0625 522.2031Q860.96875 523.21875 862.4375 523.21875Q863.15625 523.21875 863.8906 522.9375Q864.625 522.6406 865.1406 522.2344L865.1406 520.78125L862.5 520.78125ZM871.25 525.0L869.0625 525.0L869.0625 516.7031L871.09375 516.7031L871.09375 517.875Q871.625 517.0469 872.03125 516.78125Q872.4531 516.5156 872.9844 516.5156Q873.7344 516.5156 874.4375 516.9219L873.75 518.84375Q873.2031 518.4844 872.71875 518.4844Q872.2656 518.4844 871.9375 518.7344Q871.625 518.9844 871.4375 519.65625Q871.25 520.3125 871.25 522.4375L871.25 525.0ZM874.6406 520.7344Q874.6406 519.6406 875.1719 518.625Q875.71875 517.59375 876.7031 517.0625Q877.7031 516.5156 878.9219 516.5156Q880.7969 516.5156 882.0 517.7344Q883.2031 518.9531 883.2031 520.8281Q883.2031 522.7031 881.9844 523.9531Q880.78125 525.1875 878.9375 525.1875Q877.7969 525.1875 876.75 524.6719Q875.71875 524.15625 875.1719 523.15625Q874.6406 522.15625 874.6406 520.7344ZM876.8906 520.84375Q876.8906 522.0781 877.46875 522.7344Q878.0625 523.3906 878.9219 523.3906Q879.78125 523.3906 880.3594 522.7344Q880.9531 522.0781 880.9531 520.8281Q880.9531 519.6094 880.3594 518.9531Q879.78125 518.2969 878.9219 518.2969Q878.0625 518.2969 877.46875 518.9531Q876.8906 519.6094 876.8906 520.84375ZM886.7031 525.0L884.0781 516.7031L886.2031 516.7031L887.7656 522.1406L889.1875 516.7031L891.3125 516.7031L892.6875 522.1406L894.28125 516.7031L896.4375 516.7031L893.78125 525.0L891.6719 525.0L890.2344 519.65625L888.8281 525.0L886.7031 525.0ZM900.9531 516.7031L900.9531 518.4531L899.4531 518.4531L899.4531 521.7969Q899.4531 522.8125 899.5 522.9844Q899.5469 523.1406 899.6875 523.25Q899.84375 523.3594 900.0625 523.3594Q900.375 523.3594 900.9531 523.15625L901.1406 524.8594Q900.375 525.1875 899.40625 525.1875Q898.8125 525.1875 898.3281 524.9844Q897.8594 524.78125 897.625 524.46875Q897.40625 524.15625 897.3281 523.6094Q897.25 523.2344 897.25 522.0625L897.25 518.4531L896.25 518.4531L896.25 516.7031L897.25 516.7031L897.25 515.0469L899.4531 513.7656L899.4531 516.7031L900.9531 516.7031ZM904.34375 513.5469L904.34375 517.75Q905.40625 516.5156 906.875 516.5156Q907.6406 516.5156 908.25 516.7969Q908.8594 517.0781 909.15625 517.5156Q909.46875 517.9531 909.5781 518.4844Q909.7031 519.0156 909.7031 520.125L909.7031 525.0L907.5 525.0L907.5 520.6094Q907.5 519.3125 907.375 518.96875Q907.25 518.6094 906.9375 518.40625Q906.625 518.1875 906.1406 518.1875Q905.59375 518.1875 905.15625 518.4531Q904.7344 518.71875 904.53125 519.2656Q904.34375 519.7969 904.34375 520.84375L904.34375 525.0L902.1406 525.0L902.1406 513.5469L904.34375 513.5469Z" fill-rule="nonzero"/><path fill="#9e9e9e" d="M874.09375 544.9531L874.09375 547.0L866.40625 547.0Q866.53125 545.84375 867.15625 544.8125Q867.78125 543.7656 869.625 542.0625Q871.1094 540.6719 871.4375 540.1875Q871.8906 539.5 871.8906 538.84375Q871.8906 538.1094 871.5 537.71875Q871.1094 537.3125 870.40625 537.3125Q869.71875 537.3125 869.3125 537.7344Q868.90625 538.1406 868.84375 539.1094L866.65625 538.8906Q866.8594 537.0781 867.8906 536.2969Q868.9219 535.5 870.46875 535.5Q872.15625 535.5 873.125 536.4219Q874.09375 537.3281 874.09375 538.6875Q874.09375 539.4531 873.8125 540.15625Q873.5469 540.8594 872.9375 541.625Q872.5469 542.125 871.5 543.0781Q870.46875 544.03125 870.1875 544.34375Q869.90625 544.65625 869.7344 544.9531L874.09375 544.9531ZM879.3906 535.5Q881.0625 535.5 882.0 536.6875Q883.1094 538.09375 883.1094 541.34375Q883.1094 544.59375 881.9844 546.0156Q881.0625 547.2031 879.3906 547.2031Q877.71875 547.2031 876.6875 545.9219Q875.6719 544.625 875.6719 541.3281Q875.6719 538.09375 876.7969 536.6719Q877.7344 535.5 879.3906 535.5ZM879.3906 537.3125Q879.0 537.3125 878.6875 537.5781Q878.375 537.8281 878.2031 538.4844Q877.96875 539.3281 877.96875 541.34375Q877.96875 543.3594 878.1719 544.125Q878.375 544.875 878.6875 545.125Q879.0 545.375 879.3906 545.375Q879.7969 545.375 880.1094 545.125Q880.4219 544.8594 880.59375 544.2031Q880.8125 543.3594 880.8125 541.34375Q880.8125 539.3281 880.6094 538.5781Q880.40625 537.8281 880.09375 537.5781Q879.7969 537.3125 879.3906 537.3125ZM885.15625 547.0L885.15625 544.7969L887.34375 544.7969L887.34375 547.0L885.15625 547.0ZM892.3906 535.5Q894.0625 535.5 895.0 536.6875Q896.1094 538.09375 896.1094 541.34375Q896.1094 544.59375 894.9844 546.0156Q894.0625 547.2031 892.3906 547.2031Q890.71875 547.2031 889.6875 545.9219Q888.6719 544.625 888.6719 541.3281Q888.6719 538.09375 889.7969 536.6719Q890.7344 535.5 892.3906 535.5ZM892.3906 537.3125Q892.0 537.3125 891.6875 537.5781Q891.375 537.8281 891.2031 538.4844Q890.96875 539.3281 890.96875 541.34375Q890.96875 543.3594 891.1719 544.125Q891.375 544.875 891.6875 545.125Q892.0 545.375 892.3906 545.375Q892.7969 545.375 893.1094 545.125Q893.4219 544.8594 893.59375 544.2031Q893.8125 543.3594 893.8125 541.34375Q893.8125 539.3281 893.6094 538.5781Q893.40625 537.8281 893.09375 537.5781Q892.7969 537.3125 892.3906 537.3125ZM897.7031 538.375Q897.7031 536.8281 898.375 536.09375Q899.0469 535.34375 900.2031 535.34375Q901.40625 535.34375 902.0781 536.09375Q902.75 536.8281 902.75 538.375Q902.75 539.90625 902.0781 540.65625Q901.40625 541.3906 900.25 541.3906Q899.0469 541.3906 898.375 540.65625Q897.7031 539.9219 897.7031 538.375ZM899.40625 538.3594Q899.40625 539.46875 899.6719 539.8594Q899.8594 540.1406 900.2031 540.1406Q900.5625 540.1406 900.75 539.8594Q901.0 539.46875 901.0 538.3594Q901.0 537.2344 900.75 536.8594Q900.5625 536.5781 900.2031 536.5781Q899.8594 536.5781 899.6719 536.8594Q899.40625 537.2344 899.40625 538.3594ZM901.875 547.4375L900.25 547.4375L906.3594 535.34375L907.9375 535.34375L901.875 547.4375ZM905.4219 544.4219Q905.4219 542.8906 906.09375 542.15625Q906.78125 541.40625 907.9531 541.40625Q909.125 541.40625 909.7969 542.15625Q910.4844 542.8906 910.4844 544.4219Q910.4844 545.96875 909.7969 546.71875Q909.125 547.46875 907.96875 547.46875Q906.78125 547.46875 906.09375 546.71875Q905.4219 545.96875 905.4219 544.4219ZM907.1406 544.4219Q907.1406 545.53125 907.3906 545.90625Q907.59375 546.2031 907.9375 546.2031Q908.28125 546.2031 908.46875 545.9219Q908.7344 545.53125 908.7344 544.4219Q908.7344 543.2969 908.4844 542.9219Q908.28125 542.6406 907.9375 542.6406Q907.5781 542.6406 907.3906 542.9219Q907.1406 543.2969 907.1406 544.4219Z" fill-rule="nonzero"/><path stroke="#757575" stroke-width="1.0" stroke-linecap="butt" d="M911.0 530.5L737.0 530.5L470.0 537.95" fill-rule="nonzero"/><path fill="#9e9e9e" d="M472.0 537.95C472.0 536.84546 471.10458 535.95 470.0 535.95C468.89542 535.95 468.0 536.84546 468.0 537.95C468.0 539.05457 468.89542 539.95 470.0 539.95C471.10458 539.95 472.0 539.05457 472.0 537.95" fill-rule="nonzero"/></svg>